<svg width="72" height="72" viewBox="0 0 72 72" fill="none" xmlns="http://www.w3.org/2000/svg">
<path fill-rule="evenodd" clip-rule="evenodd" d="M19.9187 0.221058C17.5569 0.857113 15.583 2.70208 14.9428 4.87216C14.7591 5.49417 14.757 5.49567 13.7703 5.66645C7.9762 6.66976 3.16746 11.1807 1.63776 17.0477C1.22628 18.6259 1.08598 21.633 1.34745 23.2653C1.72965 25.6511 2.7506 28.1556 4.07156 29.9481L4.73227 30.8446L2.59461 34.5053C1.41887 36.5186 0.347574 38.5303 0.213998 38.9759C-0.348246 40.8503 0.219526 42.9389 1.65719 44.2835C2.82381 45.3748 3.8452 45.786 5.3891 45.786C6.52748 45.786 6.76834 45.7339 7.66362 45.2929C8.25904 44.9999 8.88687 44.5451 9.212 44.1713C9.51277 43.8255 10.717 41.8959 11.888 39.8831C13.4908 37.1284 14.0954 36.2117 14.3335 36.1757L14.6496 36.128L14.6519 50.893C14.6542 67.0064 14.6395 66.7081 15.5128 68.3306C16.4199 70.0163 18.357 71.4384 20.2973 71.843C20.8558 71.9594 27.5924 72.0056 43.1576 71.9995C63.5205 71.9915 65.3022 71.9711 66.2095 71.7343C68.6514 71.0969 70.5521 69.1781 71.1978 66.6987C71.3998 65.923 71.4269 62.3237 71.4269 36.1488C71.4269 3.44989 71.4916 5.70126 70.4995 3.84001C69.5335 2.02777 67.4714 0.511519 65.4674 0.139927C64.9531 0.0446006 56.7244 -0.00575181 42.6817 0.000523569C24.2592 0.00874133 20.5742 0.0444512 19.9187 0.221058ZM65.6057 2.47168C67.153 2.93113 68.3191 4.0347 68.8059 5.50015C69.0167 6.13456 69.0366 9.2582 69.001 36.0819L68.9615 65.9569L68.5305 66.8903C68.037 67.9589 67.1167 68.8875 66.0743 69.3693L65.3756 69.6922H42.8888H20.4021L19.5499 69.2739C18.5294 68.7726 17.4752 67.6544 17.0913 66.6657C16.8317 65.9969 16.8139 65.1217 16.7753 51.15L16.7344 36.343L17.8959 36.2509C25.2957 35.6638 31.4512 29.502 31.9538 22.1786C32.2155 18.3653 31.4032 15.2219 29.3643 12.1576C26.9571 8.53967 22.9351 6.06732 18.5401 5.50358C17.7973 5.40841 17.1897 5.27961 17.1897 5.21746C17.1897 4.87844 18.2603 3.58481 18.8885 3.16496C20.3369 2.19706 18.8628 2.25368 42.899 2.24233C62.5844 2.23292 64.88 2.25607 65.6057 2.47168ZM19.7025 8.05931C25.635 9.48576 29.78 14.771 29.78 20.9086C29.78 31.5041 18.0147 37.804 9.19601 31.9306C8.04612 31.1648 6.5853 29.7484 5.75083 28.5901C1.7688 23.0636 2.81395 15.0126 8.07541 10.683C11.3086 8.0224 15.5595 7.06317 19.7025 8.05931ZM45.6478 9.99422C44.8744 10.3077 44.9059 9.80028 44.9059 21.9156V33.1864L45.3252 33.5471C45.7402 33.904 45.7761 33.9076 48.96 33.9076H52.1755L52.6122 33.4709L53.049 33.0341V21.973C53.049 14.1848 52.9998 10.8042 52.8831 10.5478C52.7918 10.3476 52.5534 10.1091 52.3531 10.0178C51.926 9.82329 46.1201 9.80267 45.6478 9.99422ZM14.0842 11.349C11.4232 12.0461 8.96263 14.0339 7.79944 16.4262C6.98618 18.0986 6.73023 19.1733 6.73292 20.9026C6.73546 22.5831 7.00949 23.8709 7.6306 25.123C9.21379 28.3138 11.9833 30.1818 15.7686 30.612C20.1684 31.1119 24.4972 28.2182 25.9413 23.8119C26.3205 22.6548 26.3777 22.259 26.3716 20.8339C26.3616 18.4821 25.8802 17.0419 24.412 14.971C23.1678 13.216 20.8769 11.7229 18.7309 11.2683C17.3228 10.9699 15.4036 11.0032 14.0842 11.349ZM56.682 17.772C56.5025 17.8443 56.2839 18.0373 56.1964 18.2009C56.09 18.3998 56.0372 20.9279 56.0372 25.8294C56.0372 32.9298 56.0465 33.1698 56.3323 33.4556C56.776 33.8992 57.0639 33.9291 60.429 33.8791C63.4869 33.8336 63.5393 33.8274 63.8202 33.4801C64.0924 33.1438 64.1056 32.7898 64.1056 25.8349C64.1056 21.8241 64.0638 18.4336 64.0128 18.3006C63.79 17.7203 63.2019 17.621 60.0415 17.6309C58.3733 17.6361 56.8616 17.6996 56.682 17.772ZM34.1414 21.7237L33.7746 22.0903V27.6089C33.7746 32.8197 33.7906 33.1471 34.0603 33.4801C34.3455 33.8325 34.3497 33.8329 37.8088 33.8329C41.2678 33.8329 41.272 33.8325 41.5573 33.4801C41.8271 33.1469 41.8429 32.819 41.8429 27.5518V21.9762L41.4492 21.6666C41.0782 21.3746 40.8676 21.3568 37.7819 21.3568H34.5081L34.1414 21.7237ZM51.3654 42.725C46.7582 43.2868 42.6871 46.8424 41.4458 51.389C41.0818 52.7216 41.0754 55.8644 41.4337 57.2162C42.2759 60.3927 44.6616 63.3122 47.5954 64.7565C49.5835 65.7353 50.5272 65.9497 52.8249 65.9443C56.1294 65.9367 58.4586 65.0259 60.7992 62.8264C64.4156 59.4275 65.4715 53.8406 63.353 49.3132C61.2479 44.8145 56.3418 42.1182 51.3654 42.725ZM32.1348 43.1675C31.7107 43.5916 31.6504 43.982 31.707 45.9366C31.7562 47.6343 31.7686 47.6897 32.1768 48.0405C32.5726 48.3807 32.7027 48.4007 34.5099 48.4007C36.2199 48.4007 36.4657 48.3677 36.8174 48.091C37.2101 47.7822 37.2111 47.7757 37.2111 45.6366C37.2111 43.4974 37.2101 43.491 36.8174 43.1822C36.4637 42.904 36.2208 42.8724 34.4268 42.8724C32.6377 42.8724 32.3992 42.9031 32.1348 43.1675ZM20.5028 45.1606C20.0718 45.6194 20.0887 46.2332 20.5447 46.6892L20.9114 47.056H24.3346C27.5715 47.056 27.7792 47.0391 28.1514 46.7463C28.6448 46.3583 28.6912 45.5586 28.2463 45.1136C27.9642 44.8315 27.7483 44.8148 24.3875 44.8148C20.8597 44.8148 20.8247 44.818 20.5028 45.1606ZM52.0031 49.5155C52.0031 54.0051 52.0076 54.071 52.3301 54.3715C52.645 54.6648 52.8334 54.6761 57.4102 54.6761H62.1632V55.1918C62.1632 56.123 61.8469 57.271 61.2403 58.5415C60.7768 59.5124 60.3871 60.0505 59.4981 60.9476C55.7707 64.7096 49.9403 64.7191 46.1809 60.9696C42.4123 57.2108 42.404 51.3799 46.1619 47.6471C47.7291 46.0902 49.8998 45.0068 51.5175 44.9741L52.0031 44.9642V49.5155ZM32.1348 51.3853C31.7107 51.8093 31.6504 52.1997 31.707 54.1544C31.7562 55.852 31.7686 55.9074 32.1768 56.2583C32.5726 56.5985 32.7027 56.6185 34.5099 56.6185C36.2199 56.6185 36.4657 56.5855 36.8174 56.3088C37.2087 56.001 37.2111 55.9868 37.2111 53.9383C37.2111 52.0798 37.1808 51.8389 36.9014 51.4839C36.5934 51.0923 36.5809 51.0902 34.5107 51.0902C32.638 51.0902 32.4003 51.1198 32.1348 51.3853ZM20.5447 53.1006C20.0741 53.5711 20.0653 54.2194 20.5237 54.6501C20.8587 54.9648 20.9806 54.975 24.4084 54.975C27.7483 54.975 27.9643 54.9581 28.2463 54.6761C28.6912 54.2312 28.6448 53.4315 28.1514 53.0435C27.7792 52.7506 27.5715 52.7337 24.3346 52.7337H20.9114L20.5447 53.1006ZM32.0421 59.7719C31.791 60.0493 31.7575 60.3305 31.7575 62.1583C31.7575 64.8706 31.7641 64.8789 33.9977 64.9615C35.8343 65.0295 36.522 64.9277 36.9206 64.5291C37.1793 64.2704 37.2111 64.0203 37.2111 62.2417C37.2111 60.4477 37.1796 60.2047 36.9014 59.8511C36.5927 59.4586 36.5851 59.4574 34.4592 59.4574C32.4811 59.4574 32.3061 59.4801 32.0421 59.7719ZM20.5716 60.9624C20.0569 61.3672 20.0455 62.028 20.5447 62.5271L20.9114 62.8939H24.3346C27.5715 62.8939 27.7792 62.877 28.1514 62.5842C28.666 62.1794 28.6881 61.4368 28.1994 60.9775C27.8648 60.6634 27.7399 60.6527 24.4093 60.6527C21.1514 60.6527 20.944 60.6694 20.5716 60.9624Z" fill="#00ADA8"/>
</svg>
