<svg width="16" height="15" viewBox="0 0 16 15" fill="none" xmlns="http://www.w3.org/2000/svg">
<path fill-rule="evenodd" clip-rule="evenodd" d="M15.2782 0.173598C14.4125 0.62791 13.0402 1.48962 12.1429 2.14223C10.347 3.44851 8.74599 4.99554 7.61917 6.5135C7.17186 7.1161 6.80259 7.69402 6.50149 8.26276L6.2762 8.6883L6.1308 8.52174C6.05082 8.43015 5.52746 7.82627 4.96778 7.17983C4.4081 6.53339 3.90198 5.9781 3.84307 5.9459C3.74706 5.89341 3.55168 5.88848 1.95652 5.89827L0.177086 5.90919L0.0909292 6.00938C-0.0487848 6.17184 -0.027933 6.34744 0.15652 6.56142C0.239998 6.65825 1.83237 8.38556 3.69518 10.3999C5.67453 12.5403 7.12412 14.0797 7.18325 14.1042C7.32285 14.1621 7.52355 14.0939 7.58811 13.9667C7.61471 13.9143 7.70368 13.6224 7.78584 13.318C8.75052 9.74385 10.7159 6.14527 13.3481 3.13341C13.8999 2.50196 14.906 1.48808 15.4709 0.994101C15.7392 0.759483 15.9682 0.542967 15.9797 0.512939C16.0125 0.427354 16.0043 0.252042 15.9639 0.176562C15.9238 0.101581 15.7511 0 15.6637 0C15.6336 0 15.4601 0.0781227 15.2782 0.173598Z" fill="#007A77"/>
</svg>
