<svg width="72" height="72" viewBox="0 0 72 72" fill="none" xmlns="http://www.w3.org/2000/svg">
<path fill-rule="evenodd" clip-rule="evenodd" d="M34.5784 0.617943C33.0962 1.54638 30.3978 2.80021 28.6471 3.37356C26.1753 4.18334 22.7644 4.78895 20.6578 4.79225C20.0152 4.79315 19.7929 4.86396 19.4951 5.16174C19.127 5.52972 19.1269 5.53077 19.1269 8.75534V11.9808L11.8137 12.0251L4.50044 12.0692L3.49834 12.544C2.10365 13.2046 1.23507 14.0551 0.560305 15.4205L0 16.554V34.7964V53.0388L0.560305 54.1723C1.23507 55.5377 2.10365 56.3881 3.49834 57.0488L4.50044 57.5236L16.5907 57.5653L28.681 57.607L28.547 58.4654C28.2503 60.3668 27.5055 62.2762 26.4494 63.8433L25.83 64.7624L24.8411 64.8352C23.065 64.9657 21.5454 65.9919 20.7841 67.5746C20.5028 68.1596 20.409 68.6442 20.3582 69.7771C20.2952 71.1776 20.3067 71.2433 20.6782 71.6148L21.0634 72H35.9285H50.7936L51.1812 71.6124C51.557 71.2366 51.5668 71.1793 51.4982 69.7558C51.4343 68.4303 51.3764 68.1937 50.9043 67.3308C50.0543 65.7768 48.4496 64.7993 46.7486 64.7993C46.0617 64.7993 46.0434 64.7864 45.4201 63.8617C44.3517 62.2764 43.608 60.3749 43.31 58.4654L43.176 57.607L55.2663 57.5653L67.3566 57.5236L68.3587 57.0488C69.7533 56.3881 70.6219 55.5377 71.2967 54.1723L71.857 53.0388V34.7964V16.554L71.2967 15.4205C70.6219 14.0551 69.7533 13.2046 68.3587 12.544L67.3566 12.0692L60.0433 12.0251L52.7301 11.9808V8.75534C52.7301 5.53077 52.73 5.52972 52.3619 5.16174C52.0641 4.86396 51.8418 4.79315 51.1992 4.79225C46.984 4.78565 41.5311 3.17569 37.5215 0.753857C36.8287 0.335316 36.1025 -0.00386708 35.9076 3.3305e-05C35.7129 0.00393369 35.1147 0.281911 34.5784 0.617943ZM45.1612 13.5626C45.4025 13.8038 45.5294 14.1004 45.5294 14.4229C45.5294 14.8705 45.0101 15.4344 39.7891 20.6552C34.4471 25.9974 34.013 26.3956 33.5298 26.3956C33.0532 26.3956 32.7371 26.1219 29.6691 23.054C26.6759 20.0609 26.3276 19.6614 26.3276 19.2219C26.3276 18.5663 26.8966 17.9947 27.5491 17.9947C27.9777 17.9947 28.3549 18.3135 30.7825 20.7285L33.5307 23.462L38.6726 18.3282C43.3247 13.6832 43.861 13.1943 44.3037 13.1943C44.6232 13.1943 44.9208 13.3221 45.1612 13.5626ZM19.1716 17.5822C19.2361 20.022 19.3274 21.0793 19.561 22.0883C20.9936 28.2748 25.5836 33.5405 32.5653 37.0071C34.8856 38.1593 35.6945 38.4459 36.3037 38.3316C37.1474 38.1734 41.733 35.7806 43.154 34.7574C47.4681 31.6504 50.0807 28.4346 51.626 24.3291C52.3652 22.3654 52.601 20.8491 52.6871 17.5072L52.7673 14.3944H59.5945C64.5163 14.3944 66.594 14.4452 67.0391 14.5768C67.8632 14.8203 69.1059 16.063 69.3493 16.887C69.4869 17.3525 69.5318 20.961 69.5318 31.551V45.5974H35.9285H2.32523V31.551C2.32523 20.961 2.37008 17.3525 2.50764 16.887C2.73342 16.1229 3.98919 14.8225 4.72546 14.5905C5.07334 14.4808 7.58444 14.4199 12.1689 14.4097L19.0873 14.3944L19.1716 17.5822ZM40.7878 57.9361C40.8233 58.1218 40.9274 58.7287 41.0191 59.2846C41.241 60.6296 41.9352 62.6374 42.5912 63.831L43.1235 64.7993H35.9453H28.7671L29.3924 63.5533C30.1118 62.1197 30.6184 60.6076 30.8399 59.2329C30.9248 58.7053 31.0256 58.1218 31.064 57.9361L31.1337 57.5986H35.9285H40.7233L40.7878 57.9361Z" fill="#00ADA8"/>
</svg>
