<svg width="73" height="72" viewBox="0 0 73 72" fill="none" xmlns="http://www.w3.org/2000/svg">
<path fill-rule="evenodd" clip-rule="evenodd" d="M5.12353 0.144243C3.48898 0.463467 1.63455 1.84526 0.823039 3.34901C0.0176477 4.84124 0 5.056 0 13.396V21.0514H2.41717H4.83434L5.27226 21.4428C5.97148 22.0678 5.84097 23.2279 5.03003 23.5975C4.82068 23.6929 3.75484 23.7555 2.3416 23.7555H0V35.995V48.2346H2.41717H4.83434L5.27781 48.6308C5.9053 49.1914 5.9053 49.9819 5.27781 50.5425L4.83434 50.9387H2.41717H0V58.5941C0 66.9341 0.0176477 67.1493 0.823039 68.6408C1.30864 69.5401 2.45645 70.6835 3.37612 71.184C4.94108 72.0358 3.71655 71.9977 29.5601 72C46.2415 72.0015 53.4362 71.9558 53.968 71.8453C56.4831 71.3224 58.574 69.1725 59.06 66.6094C59.2244 65.7427 59.2661 51.8268 59.1038 51.989C59.0479 52.0448 58.4466 53.2837 57.7673 54.7419C57.0881 56.2001 56.3563 57.6139 56.141 57.8836C55.5284 58.6515 47.9886 64.6029 47.1278 64.9981C46.4777 65.2965 46.2143 65.3387 45.3488 65.282C43.7173 65.1756 42.5305 64.3867 41.8325 62.9447C41.5309 62.3218 41.4877 61.9798 41.3955 59.4894C41.3392 57.9693 41.2726 55.4075 41.2474 53.7966L41.2018 50.8675L50.2035 31.5556L59.2053 12.2438V9.19525C59.2053 7.51843 59.14 5.80191 59.06 5.38064C58.5712 2.80293 56.4998 0.673248 53.968 0.145239C53.0425 -0.0477475 6.11152 -0.0487438 5.12353 0.144243ZM65.2254 9.64612C64.2165 9.99467 63.3942 10.5924 62.7528 11.4431C62.2834 12.0657 60.2015 16.2925 60.2015 16.623C60.2015 16.7471 70.2928 21.4109 70.3568 21.3164C70.5684 21.0034 72.458 16.7111 72.5722 16.2837C72.8118 15.3863 72.7566 14.0161 72.4451 13.1297C71.4652 10.3419 68.0212 8.68005 65.2254 9.64612ZM33.6211 11.2C34.5306 11.6023 35.2313 12.2818 35.6811 13.1979C36.063 13.9757 36.0801 14.103 36.1253 16.5327L36.1724 19.0589H38.555C41.4794 19.0589 42.001 19.1992 43.0768 20.275C44.1303 21.3285 44.3018 21.997 44.2363 24.796C44.1795 27.219 44.0399 27.668 43.0282 28.6799C42.0531 29.6548 41.525 29.7974 38.6892 29.8506L36.1766 29.8979L36.1275 32.4128C36.0715 35.2696 35.9321 35.7518 34.8491 36.8347C33.9259 37.7581 33.0982 37.9875 30.6901 37.9875C29.2133 37.9875 28.4772 37.9262 27.9993 37.7634C27.1109 37.4607 26.0778 36.5211 25.6698 35.6446C25.3591 34.9776 25.3357 34.7516 25.3345 32.4014L25.333 29.8753H23.0011C21.2045 29.8753 20.499 29.8203 19.9277 29.6357C18.952 29.3206 17.9254 28.3897 17.4892 27.4244C17.1762 26.7318 17.1499 26.4947 17.1529 24.3959C17.1554 22.5584 17.2031 22.0133 17.3998 21.5726C17.7901 20.6983 18.4239 20.0009 19.2383 19.5498C19.9831 19.1372 20.0408 19.1288 22.6289 19.0589L25.2619 18.9878L25.333 16.3548C25.4124 13.4173 25.5116 13.0452 26.4716 12.0852C27.4996 11.0572 28.5308 10.7922 31.1945 10.8714C32.582 10.9126 33.1436 10.9888 33.6211 11.2ZM28.4443 13.9224C28.1124 14.1908 28.1074 14.235 28.0371 17.5487L27.966 20.9032L27.5717 21.2976L27.1774 21.6918L23.8229 21.763C20.5381 21.8327 20.4628 21.841 20.2044 22.1605C19.8565 22.5906 19.7347 23.4821 19.8096 25.0479C19.8649 26.2087 19.9066 26.3638 20.2565 26.7139L20.6423 27.1L23.8061 27.1379C25.9666 27.1638 27.0782 27.2315 27.312 27.3514C27.9439 27.6757 28.0371 28.2019 28.0371 31.4472V34.4514L28.4531 34.8674C28.8671 35.2814 28.8772 35.2834 30.595 35.2834C32.4957 35.2834 32.9852 35.1413 33.2752 34.5047C33.3902 34.2522 33.4453 33.1398 33.4453 31.0673V28.0032L33.8613 27.5872L34.2773 27.1712H37.3553C41.5798 27.1712 41.5576 27.1863 41.5576 24.3071C41.5576 22.6045 41.5553 22.5927 41.1416 22.179L40.7255 21.763L37.6191 21.7624C34.7821 21.762 34.473 21.7377 34.054 21.4822C33.8017 21.3284 33.562 21.0565 33.5213 20.8779C33.4806 20.6993 33.4309 19.1547 33.4107 17.4453L33.3741 14.3371L32.9748 13.994C32.5959 13.6684 32.4782 13.6507 30.6779 13.6507C29.0225 13.6507 28.7373 13.6855 28.4443 13.9224ZM58.4409 20.2331C58.1809 20.8006 54.9804 27.6743 51.3284 35.508C47.6765 43.3416 44.6886 49.8149 44.6886 49.8929C44.6886 50.1118 54.6408 54.7069 54.7872 54.5556C54.8565 54.484 57.8387 48.1492 61.4142 40.4781C64.9898 32.8071 67.958 26.4846 68.0105 26.4284C68.1215 26.309 69.5484 26.9429 69.9145 27.2741C70.0517 27.3983 70.164 27.5936 70.164 27.708C70.164 27.8223 69.1072 30.1756 67.8157 32.9373C66.5241 35.699 65.4674 38.0964 65.4674 38.2648C65.4674 39.261 66.4753 39.9057 67.3694 39.4815C67.8243 39.2656 68.0134 38.9193 70.035 34.5977C72.7209 28.8567 72.8605 28.5211 72.8646 27.7972C72.8709 26.7152 72.248 25.5131 71.3687 24.9107C70.9866 24.6488 59.1701 19.2012 58.9844 19.2012C58.9454 19.2012 58.7008 19.6655 58.4409 20.2331ZM43.989 55.1727C43.9955 56.4838 44.0445 58.5394 44.0975 59.7409C44.1932 61.9038 44.198 61.9285 44.5917 62.2671C44.8577 62.4959 45.1647 62.609 45.5202 62.609C45.9957 62.609 46.4219 62.3156 49.5839 59.8125C52.6487 57.3862 53.0814 56.9963 52.852 56.867C52.3127 56.5636 44.2064 52.7888 44.0938 52.7888C44.0295 52.7888 43.9824 53.8617 43.989 55.1727Z" fill="#00ADA8"/>
</svg>
