<svg width="70" height="72" viewBox="0 0 70 72" fill="none" xmlns="http://www.w3.org/2000/svg">
<path fill-rule="evenodd" clip-rule="evenodd" d="M18.2049 6.75966C18.1539 13.3719 18.1451 13.5385 17.8008 14.3981C17.3335 15.5654 16.2409 16.7089 15.0692 17.2573L14.1421 17.691L7.07099 17.7369L0 17.7828L0.0409441 41.2219L0.0820429 64.6609L0.443279 65.6652C1.31918 68.1003 2.93114 69.9159 5.18076 71.0008C5.94556 71.3698 6.98385 71.7454 7.48815 71.8358C8.10479 71.9462 15.0372 72 28.6694 72C48.3441 72 48.9687 71.9912 50.1273 71.6949C51.8292 71.2595 53.0606 70.5575 54.3265 69.3008C55.5661 68.0703 56.1024 67.2315 56.6773 65.624C57.07 64.5259 57.0779 64.4193 57.1377 59.4901L57.1986 54.4737L56.4516 55.1704C55.3005 56.2434 54.6108 56.658 50.413 58.7988C46.8238 60.6294 46.447 60.7875 45.6965 60.7765C44.121 60.7538 42.992 59.8405 42.6449 58.3078C42.5074 57.7006 43.0406 49.168 43.281 48.1288C43.6427 46.5659 44.5782 44.9944 50.8179 35.4691L57.1878 25.7451L57.1385 16.6193L57.0892 7.49356L56.6835 6.37602C56.0965 4.75973 55.5614 3.92524 54.3265 2.69923C53.0606 1.44247 51.8292 0.740549 50.1273 0.30515C48.9782 0.011279 48.3645 0 33.5954 0H18.2569L18.2049 6.75966ZM14.4986 0.531039C13.9298 0.728034 13.0133 1.19341 12.4619 1.56484C11.0775 2.4976 2.27573 11.1079 1.52838 12.2607C1.01032 13.06 0.587433 13.997 0.24582 15.103L0.138438 15.4506H6.69229C11.2597 15.4506 13.4054 15.3963 13.7715 15.2714C14.4884 15.0267 15.0038 14.6072 15.416 13.9325C15.7612 13.3676 15.7629 13.3327 15.7637 6.75966C15.7641 3.12675 15.7122 0.158524 15.6486 0.163622C15.5849 0.168567 15.0673 0.333888 14.4986 0.531039ZM49.222 8.25914C49.596 8.63305 49.6014 8.67662 49.6014 11.3562C49.6014 14.0358 49.596 14.0794 49.222 14.4533L48.8429 14.8326H37.1997C25.7779 14.8326 25.5503 14.8267 25.2257 14.5242C24.7677 14.0976 24.6945 13.5369 24.7526 10.9074L24.8031 8.62486L25.2366 8.25234L25.6702 7.87983H37.2565H48.8429L49.222 8.25914ZM62.3117 24.0641C60.9749 24.617 60.3005 25.2638 59.0205 27.2208C58.3446 28.2544 57.8086 29.113 57.8294 29.1289C58.3285 29.5081 66.9674 35.073 67.0572 35.073C67.309 35.073 69.3944 31.5824 69.6348 30.7584C70.35 28.307 69.0647 25.4098 66.7737 24.3088C65.6325 23.7603 63.3489 23.635 62.3117 24.0641ZM20.8812 25.9151C21.1298 26.062 21.4708 26.4663 21.6389 26.8137C21.9246 27.4037 21.9447 27.7792 21.9447 32.5236C21.9447 37.268 21.9246 37.6435 21.6389 38.2335C21.0699 39.409 21.1263 39.3991 14.999 39.3991C9.00124 39.3991 8.92877 39.3885 8.34196 38.4259C8.05797 37.9604 8.04021 37.6147 8.03974 32.5545C8.03912 26.6154 8.05056 26.5373 9.01236 25.9509C9.4782 25.6668 9.82414 25.6492 14.9681 25.6487C19.8661 25.6481 20.4758 25.6756 20.8812 25.9151ZM51.1464 28.7382C51.5369 29.1286 51.543 29.8318 51.1602 30.3047L50.8648 30.6695L40.2288 30.7133C34.3789 30.7372 29.4346 30.718 29.2413 30.6706C28.3322 30.4477 27.9986 29.4434 28.6154 28.7867L28.9514 28.4292H39.8943C50.6315 28.4292 50.8433 28.4351 51.1464 28.7382ZM15.586 30.9452C14.9457 31.4047 14.3425 31.8296 14.2455 31.8895C14.144 31.9522 13.8648 31.7658 13.5875 31.4498C13.2171 31.0281 12.9872 30.9013 12.5923 30.9013C12.0135 30.9013 11.4383 31.4744 11.4383 32.051C11.4383 32.5315 12.9402 34.6006 13.422 34.7839C13.9623 34.9892 14.2195 34.857 16.3247 33.2915C18.0343 32.0201 18.082 31.9685 18.082 31.3897C18.082 30.7367 17.791 30.3696 17.1457 30.2086C16.8284 30.1295 16.5198 30.2752 15.586 30.9452ZM51.919 38.0242C49.4121 41.8558 47.3409 45.0447 47.3162 45.1105C47.2763 45.2169 49.0736 46.4279 54.8042 50.1559L56.5305 51.279L61.0345 44.3946C63.5117 40.6082 65.575 37.4153 65.6197 37.2991C65.6744 37.1565 64.2208 36.1105 61.1346 34.0719C58.6233 32.413 56.548 31.0563 56.5228 31.0567C56.4976 31.0572 54.4258 34.1926 51.919 38.0242ZM45.4186 34.5265C46.1282 34.8934 46.2483 35.5488 45.7274 36.2109L45.4073 36.618H37.201H28.9947L28.637 36.2821C28.0624 35.7421 28.2313 34.744 28.9462 34.456C29.1319 34.3812 32.8158 34.3156 37.1327 34.3102C43.7329 34.302 45.051 34.3364 45.4186 34.5265ZM45.8291 47.7675C45.7112 48.0512 45.5408 48.8047 45.4504 49.4421C45.2214 51.0548 44.8948 57.4796 45.0168 57.9663C45.2159 58.7594 45.5874 58.6485 49.5901 56.6022C52.8356 54.943 54.8048 53.7602 55.0902 53.2985C55.1478 53.2052 46.6469 47.488 46.1767 47.304C46.1033 47.2753 45.947 47.4838 45.8291 47.7675ZM20.8789 48.4022C21.9441 49.1139 21.9574 49.2 21.9099 55.1588C21.8633 61.0066 21.8753 60.9305 20.8911 61.5988C20.5137 61.855 20.0039 61.8835 15.1464 61.9223C9.18757 61.9698 9.10151 61.9565 8.38985 60.8913C8.04206 60.3708 8.03912 60.3212 8.03912 55.0177C8.03912 49.1051 8.05349 49.0101 9.04342 48.3587C9.48268 48.0696 9.79092 48.0535 14.9304 48.0526C20.3125 48.0515 20.3579 48.0541 20.8789 48.4022ZM39.1767 50.933C39.5767 51.0865 39.8597 51.8904 39.6876 52.3842C39.4348 53.1091 39.1241 53.1502 33.9046 53.1502H29.0379L28.6588 52.7709C28.1953 52.3075 28.1749 51.7797 28.5998 51.2397L28.9199 50.8326H33.9176C36.6662 50.8326 39.0328 50.8777 39.1767 50.933ZM15.5327 53.5386C14.9378 53.9955 14.3943 54.3733 14.3249 54.3779C14.2554 54.3826 13.9691 54.1429 13.6887 53.8455C13.3524 53.489 13.0376 53.3047 12.7649 53.3047C12.2499 53.3047 11.5928 53.9368 11.5928 54.4323C11.5928 54.8554 12.9894 56.9225 13.437 57.1621C14.0089 57.4682 14.3527 57.3129 16.2501 55.8927C18.0607 54.5374 18.1618 54.4328 18.2081 53.869C18.2725 53.0849 17.9164 52.6831 17.1697 52.6972C16.744 52.7052 16.3615 52.9019 15.5327 53.5386ZM37.0378 57.1943C37.4743 57.6043 37.5 58.24 37.0999 58.7339L36.8047 59.0987H32.8374H28.8701L28.5749 58.7339C28.1849 58.2523 28.2008 57.6573 28.6154 57.2159C28.9493 56.8607 28.9761 56.8584 32.8158 56.8584C36.5708 56.8584 36.6903 56.868 37.0378 57.1943Z" fill="#00ADA8"/>
</svg>
