<svg width="33" height="32" viewBox="0 0 33 32" fill="none" xmlns="http://www.w3.org/2000/svg">
<path d="M7.46524 10.2822H1.027C0.741265 10.2822 0.509735 10.5139 0.509735 10.7995V31.4828C0.509735 31.7685 0.741265 32.0001 1.027 32.0001H7.46524C7.75098 32.0001 7.98251 31.7685 7.98251 31.4828V10.7995C7.98251 10.5139 7.75098 10.2822 7.46524 10.2822Z" fill="white"/>
<path d="M4.24843 0C1.90583 0 0 1.90376 0 4.24378C0 6.58483 1.90583 8.48931 4.24843 8.48931C6.58918 8.48931 8.49345 6.58473 8.49345 4.24378C8.49355 1.90376 6.58918 0 4.24843 0Z" fill="white"/>
<path d="M23.8413 9.76782C21.2555 9.76782 19.344 10.8794 18.1846 12.1425V10.7992C18.1846 10.5135 17.953 10.2819 17.6673 10.2819H11.5016C11.2158 10.2819 10.9843 10.5135 10.9843 10.7992V31.4825C10.9843 31.7682 11.2158 31.9997 11.5016 31.9997H17.9257C18.2115 31.9997 18.443 31.7682 18.443 31.4825V21.249C18.443 17.8006 19.3797 16.4571 21.7835 16.4571C24.4015 16.4571 24.6096 18.6108 24.6096 21.4264V31.4826C24.6096 31.7683 24.8411 31.9998 25.1268 31.9998H31.5534C31.8391 31.9998 32.0706 31.7683 32.0706 31.4826V20.1374C32.0706 15.0097 31.0929 9.76782 23.8413 9.76782Z" fill="white"/>
</svg>
