<svg width="204" height="40" viewBox="0 0 204 40" fill="none" xmlns="http://www.w3.org/2000/svg">
<path fill-rule="evenodd" clip-rule="evenodd" d="M10.2493 31.6933L13.3161 28.6218L18.2126 33.5183L29.1299 22.5964L24.238 17.7046L27.3095 14.6331L35.6115 22.9397L18.5513 40L10.2493 31.6933Z" fill="white"/>
<path fill-rule="evenodd" clip-rule="evenodd" d="M8.30668 29.7506L11.3735 26.6838L6.48166 21.7873L17.4036 10.8701L22.2954 15.7619L25.3669 12.6904L17.0602 4.38843L0 21.4486L8.30668 29.7506Z" fill="white"/>
<path d="M13.9323 0.0986328H9.5108V4.52008H13.9323V0.0986328Z" fill="white"/>
<path d="M9.35558 4.67065H5.16931V9.01214H9.35558V4.67065Z" fill="white"/>
<path d="M5.0141 9.09229H2.33771V11.7499H5.0141V9.09229Z" fill="white"/>
<path d="M2.16368 7.50244H0.729065V8.99351H2.16368V7.50244Z" fill="white"/>
<path d="M4.99534 1.90039H2.26251V4.53445H4.99534V1.90039Z" fill="white"/>
<path d="M6.91429 0H5.12219V1.82973H6.91429V0Z" fill="white"/>
<path d="M2.18253 0.221191H0.691467V1.81103H2.18253V0.221191Z" fill="white"/>
<path fill-rule="evenodd" clip-rule="evenodd" d="M18.2832 21.5711C21.0771 23.8712 22.4882 21.1008 21.2088 20.4846C22.7846 19.8778 22.7611 17.8223 21.0677 17.8176C21.9097 16.4629 20.2258 14.8778 18.7488 15.7574C17.5635 14.3087 15.1505 15.0801 15.4986 16.7263C13.269 16.6276 12.9727 18.97 14.3274 19.8966C13.2926 21.8439 15.3151 22.9023 16.6792 22.5401C16.825 20.9643 17.6199 19.3839 19.2192 17.7941C18.5746 18.8602 18.1194 20.0299 17.8739 21.2513L18.2832 21.5711Z" fill="white"/>
<path fill-rule="evenodd" clip-rule="evenodd" d="M19.2192 17.7939C15.7055 21.3452 15.9266 24.8494 19.1016 28.3208C17.2624 24.8118 17.1307 21.3029 19.2192 17.7939Z" fill="white"/>
<path fill-rule="evenodd" clip-rule="evenodd" d="M11.8533 23.1703L14.111 23.1139C14.5344 27.7094 21.2888 28.2127 21.7733 22.7705L24.0405 22.7C24.0405 23.2597 23.984 24.7131 23.6407 25.2399L22.4365 25.127L22.1073 25.7573L22.8269 26.6981C22.7299 26.9716 22.5781 27.2223 22.3808 27.4351C22.1834 27.6478 21.9447 27.818 21.6792 27.9351L20.8138 27.1826L20.1364 27.5777L20.3058 28.8712C19.8191 29.1108 19.2864 29.2424 18.7441 29.2569L18.3443 28.0574H17.5729C17.5097 28.4673 17.3589 28.8587 17.1308 29.2051C16.6121 29.2101 16.0996 29.0924 15.635 28.8618L15.762 27.573L15.1788 27.2296L14.1675 27.9822C13.7129 27.6871 13.3433 27.2785 13.095 26.7968L13.8053 25.8091L13.4431 25.1976L12.2531 25.3246C11.9989 24.6392 11.8636 23.9154 11.8533 23.1844" fill="white"/>
<path d="M51.4591 17.6675H49.451C49.3737 17.2384 49.23 16.8608 49.0197 16.5347C48.8095 16.2086 48.552 15.9318 48.2473 15.7044C47.9427 15.4769 47.6015 15.3053 47.2239 15.1895C46.8506 15.0736 46.4537 15.0157 46.0332 15.0157C45.2737 15.0157 44.5936 15.2066 43.9929 15.5885C43.3964 15.9704 42.9244 16.5304 42.5768 17.2684C42.2336 18.0065 42.0619 18.9076 42.0619 19.9717C42.0619 21.0445 42.2336 21.9499 42.5768 22.6879C42.9244 23.4259 43.3986 23.9838 43.9993 24.3614C44.6 24.739 45.2759 24.9278 46.0268 24.9278C46.443 24.9278 46.8378 24.872 47.2111 24.7604C47.5887 24.6446 47.9298 24.4751 48.2345 24.252C48.5391 24.0288 48.7966 23.7564 49.0068 23.4345C49.2214 23.1084 49.3694 22.7351 49.451 22.3146L51.4591 22.321C51.3518 22.969 51.1437 23.5654 50.8348 24.1104C50.5301 24.651 50.1375 25.1187 49.6569 25.5135C49.1806 25.904 48.6357 26.2065 48.0221 26.421C47.4085 26.6356 46.7391 26.7429 46.0139 26.7429C44.8725 26.7429 43.8555 26.4725 42.963 25.9319C42.0705 25.3869 41.3668 24.6081 40.8519 23.5954C40.3412 22.5828 40.0859 21.3749 40.0859 19.9717C40.0859 18.5643 40.3434 17.3564 40.8583 16.348C41.3732 15.3353 42.0769 14.5587 42.9695 14.018C43.862 13.4731 44.8768 13.2006 46.0139 13.2006C46.7133 13.2006 47.3655 13.3014 47.9706 13.5031C48.5799 13.7005 49.127 13.9923 49.6119 14.3785C50.0967 14.7604 50.4979 15.2281 50.8155 15.7816C51.133 16.3308 51.3476 16.9595 51.4591 17.6675Z" fill="white"/>
<path d="M57.8489 26.7622C56.922 26.7622 56.1132 26.5498 55.4224 26.125C54.7315 25.7002 54.1951 25.1059 53.8132 24.3421C53.4313 23.5783 53.2404 22.6858 53.2404 21.6645C53.2404 20.639 53.4313 19.7422 53.8132 18.9741C54.1951 18.206 54.7315 17.6096 55.4224 17.1847C56.1132 16.7599 56.922 16.5475 57.8489 16.5475C58.7757 16.5475 59.5846 16.7599 60.2754 17.1847C60.9663 17.6096 61.5026 18.206 61.8845 18.9741C62.2664 19.7422 62.4574 20.639 62.4574 21.6645C62.4574 22.6858 62.2664 23.5783 61.8845 24.3421C61.5026 25.1059 60.9663 25.7002 60.2754 26.125C59.5846 26.5498 58.7757 26.7622 57.8489 26.7622ZM57.8553 25.1466C58.4561 25.1466 58.9538 24.9879 59.3486 24.6703C59.7433 24.3528 60.0351 23.9301 60.2239 23.4023C60.417 22.8746 60.5136 22.2931 60.5136 21.6581C60.5136 21.0273 60.417 20.448 60.2239 19.9202C60.0351 19.3882 59.7433 18.9612 59.3486 18.6394C58.9538 18.3176 58.4561 18.1567 57.8553 18.1567C57.2503 18.1567 56.7483 18.3176 56.3492 18.6394C55.9544 18.9612 55.6605 19.3882 55.4674 19.9202C55.2786 20.448 55.1842 21.0273 55.1842 21.6581C55.1842 22.2931 55.2786 22.8746 55.4674 23.4023C55.6605 23.9301 55.9544 24.3528 56.3492 24.6703C56.7483 24.9879 57.2503 25.1466 57.8553 25.1466Z" fill="white"/>
<path d="M66.53 20.6926V26.5626H64.6055V16.6763H66.4528V18.2854H66.5751C66.8025 17.7619 67.1587 17.3414 67.6435 17.0238C68.1327 16.7063 68.7485 16.5475 69.4908 16.5475C70.1645 16.5475 70.7545 16.6891 71.2608 16.9723C71.7671 17.2513 72.1598 17.6675 72.4387 18.221C72.7176 18.7745 72.857 19.459 72.857 20.2742V26.5626H70.9326V20.5059C70.9326 19.7894 70.7459 19.2294 70.3726 18.826C69.9993 18.4184 69.4865 18.2146 68.8343 18.2146C68.388 18.2146 67.9911 18.3111 67.6435 18.5042C67.3003 18.6973 67.0278 18.9805 66.8261 19.3538C66.6287 19.7229 66.53 20.1691 66.53 20.6926Z" fill="white"/>
<path d="M75.8242 13.3808L79.493 24.1168H79.6411L83.3098 13.3808H85.4596L80.7159 26.5626H78.4181L73.6745 13.3808H75.8242Z" fill="white"/>
<path d="M87.2087 26.5626V16.6763H89.1332V26.5626H87.2087ZM88.1806 15.1508C87.8459 15.1508 87.5584 15.0393 87.3181 14.8161C87.0821 14.5887 86.9641 14.3184 86.9641 14.0051C86.9641 13.6876 87.0821 13.4173 87.3181 13.1942C87.5584 12.9667 87.8459 12.853 88.1806 12.853C88.5153 12.853 88.8006 12.9667 89.0366 13.1942C89.2769 13.4173 89.3971 13.6876 89.3971 14.0051C89.3971 14.3184 89.2769 14.5887 89.0366 14.8161C88.8006 15.0393 88.5153 15.1508 88.1806 15.1508Z" fill="white"/>
<path d="M95.4232 26.7557C94.6251 26.7557 93.9128 26.5519 93.2863 26.1443C92.6641 25.7323 92.1749 25.1466 91.8188 24.3871C91.4669 23.6233 91.291 22.7072 91.291 21.6388C91.291 20.5703 91.4691 19.6563 91.8252 18.8968C92.1857 18.1373 92.6791 17.5559 93.3056 17.1526C93.9321 16.7492 94.6422 16.5475 95.4361 16.5475C96.0497 16.5475 96.5431 16.6505 96.9164 16.8565C97.294 17.0582 97.5858 17.2942 97.7918 17.5645C98.0021 17.8348 98.1651 18.073 98.281 18.2789H98.3968V13.3808H100.321V26.5626H98.4419V25.0243H98.281C98.1651 25.2346 97.9978 25.4749 97.7789 25.7452C97.5644 26.0155 97.2683 26.2515 96.8907 26.4532C96.5131 26.6549 96.0239 26.7557 95.4232 26.7557ZM95.848 25.1144C96.4015 25.1144 96.8692 24.9685 97.2511 24.6768C97.6373 24.3807 97.9291 23.9709 98.1265 23.4474C98.3282 22.9239 98.429 22.3146 98.429 21.6195C98.429 20.9329 98.3303 20.3322 98.1329 19.8173C97.9355 19.3023 97.6459 18.9011 97.264 18.6136C96.8821 18.3261 96.4101 18.1824 95.848 18.1824C95.2687 18.1824 94.786 18.3326 94.3998 18.6329C94.0136 18.9333 93.7218 19.3431 93.5244 19.8623C93.3314 20.3815 93.2348 20.9672 93.2348 21.6195C93.2348 22.2803 93.3335 22.8746 93.5309 23.4023C93.7283 23.9301 94.02 24.3485 94.4062 24.6575C94.7967 24.9621 95.2773 25.1144 95.848 25.1144Z" fill="white"/>
<path d="M105.945 26.7815C105.319 26.7815 104.752 26.6656 104.246 26.4339C103.74 26.1979 103.338 25.8568 103.042 25.4105C102.751 24.9643 102.605 24.4172 102.605 23.7692C102.605 23.2114 102.712 22.7523 102.926 22.3918C103.141 22.0314 103.431 21.746 103.795 21.5358C104.16 21.3255 104.568 21.1668 105.018 21.0595C105.469 20.9522 105.928 20.8707 106.396 20.8149C106.988 20.7462 107.468 20.6905 107.837 20.6476C108.206 20.6004 108.475 20.5253 108.642 20.4223C108.809 20.3193 108.893 20.1519 108.893 19.9202V19.8752C108.893 19.3131 108.734 18.8775 108.417 18.5686C108.104 18.2596 107.636 18.1052 107.014 18.1052C106.366 18.1052 105.855 18.2489 105.482 18.5364C105.113 18.8196 104.857 19.135 104.716 19.4826L102.907 19.0706C103.122 18.4699 103.435 17.985 103.847 17.616C104.263 17.2427 104.742 16.9723 105.282 16.805C105.823 16.6334 106.391 16.5475 106.988 16.5475C107.383 16.5475 107.801 16.5947 108.243 16.6891C108.689 16.7793 109.105 16.9466 109.492 17.1912C109.882 17.4358 110.202 17.7855 110.451 18.2403C110.7 18.6909 110.824 19.2766 110.824 19.9975V26.5626H108.945V25.211H108.867C108.743 25.4599 108.556 25.7044 108.307 25.9447C108.058 26.185 107.739 26.3846 107.348 26.5433C106.958 26.7021 106.49 26.7815 105.945 26.7815ZM106.364 25.2367C106.896 25.2367 107.35 25.1316 107.728 24.9213C108.11 24.7111 108.4 24.4365 108.597 24.0975C108.799 23.7542 108.899 23.3873 108.899 22.9969V21.7224C108.831 21.7911 108.698 21.8555 108.5 21.9155C108.307 21.9713 108.086 22.0207 107.837 22.0636C107.589 22.1022 107.346 22.1387 107.11 22.173C106.874 22.203 106.677 22.2288 106.518 22.2502C106.145 22.2974 105.804 22.3768 105.495 22.4884C105.19 22.5999 104.945 22.7608 104.761 22.9711C104.581 23.1771 104.491 23.4517 104.491 23.795C104.491 24.2713 104.666 24.6317 105.018 24.8763C105.37 25.1166 105.819 25.2367 106.364 25.2367Z" fill="white"/>
<path d="M119.452 26.5626H117.341L122.085 13.3808H124.382L129.126 26.5626H127.015L123.288 15.7752H123.185L119.452 26.5626ZM119.806 21.4006H126.654V23.0741H119.806V21.4006Z" fill="white"/>
<path d="M130.875 26.5626V16.6763H132.722V18.2854H132.845C133.051 17.7404 133.387 17.3156 133.855 17.011C134.323 16.702 134.883 16.5475 135.535 16.5475C136.196 16.5475 136.749 16.702 137.196 17.011C137.646 17.3199 137.979 17.7447 138.193 18.2854H138.296C138.532 17.7576 138.908 17.3371 139.423 17.0238C139.938 16.7063 140.551 16.5475 141.263 16.5475C142.16 16.5475 142.892 16.8286 143.458 17.3907C144.029 17.9528 144.314 18.8003 144.314 19.9331V26.5626H142.39V20.1133C142.39 19.4439 142.207 18.9591 141.843 18.6587C141.478 18.3583 141.042 18.2081 140.536 18.2081C139.91 18.2081 139.423 18.4012 139.075 18.7874C138.728 19.1693 138.554 19.6606 138.554 20.2614V26.5626H136.636V19.991C136.636 19.4547 136.468 19.0234 136.134 18.6973C135.799 18.3712 135.363 18.2081 134.827 18.2081C134.462 18.2081 134.125 18.3047 133.817 18.4978C133.512 18.6866 133.265 18.9505 133.076 19.2895C132.892 19.6284 132.8 20.0211 132.8 20.4673V26.5626H130.875Z" fill="white"/>
<path d="M147.048 26.5626V13.3808H148.973V18.2789H149.089C149.2 18.073 149.361 17.8348 149.571 17.5645C149.782 17.2942 150.073 17.0582 150.447 16.8565C150.82 16.6505 151.313 16.5475 151.927 16.5475C152.725 16.5475 153.437 16.7492 154.064 17.1526C154.69 17.5559 155.182 18.1373 155.538 18.8968C155.898 19.6563 156.079 20.5703 156.079 21.6388C156.079 22.7072 155.9 23.6233 155.544 24.3871C155.188 25.1466 154.699 25.7323 154.077 26.1443C153.455 26.5519 152.744 26.7557 151.946 26.7557C151.346 26.7557 150.854 26.6549 150.472 26.4532C150.095 26.2515 149.799 26.0155 149.584 25.7452C149.37 25.4749 149.204 25.2346 149.089 25.0243H148.928V26.5626H147.048ZM148.934 21.6195C148.934 22.3146 149.035 22.9239 149.237 23.4474C149.438 23.9709 149.73 24.3807 150.112 24.6768C150.494 24.9685 150.962 25.1144 151.515 25.1144C152.09 25.1144 152.571 24.9621 152.957 24.6575C153.343 24.3485 153.635 23.9301 153.832 23.4023C154.034 22.8746 154.135 22.2803 154.135 21.6195C154.135 20.9672 154.036 20.3815 153.839 19.8623C153.646 19.3431 153.354 18.9333 152.963 18.6329C152.577 18.3326 152.094 18.1824 151.515 18.1824C150.957 18.1824 150.485 18.3261 150.099 18.6136C149.717 18.9011 149.428 19.3023 149.23 19.8173C149.033 20.3322 148.934 20.9329 148.934 21.6195Z" fill="white"/>
<path d="M158.24 26.5626V16.6763H160.164V26.5626H158.24ZM159.211 15.1508C158.877 15.1508 158.589 15.0393 158.349 14.8161C158.113 14.5887 157.995 14.3184 157.995 14.0051C157.995 13.6876 158.113 13.4173 158.349 13.1942C158.589 12.9667 158.877 12.853 159.211 12.853C159.546 12.853 159.832 12.9667 160.068 13.1942C160.308 13.4173 160.428 13.6876 160.428 14.0051C160.428 14.3184 160.308 14.5887 160.068 14.8161C159.832 15.0393 159.546 15.1508 159.211 15.1508Z" fill="white"/>
<path d="M167.014 26.7622C166.04 26.7622 165.201 26.5541 164.497 26.1378C163.798 25.7173 163.257 25.1273 162.875 24.3678C162.498 23.604 162.309 22.7094 162.309 21.6838C162.309 20.6712 162.498 19.7786 162.875 19.0063C163.257 18.2339 163.789 17.631 164.472 17.1976C165.158 16.7642 165.961 16.5475 166.879 16.5475C167.437 16.5475 167.977 16.6398 168.501 16.8243C169.024 17.0088 169.494 17.2985 169.91 17.6932C170.327 18.088 170.655 18.6008 170.895 19.2315C171.136 19.858 171.256 20.6197 171.256 21.5165V22.1987H163.397V20.757H169.37C169.37 20.2506 169.267 19.8022 169.061 19.4118C168.855 19.017 168.565 18.7059 168.192 18.4785C167.823 18.2511 167.39 18.1373 166.892 18.1373C166.351 18.1373 165.879 18.2704 165.476 18.5364C165.077 18.7981 164.768 19.1414 164.549 19.5662C164.334 19.9867 164.227 20.4437 164.227 20.9372V22.0636C164.227 22.7244 164.343 23.2865 164.575 23.7499C164.811 24.2133 165.139 24.5673 165.559 24.8119C165.98 25.0522 166.471 25.1724 167.033 25.1724C167.398 25.1724 167.731 25.1209 168.031 25.0179C168.331 24.9106 168.591 24.7519 168.81 24.5416C169.029 24.3313 169.196 24.0717 169.312 23.7628L171.133 24.091C170.987 24.6274 170.726 25.0973 170.348 25.5006C169.975 25.8997 169.505 26.2108 168.939 26.4339C168.376 26.6527 167.735 26.7622 167.014 26.7622Z" fill="white"/>
<path d="M175.315 20.6926V26.5626H173.391V16.6763H175.238V18.2854H175.36C175.588 17.7619 175.944 17.3414 176.429 17.0238C176.918 16.7063 177.534 16.5475 178.276 16.5475C178.95 16.5475 179.54 16.6891 180.046 16.9723C180.553 17.2513 180.945 17.6675 181.224 18.221C181.503 18.7745 181.642 19.459 181.642 20.2742V26.5626H179.718V20.5059C179.718 19.7894 179.531 19.2294 179.158 18.826C178.785 18.4184 178.272 18.2146 177.62 18.2146C177.173 18.2146 176.777 18.3111 176.429 18.5042C176.086 18.6973 175.813 18.9805 175.612 19.3538C175.414 19.7229 175.315 20.1691 175.315 20.6926Z" fill="white"/>
<path d="M188.838 16.6763V18.221H183.438V16.6763H188.838ZM184.886 14.3077H186.811V23.6598C186.811 24.0331 186.867 24.3142 186.978 24.503C187.09 24.6875 187.234 24.8141 187.41 24.8827C187.59 24.9471 187.785 24.9793 187.995 24.9793C188.15 24.9793 188.285 24.9685 188.401 24.9471C188.517 24.9256 188.607 24.9085 188.671 24.8956L189.019 26.4854C188.907 26.5283 188.748 26.5712 188.542 26.6141C188.336 26.6613 188.079 26.6871 187.77 26.6914C187.264 26.6999 186.792 26.6098 186.354 26.421C185.916 26.2322 185.562 25.9404 185.292 25.5457C185.022 25.1509 184.886 24.6553 184.886 24.0589V14.3077Z" fill="white"/>
<path d="M193.844 26.7815C193.218 26.7815 192.651 26.6656 192.145 26.4339C191.639 26.1979 191.238 25.8568 190.941 25.4105C190.65 24.9643 190.504 24.4172 190.504 23.7692C190.504 23.2114 190.611 22.7523 190.826 22.3918C191.04 22.0314 191.33 21.746 191.695 21.5358C192.059 21.3255 192.467 21.1668 192.917 21.0595C193.368 20.9522 193.827 20.8707 194.295 20.8149C194.887 20.7462 195.368 20.6905 195.737 20.6476C196.106 20.6004 196.374 20.5253 196.541 20.4223C196.709 20.3193 196.792 20.1519 196.792 19.9202V19.8752C196.792 19.3131 196.633 18.8775 196.316 18.5686C196.003 18.2596 195.535 18.1052 194.913 18.1052C194.265 18.1052 193.754 18.2489 193.381 18.5364C193.012 18.8196 192.757 19.135 192.615 19.4826L190.806 19.0706C191.021 18.4699 191.334 17.985 191.746 17.616C192.162 17.2427 192.641 16.9723 193.181 16.805C193.722 16.6334 194.291 16.5475 194.887 16.5475C195.282 16.5475 195.7 16.5947 196.142 16.6891C196.588 16.7793 197.005 16.9466 197.391 17.1912C197.781 17.4358 198.101 17.7855 198.35 18.2403C198.599 18.6909 198.723 19.2766 198.723 19.9975V26.5626H196.844V25.211H196.766C196.642 25.4599 196.455 25.7044 196.207 25.9447C195.958 26.185 195.638 26.3846 195.247 26.5433C194.857 26.7021 194.389 26.7815 193.844 26.7815ZM194.263 25.2367C194.795 25.2367 195.25 25.1316 195.627 24.9213C196.009 24.7111 196.299 24.4365 196.496 24.0975C196.698 23.7542 196.799 23.3873 196.799 22.9969V21.7224C196.73 21.7911 196.597 21.8555 196.4 21.9155C196.206 21.9713 195.986 22.0207 195.737 22.0636C195.488 22.1022 195.245 22.1387 195.009 22.173C194.773 22.203 194.576 22.2288 194.417 22.2502C194.044 22.2974 193.703 22.3768 193.394 22.4884C193.089 22.5999 192.845 22.7608 192.66 22.9711C192.48 23.1771 192.39 23.4517 192.39 23.795C192.39 24.2713 192.566 24.6317 192.917 24.8763C193.269 25.1166 193.718 25.2367 194.263 25.2367Z" fill="white"/>
<path d="M203.211 13.3808V26.5626H201.286V13.3808H203.211Z" fill="white"/>
<path d="M45.0117 32.6133H44.4023C44.3789 32.4831 44.3353 32.3685 44.2715 32.2695C44.2077 32.1706 44.1296 32.0866 44.0371 32.0176C43.9447 31.9486 43.8411 31.8965 43.7266 31.8613C43.6133 31.8262 43.4928 31.8086 43.3652 31.8086C43.1348 31.8086 42.9284 31.8665 42.7461 31.9824C42.5651 32.0983 42.4219 32.2682 42.3164 32.4922C42.2122 32.7161 42.1602 32.9896 42.1602 33.3125C42.1602 33.638 42.2122 33.9128 42.3164 34.1367C42.4219 34.3607 42.5658 34.5299 42.748 34.6445C42.9303 34.7591 43.1354 34.8164 43.3633 34.8164C43.4896 34.8164 43.6094 34.7995 43.7227 34.7656C43.8372 34.7305 43.9408 34.679 44.0332 34.6113C44.1257 34.5436 44.2038 34.4609 44.2676 34.3633C44.3327 34.2643 44.3776 34.151 44.4023 34.0234L45.0117 34.0254C44.9792 34.222 44.916 34.403 44.8223 34.5684C44.7298 34.7324 44.6107 34.8743 44.4648 34.9941C44.3203 35.1126 44.1549 35.2044 43.9688 35.2695C43.7826 35.3346 43.5794 35.3672 43.3594 35.3672C43.013 35.3672 42.7044 35.2852 42.4336 35.1211C42.1628 34.9557 41.9492 34.7194 41.793 34.4121C41.638 34.1048 41.5605 33.7383 41.5605 33.3125C41.5605 32.8854 41.6387 32.5189 41.7949 32.2129C41.9512 31.9056 42.1647 31.6699 42.4355 31.5059C42.7064 31.3405 43.0143 31.2578 43.3594 31.2578C43.5716 31.2578 43.7695 31.2884 43.9531 31.3496C44.138 31.4095 44.304 31.498 44.4512 31.6152C44.5983 31.7311 44.7201 31.873 44.8164 32.041C44.9128 32.2077 44.9779 32.3984 45.0117 32.6133Z" fill="white"/>
<path d="M49.2085 33.3125C49.2085 33.7396 49.1304 34.1068 48.9741 34.4141C48.8179 34.7201 48.6037 34.9557 48.3315 35.1211C48.0607 35.2852 47.7528 35.3672 47.4077 35.3672C47.0614 35.3672 46.7521 35.2852 46.48 35.1211C46.2091 34.9557 45.9956 34.7194 45.8394 34.4121C45.6831 34.1048 45.605 33.7383 45.605 33.3125C45.605 32.8854 45.6831 32.5189 45.8394 32.2129C45.9956 31.9056 46.2091 31.6699 46.48 31.5059C46.7521 31.3405 47.0614 31.2578 47.4077 31.2578C47.7528 31.2578 48.0607 31.3405 48.3315 31.5059C48.6037 31.6699 48.8179 31.9056 48.9741 32.2129C49.1304 32.5189 49.2085 32.8854 49.2085 33.3125ZM48.6108 33.3125C48.6108 32.987 48.5581 32.7129 48.4526 32.4902C48.3485 32.2663 48.2052 32.097 48.023 31.9824C47.842 31.8665 47.6369 31.8086 47.4077 31.8086C47.1772 31.8086 46.9715 31.8665 46.7905 31.9824C46.6095 32.097 46.4663 32.2663 46.3608 32.4902C46.2567 32.7129 46.2046 32.987 46.2046 33.3125C46.2046 33.638 46.2567 33.9128 46.3608 34.1367C46.4663 34.3594 46.6095 34.5286 46.7905 34.6445C46.9715 34.7591 47.1772 34.8164 47.4077 34.8164C47.6369 34.8164 47.842 34.7591 48.023 34.6445C48.2052 34.5286 48.3485 34.3594 48.4526 34.1367C48.5581 33.9128 48.6108 33.638 48.6108 33.3125Z" fill="white"/>
<path d="M53.1895 31.3125V35.3125H52.6348L50.6016 32.3789H50.5645V35.3125H49.9609V31.3125H50.5195L52.5547 34.25H52.5918V31.3125H53.1895Z" fill="white"/>
<path d="M56.2515 32.3633C56.2306 32.1784 56.1447 32.0352 55.9937 31.9336C55.8426 31.8307 55.6525 31.7793 55.4233 31.7793C55.2593 31.7793 55.1174 31.8053 54.9976 31.8574C54.8778 31.9082 54.7847 31.9785 54.7183 32.0684C54.6532 32.1569 54.6206 32.2578 54.6206 32.3711C54.6206 32.4661 54.6427 32.5482 54.687 32.6172C54.7326 32.6862 54.7918 32.7441 54.8647 32.791C54.939 32.8366 55.0184 32.875 55.103 32.9063C55.1877 32.9362 55.269 32.9609 55.3472 32.9805L55.7378 33.082C55.8654 33.1133 55.9963 33.1556 56.1304 33.209C56.2645 33.2624 56.3888 33.3327 56.5034 33.4199C56.618 33.5072 56.7105 33.6152 56.7808 33.7441C56.8524 33.873 56.8882 34.0273 56.8882 34.207C56.8882 34.4336 56.8296 34.6348 56.7124 34.8105C56.5965 34.9863 56.4279 35.125 56.2065 35.2266C55.9865 35.3281 55.7202 35.3789 55.4077 35.3789C55.1082 35.3789 54.8491 35.3314 54.6304 35.2363C54.4116 35.1413 54.2404 35.0065 54.1167 34.832C53.993 34.6563 53.9246 34.4479 53.9116 34.207H54.5171C54.5288 34.3516 54.5757 34.472 54.6577 34.5684C54.741 34.6634 54.8472 34.7344 54.9761 34.7813C55.1063 34.8268 55.2489 34.8496 55.4038 34.8496C55.5744 34.8496 55.7261 34.8229 55.8589 34.7695C55.993 34.7148 56.0985 34.6393 56.1753 34.543C56.2521 34.4453 56.2905 34.3314 56.2905 34.2012C56.2905 34.0827 56.2567 33.9857 56.189 33.9102C56.1226 33.8346 56.0321 33.7721 55.9175 33.7227C55.8042 33.6732 55.6759 33.6296 55.5327 33.5918L55.0601 33.4629C54.7397 33.3757 54.4858 33.2474 54.2983 33.0781C54.1121 32.9089 54.019 32.6849 54.019 32.4063C54.019 32.1758 54.0815 31.9746 54.2065 31.8027C54.3315 31.6309 54.5008 31.4974 54.7144 31.4023C54.9279 31.306 55.1688 31.2578 55.437 31.2578C55.7078 31.2578 55.9468 31.3053 56.1538 31.4004C56.3621 31.4954 56.5262 31.6263 56.646 31.793C56.7658 31.9583 56.8283 32.1484 56.8335 32.3633H56.2515Z" fill="white"/>
<path d="M60.1816 31.3125H60.7871V33.9434C60.7871 34.2233 60.7214 34.4714 60.5898 34.6875C60.4583 34.9023 60.2734 35.0716 60.0352 35.1953C59.7969 35.3177 59.5176 35.3789 59.1973 35.3789C58.8783 35.3789 58.5996 35.3177 58.3613 35.1953C58.123 35.0716 57.9382 34.9023 57.8066 34.6875C57.6751 34.4714 57.6094 34.2233 57.6094 33.9434V31.3125H58.2129V33.8945C58.2129 34.0755 58.2526 34.2363 58.332 34.377C58.4128 34.5176 58.5267 34.6283 58.6738 34.709C58.821 34.7884 58.9954 34.8281 59.1973 34.8281C59.4004 34.8281 59.5755 34.7884 59.7227 34.709C59.8711 34.6283 59.9844 34.5176 60.0625 34.377C60.1419 34.2363 60.1816 34.0755 60.1816 33.8945V31.3125Z" fill="white"/>
<path d="M61.6646 35.3125V31.3125H62.2681V34.793H64.0806V35.3125H61.6646Z" fill="white"/>
<path d="M64.0508 31.832V31.3125H67.1465V31.832H65.8984V35.3125H65.2969V31.832H64.0508Z" fill="white"/>
<path d="M71.1333 33.3125C71.1333 33.7396 71.0552 34.1068 70.8989 34.4141C70.7427 34.7201 70.5285 34.9557 70.2564 35.1211C69.9855 35.2852 69.6776 35.3672 69.3325 35.3672C68.9862 35.3672 68.6769 35.2852 68.4048 35.1211C68.134 34.9557 67.9204 34.7194 67.7642 34.4121C67.6079 34.1048 67.5298 33.7383 67.5298 33.3125C67.5298 32.8854 67.6079 32.5189 67.7642 32.2129C67.9204 31.9056 68.134 31.6699 68.4048 31.5059C68.6769 31.3405 68.9862 31.2578 69.3325 31.2578C69.6776 31.2578 69.9855 31.3405 70.2564 31.5059C70.5285 31.6699 70.7427 31.9056 70.8989 32.2129C71.0552 32.5189 71.1333 32.8854 71.1333 33.3125ZM70.5357 33.3125C70.5357 32.987 70.4829 32.7129 70.3774 32.4902C70.2733 32.2663 70.13 32.097 69.9478 31.9824C69.7668 31.8665 69.5617 31.8086 69.3325 31.8086C69.1021 31.8086 68.8963 31.8665 68.7153 31.9824C68.5343 32.097 68.3911 32.2663 68.2856 32.4902C68.1815 32.7129 68.1294 32.987 68.1294 33.3125C68.1294 33.638 68.1815 33.9128 68.2856 34.1367C68.3911 34.3594 68.5343 34.5286 68.7153 34.6445C68.8963 34.7591 69.1021 34.8164 69.3325 34.8164C69.5617 34.8164 69.7668 34.7591 69.9478 34.6445C70.13 34.5286 70.2733 34.3594 70.3774 34.1367C70.4829 33.9128 70.5357 33.638 70.5357 33.3125Z" fill="white"/>
<path d="M71.8857 35.3125V31.3125H73.3115C73.6214 31.3125 73.8786 31.3659 74.083 31.4727C74.2887 31.5794 74.4424 31.7272 74.544 31.916C74.6455 32.1035 74.6963 32.3203 74.6963 32.5664C74.6963 32.8112 74.6449 33.0267 74.542 33.2129C74.4404 33.3978 74.2868 33.5417 74.0811 33.6445C73.8766 33.7474 73.6195 33.7988 73.3096 33.7988H72.2295V33.2793H73.2549C73.4502 33.2793 73.6091 33.2513 73.7315 33.1953C73.8551 33.1393 73.9456 33.0579 74.0029 32.9512C74.0602 32.8444 74.0889 32.7161 74.0889 32.5664C74.0889 32.4154 74.0596 32.2845 74.001 32.1738C73.9437 32.0632 73.8532 31.9785 73.7295 31.9199C73.6071 31.86 73.4463 31.8301 73.2471 31.8301H72.4893V35.3125H71.8857ZM73.8604 33.5078L74.8486 35.3125H74.1611L73.1924 33.5078H73.8604Z" fill="white"/>
<path d="M76.0342 31.3125V35.3125H75.4307V31.3125H76.0342Z" fill="white"/>
<path d="M77.251 35.3125H76.6104L78.0498 31.3125H78.7471L80.1865 35.3125H79.5459L78.415 32.0391H78.3838L77.251 35.3125ZM77.3584 33.7461H79.4365V34.2539H77.3584V33.7461Z" fill="white"/>
<path d="M82.5576 35.3125H81.917L83.3565 31.3125H84.0537L85.4932 35.3125H84.8525L83.7217 32.0391H83.6904L82.5576 35.3125ZM82.665 33.7461H84.7432V34.2539H82.665V33.7461Z" fill="white"/>
<path d="M86.0708 31.3125H86.8032L88.0767 34.4219H88.1235L89.397 31.3125H90.1294V35.3125H89.5552V32.418H89.5181L88.3384 35.3066H87.8618L86.6821 32.416H86.645V35.3125H86.0708V31.3125Z" fill="white"/>
<path d="M91.0068 35.3125V31.3125H92.4717C92.7555 31.3125 92.9906 31.3594 93.1768 31.4531C93.363 31.5456 93.5023 31.6712 93.5947 31.8301C93.6872 31.9876 93.7334 32.1654 93.7334 32.3633C93.7334 32.5299 93.7028 32.6706 93.6416 32.7852C93.5804 32.8984 93.4984 32.9896 93.3955 33.0586C93.294 33.1263 93.182 33.1758 93.0596 33.207V33.2461C93.1924 33.2526 93.322 33.2956 93.4483 33.375C93.5759 33.4531 93.6813 33.5645 93.7647 33.709C93.848 33.8535 93.8897 34.0293 93.8897 34.2363C93.8897 34.4408 93.8415 34.6243 93.7451 34.7871C93.6501 34.9486 93.5029 35.0768 93.3037 35.1719C93.1045 35.2656 92.8499 35.3125 92.5401 35.3125H91.0068ZM91.6104 34.7949H92.4815C92.7705 34.7949 92.9776 34.7389 93.1026 34.627C93.2276 34.515 93.29 34.375 93.29 34.207C93.29 34.0807 93.2582 33.9648 93.1943 33.8594C93.1305 33.7539 93.0394 33.6699 92.9209 33.6074C92.8037 33.5449 92.6644 33.5137 92.5029 33.5137H91.6104V34.7949ZM91.6104 33.043H92.419C92.5544 33.043 92.6761 33.0169 92.7842 32.9648C92.8936 32.9128 92.9802 32.8398 93.044 32.7461C93.1091 32.651 93.1416 32.5391 93.1416 32.4102C93.1416 32.2448 93.0837 32.1061 92.9678 31.9941C92.8519 31.8822 92.6742 31.8262 92.4346 31.8262H91.6104V33.043Z" fill="white"/>
<path d="M95.209 31.3125V35.3125H94.6055V31.3125H95.209Z" fill="white"/>
<path d="M96.0879 35.3125V31.3125H98.5957V31.832H96.6914V33.0508H98.4649V33.5684H96.6914V34.793H98.6192V35.3125H96.0879Z" fill="white"/>
<path d="M102.63 31.3125V35.3125H102.076L100.042 32.3789H100.005V35.3125H99.4019V31.3125H99.9605L101.996 34.25H102.033V31.3125H102.63Z" fill="white"/>
<path d="M103.313 31.832V31.3125H106.409V31.832H105.161V35.3125H104.56V31.832H103.313Z" fill="white"/>
<path d="M106.959 35.3125H106.318L107.757 31.3125H108.455L109.894 35.3125H109.253L108.123 32.0391H108.091L106.959 35.3125ZM107.066 33.7461H109.144V34.2539H107.066V33.7461Z" fill="white"/>
<path d="M110.472 35.3125V31.3125H111.075V34.793H112.888V35.3125H110.472Z" fill="white"/>
<path d="M115.032 35.3125V31.3125H117.54V31.832H115.635V33.0508H117.409V33.5684H115.635V34.793H117.563V35.3125H115.032Z" fill="white"/>
<path d="M121.096 35.3125H119.801V31.3125H121.137C121.529 31.3125 121.866 31.3926 122.147 31.5527C122.428 31.7116 122.644 31.9401 122.793 32.2383C122.945 32.5352 123.02 32.8913 123.02 33.3066C123.02 33.7233 122.944 34.0814 122.792 34.3809C122.64 34.6803 122.422 34.9108 122.135 35.0723C121.849 35.2324 121.502 35.3125 121.096 35.3125ZM120.405 34.7852H121.063C121.368 34.7852 121.621 34.7279 121.823 34.6133C122.025 34.4974 122.176 34.3301 122.276 34.1113C122.376 33.8913 122.426 33.623 122.426 33.3066C122.426 32.9928 122.376 32.7266 122.276 32.5078C122.177 32.2891 122.029 32.123 121.833 32.0098C121.636 31.8965 121.392 31.8398 121.1 31.8398H120.405V34.7852Z" fill="white"/>
<path d="M123.771 35.3125V31.3125H126.278V31.832H124.374V33.0508H126.147V33.5684H124.374V34.793H126.302V35.3125H123.771Z" fill="white"/>
<path d="M130.722 32.3633C130.701 32.1784 130.615 32.0352 130.464 31.9336C130.313 31.8307 130.123 31.7793 129.894 31.7793C129.73 31.7793 129.588 31.8053 129.468 31.8574C129.348 31.9082 129.255 31.9785 129.188 32.0684C129.123 32.1569 129.091 32.2578 129.091 32.3711C129.091 32.4661 129.113 32.5482 129.157 32.6172C129.203 32.6862 129.262 32.7441 129.335 32.791C129.409 32.8366 129.489 32.875 129.573 32.9063C129.658 32.9362 129.739 32.9609 129.817 32.9805L130.208 33.082C130.336 33.1133 130.466 33.1556 130.601 33.209C130.735 33.2624 130.859 33.3327 130.974 33.4199C131.088 33.5072 131.181 33.6152 131.251 33.7441C131.323 33.873 131.358 34.0273 131.358 34.207C131.358 34.4336 131.3 34.6348 131.183 34.8105C131.067 34.9863 130.898 35.125 130.677 35.2266C130.457 35.3281 130.19 35.3789 129.878 35.3789C129.578 35.3789 129.319 35.3314 129.101 35.2363C128.882 35.1413 128.711 35.0065 128.587 34.832C128.463 34.6563 128.395 34.4479 128.382 34.207H128.987C128.999 34.3516 129.046 34.472 129.128 34.5684C129.211 34.6634 129.317 34.7344 129.446 34.7813C129.577 34.8268 129.719 34.8496 129.874 34.8496C130.045 34.8496 130.196 34.8229 130.329 34.7695C130.463 34.7148 130.569 34.6393 130.646 34.543C130.722 34.4453 130.761 34.3314 130.761 34.2012C130.761 34.0827 130.727 33.9857 130.659 33.9102C130.593 33.8346 130.502 33.7721 130.388 33.7227C130.274 33.6732 130.146 33.6296 130.003 33.5918L129.53 33.4629C129.21 33.3757 128.956 33.2474 128.769 33.0781C128.582 32.9089 128.489 32.6849 128.489 32.4063C128.489 32.1758 128.552 31.9746 128.677 31.8027C128.802 31.6309 128.971 31.4974 129.185 31.4023C129.398 31.306 129.639 31.2578 129.907 31.2578C130.178 31.2578 130.417 31.3053 130.624 31.4004C130.832 31.4954 130.996 31.6263 131.116 31.793C131.236 31.9583 131.299 32.1484 131.304 32.3633H130.722Z" fill="white"/>
<path d="M132.08 35.3125V31.3125H134.587V31.832H132.683V33.0508H134.457V33.5684H132.683V34.793H134.611V35.3125H132.08Z" fill="white"/>
<path d="M138.101 32.5762C138.063 32.4577 138.012 32.3516 137.948 32.2578C137.886 32.1628 137.811 32.082 137.724 32.0156C137.636 31.9479 137.537 31.8965 137.425 31.8613C137.314 31.8262 137.192 31.8086 137.06 31.8086C136.834 31.8086 136.631 31.8665 136.45 31.9824C136.269 32.0983 136.126 32.2682 136.021 32.4922C135.916 32.7148 135.864 32.9876 135.864 33.3105C135.864 33.6348 135.917 33.9089 136.022 34.1328C136.128 34.3568 136.272 34.5267 136.456 34.6426C136.64 34.7585 136.849 34.8164 137.083 34.8164C137.3 34.8164 137.49 34.7721 137.651 34.6836C137.814 34.5951 137.94 34.4701 138.028 34.3086C138.118 34.1458 138.163 33.9544 138.163 33.7344L138.319 33.7637H137.175V33.2656H138.747V33.7207C138.747 34.0566 138.675 34.3483 138.532 34.5957C138.39 34.8418 138.194 35.0319 137.942 35.166C137.692 35.3001 137.406 35.3672 137.083 35.3672C136.721 35.3672 136.403 35.2839 136.13 35.1172C135.858 34.9505 135.646 34.7142 135.493 34.4082C135.341 34.1009 135.265 33.7363 135.265 33.3145C135.265 32.9954 135.309 32.709 135.397 32.4551C135.486 32.2012 135.61 31.9857 135.771 31.8086C135.932 31.6302 136.121 31.4941 136.339 31.4004C136.558 31.3053 136.797 31.2578 137.056 31.2578C137.272 31.2578 137.473 31.2897 137.659 31.3535C137.847 31.4173 138.013 31.5078 138.159 31.625C138.306 31.7422 138.428 31.8815 138.524 32.043C138.621 32.2031 138.686 32.3809 138.72 32.5762H138.101Z" fill="white"/>
<path d="M142.085 31.3125H142.691V33.9434C142.691 34.2233 142.625 34.4714 142.494 34.6875C142.362 34.9023 142.177 35.0716 141.939 35.1953C141.701 35.3177 141.421 35.3789 141.101 35.3789C140.782 35.3789 140.503 35.3177 140.265 35.1953C140.027 35.0716 139.842 34.9023 139.71 34.6875C139.579 34.4714 139.513 34.2233 139.513 33.9434V31.3125H140.117V33.8945C140.117 34.0755 140.156 34.2363 140.236 34.377C140.317 34.5176 140.431 34.6283 140.578 34.709C140.725 34.7884 140.899 34.8281 141.101 34.8281C141.304 34.8281 141.479 34.7884 141.626 34.709C141.775 34.6283 141.888 34.5176 141.966 34.377C142.046 34.2363 142.085 34.0755 142.085 33.8945V31.3125Z" fill="white"/>
<path d="M143.568 35.3125V31.3125H144.994C145.304 31.3125 145.561 31.3659 145.766 31.4727C145.971 31.5794 146.125 31.7272 146.227 31.916C146.328 32.1035 146.379 32.3203 146.379 32.5664C146.379 32.8112 146.327 33.0267 146.225 33.2129C146.123 33.3978 145.969 33.5417 145.764 33.6445C145.559 33.7474 145.302 33.7988 144.992 33.7988H143.912V33.2793H144.938C145.133 33.2793 145.292 33.2513 145.414 33.1953C145.538 33.1393 145.628 33.0579 145.686 32.9512C145.743 32.8444 145.772 32.7161 145.772 32.5664C145.772 32.4154 145.742 32.2845 145.684 32.1738C145.626 32.0632 145.536 31.9785 145.412 31.9199C145.29 31.86 145.129 31.8301 144.93 31.8301H144.172V35.3125H143.568ZM145.543 33.5078L146.531 35.3125H145.844L144.875 33.5078H145.543Z" fill="white"/>
<path d="M147.451 35.3125H146.811L148.25 31.3125H148.947L150.387 35.3125H149.746L148.615 32.0391H148.584L147.451 35.3125ZM147.559 33.7461H149.637V34.2539H147.559V33.7461Z" fill="white"/>
<path d="M154.193 31.3125V35.3125H153.638L151.605 32.3789H151.568V35.3125H150.964V31.3125H151.523L153.558 34.25H153.595V31.3125H154.193Z" fill="white"/>
<path d="M158.396 32.6133H157.786C157.763 32.4831 157.719 32.3685 157.655 32.2695C157.591 32.1706 157.513 32.0866 157.421 32.0176C157.328 31.9486 157.225 31.8965 157.11 31.8613C156.997 31.8262 156.877 31.8086 156.749 31.8086C156.519 31.8086 156.312 31.8665 156.13 31.9824C155.949 32.0983 155.806 32.2682 155.7 32.4922C155.596 32.7161 155.544 32.9896 155.544 33.3125C155.544 33.638 155.596 33.9128 155.7 34.1367C155.806 34.3607 155.95 34.5299 156.132 34.6445C156.314 34.7591 156.519 34.8164 156.747 34.8164C156.873 34.8164 156.993 34.7995 157.106 34.7656C157.221 34.7305 157.325 34.679 157.417 34.6113C157.509 34.5436 157.588 34.4609 157.651 34.3633C157.716 34.2643 157.761 34.151 157.786 34.0234L158.396 34.0254C158.363 34.222 158.3 34.403 158.206 34.5684C158.114 34.7324 157.994 34.8743 157.849 34.9941C157.704 35.1126 157.539 35.2044 157.353 35.2695C157.166 35.3346 156.963 35.3672 156.743 35.3672C156.397 35.3672 156.088 35.2852 155.817 35.1211C155.547 34.9557 155.333 34.7194 155.177 34.4121C155.022 34.1048 154.944 33.7383 154.944 33.3125C154.944 32.8854 155.022 32.5189 155.179 32.2129C155.335 31.9056 155.549 31.6699 155.819 31.5059C156.09 31.3405 156.398 31.2578 156.743 31.2578C156.955 31.2578 157.153 31.2884 157.337 31.3496C157.522 31.4095 157.688 31.498 157.835 31.6152C157.982 31.7311 158.104 31.873 158.2 32.041C158.297 32.2077 158.362 32.3984 158.396 32.6133ZM156.538 35.3184H156.921L156.89 35.4785C157.003 35.4967 157.102 35.5423 157.187 35.6152C157.271 35.6882 157.314 35.7982 157.314 35.9453C157.315 36.1211 157.239 36.2637 157.085 36.373C156.933 36.4824 156.712 36.5371 156.423 36.5371L156.411 36.2109C156.547 36.2109 156.656 36.1914 156.739 36.1523C156.824 36.1133 156.867 36.0501 156.868 35.9629C156.869 35.8757 156.837 35.8145 156.771 35.7793C156.705 35.7441 156.601 35.7194 156.458 35.7051L156.538 35.3184Z" fill="white"/>
<path d="M159.429 35.3125H158.788L160.228 31.3125H160.925L162.364 35.3125H161.724L160.593 32.0391H160.562L159.429 35.3125ZM159.536 33.7461H161.614V34.2539H159.536V33.7461Z" fill="white"/>
<path d="M165.692 35.3125H164.397V31.3125H165.733C166.125 31.3125 166.462 31.3926 166.743 31.5527C167.024 31.7116 167.24 31.9401 167.39 32.2383C167.541 32.5352 167.616 32.8913 167.616 33.3066C167.616 33.7233 167.54 34.0814 167.388 34.3809C167.237 34.6803 167.018 34.9108 166.731 35.0723C166.445 35.2324 166.099 35.3125 165.692 35.3125ZM165.001 34.7852H165.659C165.964 34.7852 166.217 34.7279 166.419 34.6133C166.621 34.4974 166.772 34.3301 166.872 34.1113C166.972 33.8913 167.022 33.623 167.022 33.3066C167.022 32.9928 166.972 32.7266 166.872 32.5078C166.773 32.2891 166.625 32.123 166.429 32.0098C166.232 31.8965 165.988 31.8398 165.696 31.8398H165.001V34.7852Z" fill="white"/>
<path d="M171.841 33.3125C171.841 33.7396 171.763 34.1068 171.607 34.4141C171.451 34.7201 171.237 34.9557 170.964 35.1211C170.694 35.2852 170.386 35.3672 170.041 35.3672C169.694 35.3672 169.385 35.2852 169.113 35.1211C168.842 34.9557 168.628 34.7194 168.472 34.4121C168.316 34.1048 168.238 33.7383 168.238 33.3125C168.238 32.8854 168.316 32.5189 168.472 32.2129C168.628 31.9056 168.842 31.6699 169.113 31.5059C169.385 31.3405 169.694 31.2578 170.041 31.2578C170.386 31.2578 170.694 31.3405 170.964 31.5059C171.237 31.6699 171.451 31.9056 171.607 32.2129C171.763 32.5189 171.841 32.8854 171.841 33.3125ZM171.244 33.3125C171.244 32.987 171.191 32.7129 171.085 32.4902C170.981 32.2663 170.838 32.097 170.656 31.9824C170.475 31.8665 170.27 31.8086 170.041 31.8086C169.81 31.8086 169.604 31.8665 169.423 31.9824C169.242 32.097 169.099 32.2663 168.994 32.4902C168.89 32.7129 168.837 32.987 168.837 33.3125C168.837 33.638 168.89 33.9128 168.994 34.1367C169.099 34.3594 169.242 34.5286 169.423 34.6445C169.604 34.7591 169.81 34.8164 170.041 34.8164C170.27 34.8164 170.475 34.7591 170.656 34.6445C170.838 34.5286 170.981 34.3594 171.085 34.1367C171.191 33.9128 171.244 33.638 171.244 33.3125Z" fill="white"/>
<path d="M173.852 31.832V31.3125H176.948V31.832H175.7V35.3125H175.098V31.832H173.852Z" fill="white"/>
<path d="M177.632 35.3125V31.3125H179.058C179.368 31.3125 179.625 31.3659 179.829 31.4727C180.035 31.5794 180.189 31.7272 180.29 31.916C180.392 32.1035 180.442 32.3203 180.442 32.5664C180.442 32.8112 180.391 33.0267 180.288 33.2129C180.187 33.3978 180.033 33.5417 179.827 33.6445C179.623 33.7474 179.366 33.7988 179.056 33.7988H177.976V33.2793H179.001C179.196 33.2793 179.355 33.2513 179.478 33.1953C179.601 33.1393 179.692 33.0579 179.749 32.9512C179.806 32.8444 179.835 32.7161 179.835 32.5664C179.835 32.4154 179.806 32.2845 179.747 32.1738C179.69 32.0632 179.599 31.9785 179.476 31.9199C179.353 31.86 179.192 31.8301 178.993 31.8301H178.235V35.3125H177.632ZM179.606 33.5078L180.595 35.3125H179.907L178.939 33.5078H179.606Z" fill="white"/>
<path d="M181.515 35.3125H180.874L182.314 31.3125H183.011L184.45 35.3125H183.81L182.679 32.0391H182.647L181.515 35.3125ZM181.622 33.7461H183.7V34.2539H181.622V33.7461Z" fill="white"/>
<path d="M185.028 35.3125V31.3125H186.493C186.777 31.3125 187.012 31.3594 187.198 31.4531C187.384 31.5456 187.523 31.6712 187.616 31.8301C187.708 31.9876 187.754 32.1654 187.754 32.3633C187.754 32.5299 187.724 32.6706 187.663 32.7852C187.601 32.8984 187.519 32.9896 187.417 33.0586C187.315 33.1263 187.203 33.1758 187.081 33.207V33.2461C187.213 33.2526 187.343 33.2956 187.469 33.375C187.597 33.4531 187.702 33.5645 187.786 33.709C187.869 33.8535 187.911 34.0293 187.911 34.2363C187.911 34.4408 187.863 34.6243 187.766 34.7871C187.671 34.9486 187.524 35.0768 187.325 35.1719C187.126 35.2656 186.871 35.3125 186.561 35.3125H185.028ZM185.631 34.7949H186.502C186.792 34.7949 186.999 34.7389 187.124 34.627C187.249 34.515 187.311 34.375 187.311 34.207C187.311 34.0807 187.279 33.9648 187.215 33.8594C187.152 33.7539 187.06 33.6699 186.942 33.6074C186.825 33.5449 186.685 33.5137 186.524 33.5137H185.631V34.7949ZM185.631 33.043H186.44C186.575 33.043 186.697 33.0169 186.805 32.9648C186.915 32.9128 187.001 32.8398 187.065 32.7461C187.13 32.651 187.163 32.5391 187.163 32.4102C187.163 32.2448 187.105 32.1061 186.989 31.9941C186.873 31.8822 186.695 31.8262 186.456 31.8262H185.631V33.043Z" fill="white"/>
<path d="M188.964 35.3125H188.324L189.763 31.3125H190.46L191.9 35.3125H191.259L190.128 32.0391H190.097L188.964 35.3125ZM189.072 33.7461H191.15V34.2539H189.072V33.7461Z" fill="white"/>
<path d="M192.478 35.3125V31.3125H193.081V34.793H194.894V35.3125H192.478Z" fill="white"/>
<path d="M195.582 35.3125V31.3125H196.186V33.0508H198.18V31.3125H198.785V35.3125H198.18V33.5684H196.186V35.3125H195.582Z" fill="white"/>
<path d="M203.139 33.3125C203.139 33.7396 203.061 34.1068 202.904 34.4141C202.748 34.7201 202.534 34.9557 202.262 35.1211C201.991 35.2852 201.683 35.3672 201.338 35.3672C200.992 35.3672 200.682 35.2852 200.41 35.1211C200.139 34.9557 199.926 34.7194 199.77 34.4121C199.613 34.1048 199.535 33.7383 199.535 33.3125C199.535 32.8854 199.613 32.5189 199.77 32.2129C199.926 31.9056 200.139 31.6699 200.41 31.5059C200.682 31.3405 200.992 31.2578 201.338 31.2578C201.683 31.2578 201.991 31.3405 202.262 31.5059C202.534 31.6699 202.748 31.9056 202.904 32.2129C203.061 32.5189 203.139 32.8854 203.139 33.3125ZM202.541 33.3125C202.541 32.987 202.488 32.7129 202.383 32.4902C202.279 32.2663 202.135 32.097 201.953 31.9824C201.772 31.8665 201.567 31.8086 201.338 31.8086C201.107 31.8086 200.902 31.8665 200.721 31.9824C200.54 32.097 200.397 32.2663 200.291 32.4902C200.187 32.7129 200.135 32.987 200.135 33.3125C200.135 33.638 200.187 33.9128 200.291 34.1367C200.397 34.3594 200.54 34.5286 200.721 34.6445C200.902 34.7591 201.107 34.8164 201.338 34.8164C201.567 34.8164 201.772 34.7591 201.953 34.6445C202.135 34.5286 202.279 34.3594 202.383 34.1367C202.488 33.9128 202.541 33.638 202.541 33.3125Z" fill="white"/>
</svg>
