<svg width="59" height="72" viewBox="0 0 59 72" fill="none" xmlns="http://www.w3.org/2000/svg">
<path fill-rule="evenodd" clip-rule="evenodd" d="M43.2118 0.116496C42.1677 0.322021 41.105 0.904272 40.294 1.71526C38.0182 3.99109 38.0182 7.61683 40.294 9.89265C42.107 11.7057 44.6969 12.1102 47.056 10.9488C49.2295 9.87887 50.5513 7.2446 50.1089 4.86482C49.4923 1.54969 46.4772 -0.526104 43.2118 0.116496ZM14.0182 7.70995C12.4179 7.9785 10.8278 9.22136 10.0879 10.7823C8.79946 13.4995 10.015 16.7954 12.7845 18.094C13.4814 18.4208 13.7502 18.4646 15.0521 18.4646C16.3801 18.4646 16.609 18.4254 17.32 18.0762C18.5544 17.4701 19.3336 16.6952 19.9375 15.4735C20.4369 14.4629 20.4675 14.3247 20.4585 13.1263C20.4463 11.4721 20.0907 10.5267 19.0652 9.42139C18.2 8.48901 17.1146 7.8903 15.9411 7.69814C15.0281 7.5486 14.9783 7.54888 14.0182 7.70995ZM47.6886 14.0245C44.2094 14.1302 43.6055 14.2302 42.7961 14.8348C42.1094 15.3476 41.7959 15.7156 41.3809 16.4952L41.0065 17.1986L40.9665 21.2781L40.9262 25.3577L42.5662 22.8959C43.4682 21.5419 44.2647 20.3711 44.3362 20.294C44.4075 20.217 44.2378 20.7868 43.9592 21.56C43.6803 22.3335 43.066 24.0424 42.5941 25.3577C42.122 26.673 41.6667 27.826 41.5822 27.9199C41.4976 28.0139 38.9022 29.2697 35.8143 30.7106C32.7265 32.1517 30.032 33.4549 29.8266 33.6067C29.3444 33.9631 28.957 34.6257 28.8325 35.3067C28.5065 37.0894 30.0691 38.8194 31.8259 38.6204C32.5343 38.5404 45.303 32.6362 45.8287 32.1458C46.3339 31.6744 46.5215 31.2318 48.1833 26.5893C49.021 24.2493 49.7291 22.3574 49.7568 22.385C49.7843 22.4127 49.5844 24.6415 49.3122 27.338C48.8666 31.7543 48.7816 32.314 48.4554 32.9808C48.2562 33.3879 47.9007 33.8582 47.6652 34.0257C47.4299 34.1933 45.8355 34.986 44.1219 35.7871L41.0065 37.2439L40.9292 38.9675C40.8584 40.5444 40.7474 41.0965 39.6258 45.4507L38.3999 50.2103L38.2445 59.5885C38.1239 66.8819 38.1271 69.1074 38.2593 69.5997C38.381 70.0528 38.6356 70.4335 39.1553 70.9391C40.5668 72.3126 42.2984 72.355 43.7483 71.0514C44.9243 69.994 44.87 70.4494 45.0341 60.2599L45.1794 51.2417L46.5073 45.9665C47.2377 43.0651 47.8699 40.5803 47.9121 40.445C47.9688 40.2632 48.1393 40.1988 48.5634 40.1988H49.1378L49.0485 42.3441C48.9994 43.5239 48.9196 46.2302 48.8712 48.3579L48.7833 52.2265L50.1394 60.8779C51.629 70.3809 51.637 70.413 52.7313 71.2476C54.652 72.7124 57.3338 71.8311 58.0474 69.5006C58.177 69.0776 58.2214 68.59 58.1668 68.193C58.1189 67.8448 57.5165 63.9458 56.8283 59.5284L55.5769 51.4968L55.7894 44.4314C55.9315 39.7131 55.9881 34.0165 55.9601 27.2824L55.918 17.1986L55.5537 16.4249C55.0498 15.355 54.5526 14.8118 53.6959 14.3949C52.7696 13.9442 51.9652 13.8946 47.6886 14.0245ZM9.32361 21.707C8.53766 22.0987 8.07498 22.624 7.6569 23.5993C7.40003 24.1985 7.38329 24.7076 7.34263 33.127C7.29748 42.487 7.34249 43.3568 7.90238 43.9528L8.2082 44.2784L5.33493 44.2817C1.46189 44.2862 0.961087 44.4266 0.316517 45.6879L0 46.3075V58.7786C0 71.1825 0.00154767 71.252 0.291618 71.6205C0.579297 71.9864 0.606588 71.9912 2.37711 71.9912C4.82006 71.9912 4.78293 72.0309 4.78293 69.4149V67.4896H10.1989H15.6148V69.5214C15.6148 72.0821 15.5295 71.9912 17.936 71.9912C19.2431 71.9912 19.7034 71.941 19.9444 71.7722L20.2571 71.5533V66.4658V61.3784L20.7846 61.923C21.4222 62.5811 22.0126 62.8474 22.8341 62.8474C24.0806 62.8474 25.1085 62.2563 25.5795 61.2686C25.8044 60.7969 26.0963 58.857 26.9303 52.2917C27.5155 47.6854 27.9928 43.6023 27.9911 43.2182C27.9871 42.3245 27.6047 41.4875 26.9561 40.953L26.4447 40.5312L26.8107 40.1892C27.3461 39.689 27.5722 39.1706 27.5722 38.4429C27.5722 37.6229 27.3004 36.973 26.774 36.5347C26.5337 36.3346 24.62 35.5511 22.2181 34.6695L18.0766 33.1492L16.7506 29.8162C16.0214 27.9829 15.335 26.2615 15.2253 25.9907C14.9772 25.3775 14.8959 25.2895 17.3052 28.2415C18.4102 29.5955 19.372 30.7666 19.4424 30.844C19.5195 30.9288 19.5532 29.5589 19.527 27.3975C19.4861 24.033 19.4645 23.7754 19.1792 23.2476C19.0118 22.9381 18.6637 22.4823 18.4055 22.2349C17.5343 21.3997 17.2488 21.3485 13.4665 21.3485C10.0793 21.3485 10.0356 21.3523 9.32361 21.707ZM14.3597 36.7661C14.8314 37.271 14.9893 37.341 18.6271 38.6617C20.3999 39.3052 21.776 39.8567 21.6851 39.8869C21.406 39.9799 13.8868 39.3504 13.3871 39.1923C12.7072 38.9769 12.0084 38.3051 11.757 37.6249C11.5899 37.1729 10.3871 28.1714 10.4157 27.5858C10.4188 27.5208 11.2309 29.4779 12.2202 31.9346C13.2604 34.5173 14.1628 36.5552 14.3597 36.7661ZM29.7253 41.1308C29.8419 41.3563 30.0023 41.8917 30.0815 42.3203C30.2396 43.1758 30.2187 43.3959 29.2843 50.7136L28.7409 54.9683L29.2822 57.3253C29.8896 59.9702 30.0089 60.321 30.4985 60.9028C31.2767 61.8276 32.8555 62.1724 33.945 61.6554C34.9578 61.1748 35.7375 59.9724 35.7259 58.9085C35.7238 58.7151 34.819 54.632 33.7154 49.835L31.7087 41.1132L31.0824 41.026C30.7379 40.978 30.2438 40.8897 29.9846 40.8297L29.5133 40.7207L29.7253 41.1308ZM21.6347 46.0312C21.6983 46.0947 20.412 56.1276 20.3297 56.2099C20.2935 56.2461 20.2465 53.9185 20.2253 51.0372L20.1868 45.7988L20.8876 45.8918C21.273 45.943 21.6093 46.0057 21.6347 46.0312Z" fill="#00ADA8"/>
</svg>
