<svg width="51" height="72" viewBox="0 0 51 72" fill="none" xmlns="http://www.w3.org/2000/svg">
<path fill-rule="evenodd" clip-rule="evenodd" d="M27.9318 0.214651C26.9443 0.580383 26.0054 1.33681 25.3717 2.27667C24.5911 3.43495 20.9825 9.7339 20.9825 9.93833C20.9825 10.0338 21.2685 10.4862 21.6179 10.9438C23.2512 13.083 23.8934 15.1229 23.7771 17.8023C23.6442 20.8625 22.6574 22.9774 20.3626 25.1194C19.5022 25.9226 19.2618 26.2597 19.352 26.5377C19.4177 26.7395 20.0933 27.2287 20.8664 27.6342C23.8619 29.2049 26.3556 31.8617 27.9445 35.1756L28.8288 37.0193H37.4475C47.0254 37.0193 47.1167 37.0091 48.5584 35.775C50.2733 34.3074 50.8266 31.6756 49.8584 29.5924C48.8442 27.4105 34.1941 2.27308 33.5192 1.55693C33.1245 1.13825 32.4613 0.631253 32.0453 0.430233C31.0838 -0.0342133 28.9112 -0.148245 27.9318 0.214651ZM11.0694 9.80746C9.77606 10.2522 8.69267 10.9606 7.72709 11.9926C6.17453 13.652 5.58924 15.3318 5.69798 17.8165C5.76341 19.311 5.86231 19.7441 6.37876 20.7929C9.35019 26.8288 17.8543 26.8496 20.8186 20.8282C21.3539 19.7407 21.4509 19.3227 21.5168 17.8165C21.6278 15.2764 21.0368 13.6316 19.3933 11.9058C17.2286 9.63292 13.9672 8.81087 11.0694 9.80746ZM30.3957 14.2428C30.8096 14.5327 30.8161 14.604 30.8161 18.9568C30.8161 23.8137 30.7803 23.971 29.6786 23.971C28.6338 23.971 28.5468 23.5894 28.5468 19.0035V14.8767L29.011 14.4126C29.5519 13.8716 29.8191 13.8388 30.3957 14.2428ZM30.5409 25.759C30.7962 26.0143 31.0052 26.3431 31.0052 26.4899C31.0052 26.9742 30.2389 27.7531 29.7622 27.7531C29.1674 27.7531 28.5468 27.1255 28.5468 26.5239C28.5468 25.9523 29.1584 25.2947 29.6899 25.2947C29.9027 25.2947 30.2856 25.5037 30.5409 25.759ZM11.9788 28.1361C7.36817 28.7571 3.46444 31.5084 1.46955 35.5428C0.257001 37.9949 0.137296 38.6858 0.0425531 43.7729C-0.0419776 48.3264 -0.0398967 48.3572 0.424549 49.3718C1.16774 50.9951 2.72087 51.9206 3.19988 51.0257C3.32318 50.7954 3.3956 48.4185 3.3956 44.6095C3.3956 37.9738 3.39712 37.9649 4.5206 37.9649C5.6125 37.9649 5.5622 37.2497 5.66488 54.2247L5.75944 69.8591L6.30482 70.5739C6.89332 71.3452 8.08753 71.9933 8.93303 71.9999C10.1834 72.0098 11.5342 71.0884 12.1153 69.8294C12.4368 69.1329 12.4648 68.45 12.4686 61.207C12.4725 53.8298 12.4943 53.3217 12.8186 53.0282C13.2753 52.6148 14.0393 52.6305 14.429 53.0611C14.7099 53.3712 14.742 54.2222 14.742 61.322C14.742 69.0014 14.7539 69.2618 15.1431 70.0657C16.3277 72.5128 19.9307 72.5453 21.1679 70.1204C21.5417 69.3878 21.5498 69.0451 21.5527 54.1883C21.5548 42.3709 21.6081 38.9002 21.7934 38.5322C22.0863 37.9498 23.0521 37.7922 23.5118 38.2518C23.7826 38.5227 23.8191 39.2761 23.8191 44.6095C23.8191 48.4185 23.8916 50.7954 24.0149 51.0257C24.4946 51.9223 26.047 50.9949 26.7926 49.3665C27.2592 48.3472 27.2614 48.3145 27.1782 43.8622C27.1033 39.8677 27.0481 39.24 26.6671 38.0594C25.0793 33.1406 21.2599 29.4294 16.7507 28.4239C15.1272 28.0617 13.3335 27.9538 11.9788 28.1361Z" fill="#00ADA8"/>
</svg>
