<svg aria-hidden="true" style="position: absolute; width: 0; height: 0; overflow: hidden;" version="1.1" xmlns="http://www.w3.org/2000/svg" xmlns:xlink="http://www.w3.org/1999/xlink">
<defs>
<symbol id="icon-ppra" viewBox="0 0 23 32">
<path fill="#00ada8" style="fill: var(--color1, #00ada8)" d="M12.414 0.095c-0.439 0.163-0.856 0.499-1.138 0.916-0.347 0.515-1.951 3.314-1.951 3.405 0 0.042 0.127 0.244 0.282 0.447 0.726 0.951 1.011 1.857 0.96 3.048-0.059 1.36-0.498 2.3-1.518 3.252-0.382 0.357-0.489 0.507-0.449 0.63 0.029 0.090 0.329 0.307 0.673 0.487 1.331 0.698 2.44 1.879 3.146 3.352l0.393 0.819h3.831c4.257 0 4.297-0.005 4.938-0.553 0.762-0.652 1.008-1.822 0.578-2.748-0.451-0.97-6.962-12.142-7.262-12.46-0.175-0.186-0.47-0.411-0.655-0.501-0.427-0.206-1.393-0.257-1.828-0.096zM4.92 4.359c-0.575 0.198-1.056 0.513-1.485 0.971-0.69 0.737-0.95 1.484-0.902 2.588 0.029 0.664 0.073 0.857 0.303 1.323 1.321 2.683 5.1 2.692 6.418 0.016 0.238-0.483 0.281-0.669 0.31-1.339 0.049-1.129-0.213-1.86-0.944-2.627-0.962-1.010-2.412-1.376-3.7-0.933zM13.509 6.33c0.184 0.129 0.187 0.161 0.187 2.095 0 2.159-0.016 2.229-0.506 2.229-0.464 0-0.503-0.17-0.503-2.208v-1.834l0.206-0.206c0.24-0.24 0.359-0.255 0.615-0.075zM13.574 11.448c0.113 0.113 0.206 0.26 0.206 0.325 0 0.215-0.341 0.561-0.552 0.561-0.264 0-0.54-0.279-0.54-0.546 0-0.254 0.272-0.546 0.508-0.546 0.095 0 0.265 0.093 0.378 0.206zM5.324 12.505c-2.049 0.276-3.784 1.499-4.671 3.292-0.539 1.090-0.592 1.397-0.634 3.658-0.038 2.024-0.037 2.037 0.17 2.488 0.33 0.721 1.021 1.133 1.233 0.735 0.055-0.102 0.087-1.159 0.087-2.852 0-2.949 0.001-2.953 0.5-2.953 0.485 0 0.463-0.318 0.509 7.227l0.042 6.949 0.242 0.318c0.262 0.343 0.792 0.631 1.168 0.634 0.556 0.004 1.156-0.405 1.414-0.965 0.143-0.31 0.155-0.613 0.157-3.832 0.002-3.279 0.011-3.505 0.156-3.635 0.203-0.184 0.543-0.177 0.716 0.015 0.125 0.138 0.139 0.516 0.139 3.672 0 3.413 0.005 3.529 0.178 3.886 0.526 1.088 2.128 1.102 2.678 0.024 0.166-0.326 0.17-0.478 0.171-7.081 0.001-5.252 0.025-6.795 0.107-6.958 0.13-0.259 0.559-0.329 0.764-0.125 0.12 0.12 0.137 0.455 0.137 2.826 0 1.693 0.032 2.749 0.087 2.852 0.213 0.398 0.903-0.014 1.235-0.737 0.207-0.453 0.208-0.468 0.171-2.446-0.033-1.775-0.058-2.054-0.227-2.579-0.706-2.186-2.403-3.836-4.407-4.282-0.722-0.161-1.519-0.209-2.121-0.128z"></path>
</symbol>
<symbol id="icon-pcmso" viewBox="0 0 26 32">
<path fill="#00ada8" style="fill: var(--color1, #00ada8)" d="M19.205 0.052c-0.464 0.091-0.936 0.35-1.297 0.711-1.011 1.011-1.011 2.623 0 3.634 0.806 0.806 1.957 0.986 3.005 0.469 0.966-0.476 1.553-1.646 1.357-2.704-0.274-1.473-1.614-2.396-3.065-2.11zM6.23 3.427c-0.711 0.119-1.418 0.672-1.747 1.365-0.573 1.208-0.032 2.672 1.199 3.25 0.31 0.145 0.429 0.165 1.008 0.165 0.59 0 0.692-0.017 1.008-0.173 0.549-0.269 0.895-0.614 1.163-1.157 0.222-0.449 0.236-0.511 0.232-1.043-0.005-0.735-0.163-1.155-0.619-1.647-0.385-0.414-0.867-0.68-1.389-0.766-0.406-0.066-0.428-0.066-0.855 0.005zM21.195 6.233c-1.546 0.047-1.815 0.091-2.174 0.36-0.305 0.228-0.445 0.391-0.629 0.738l-0.166 0.313-0.018 1.813-0.018 1.813 0.729-1.094c0.401-0.602 0.755-1.122 0.787-1.156s-0.044 0.219-0.168 0.563c-0.124 0.344-0.397 1.103-0.607 1.688s-0.412 1.097-0.45 1.139c-0.038 0.042-1.191 0.6-2.563 1.24s-2.57 1.22-2.661 1.287c-0.214 0.158-0.386 0.453-0.442 0.756-0.145 0.792 0.55 1.561 1.33 1.473 0.315-0.036 5.99-2.66 6.223-2.878 0.225-0.21 0.308-0.406 1.047-2.47 0.372-1.040 0.687-1.881 0.699-1.869s-0.077 1.003-0.198 2.201c-0.198 1.963-0.236 2.212-0.381 2.508-0.089 0.181-0.247 0.39-0.351 0.464s-0.813 0.427-1.575 0.783l-1.385 0.647-0.034 0.766c-0.031 0.701-0.081 0.946-0.579 2.881l-0.545 2.115-0.069 4.168c-0.054 3.241-0.052 4.231 0.007 4.449 0.054 0.201 0.167 0.371 0.398 0.595 0.627 0.61 1.397 0.629 2.041 0.050 0.523-0.47 0.499-0.268 0.571-4.796l0.065-4.008 0.59-2.345c0.325-1.29 0.606-2.394 0.624-2.454 0.025-0.081 0.101-0.109 0.289-0.109h0.255l-0.040 0.953c-0.022 0.524-0.057 1.727-0.079 2.673l-0.039 1.719 0.603 3.845c0.662 4.224 0.666 4.238 1.152 4.609 0.854 0.651 2.046 0.259 2.363-0.776 0.058-0.188 0.077-0.405 0.053-0.581-0.021-0.155-0.289-1.888-0.595-3.851l-0.556-3.57 0.094-3.14c0.063-2.097 0.088-4.629 0.076-7.622l-0.019-4.482-0.162-0.344c-0.224-0.476-0.445-0.717-0.826-0.902-0.412-0.2-0.769-0.222-2.67-0.165zM4.144 9.648c-0.349 0.174-0.555 0.408-0.741 0.841-0.114 0.266-0.122 0.493-0.14 4.235-0.020 4.16-0 4.547 0.249 4.811l0.136 0.145-1.277 0.001c-1.721 0.002-1.944 0.064-2.23 0.625l-0.141 0.275v5.543c0 5.513 0.001 5.544 0.13 5.707 0.128 0.163 0.14 0.165 0.927 0.165 1.086 0 1.069 0.018 1.069-1.145v-0.856h4.814v0.903c0 1.138-0.038 1.098 1.032 1.098 0.581 0 0.785-0.022 0.893-0.097l0.139-0.097v-4.522l0.234 0.242c0.283 0.293 0.546 0.411 0.911 0.411 0.554 0 1.011-0.263 1.22-0.702 0.1-0.21 0.23-1.072 0.6-3.99 0.26-2.047 0.472-3.862 0.471-4.033-0.002-0.397-0.172-0.769-0.46-1.007l-0.227-0.187 0.163-0.152c0.238-0.222 0.338-0.453 0.338-0.776 0-0.364-0.121-0.653-0.355-0.848-0.107-0.089-0.957-0.437-2.025-0.829l-1.841-0.676-0.589-1.481c-0.324-0.815-0.629-1.58-0.678-1.7-0.11-0.273-0.146-0.312 0.924 1 0.491 0.602 0.919 1.122 0.95 1.157 0.034 0.038 0.049-0.571 0.038-1.532-0.018-1.495-0.028-1.61-0.155-1.844-0.074-0.138-0.229-0.34-0.344-0.45-0.387-0.371-0.514-0.394-2.195-0.394-1.505 0-1.525 0.002-1.841 0.159zM6.382 16.34c0.21 0.224 0.28 0.256 1.897 0.843 0.788 0.286 1.399 0.531 1.359 0.545-0.124 0.041-3.466-0.238-3.688-0.309-0.302-0.096-0.613-0.394-0.724-0.697-0.074-0.201-0.609-4.202-0.596-4.462 0.001-0.029 0.362 0.841 0.802 1.933 0.462 1.148 0.863 2.054 0.951 2.147zM13.211 18.28c0.052 0.1 0.123 0.338 0.158 0.529 0.070 0.38 0.061 0.478-0.354 3.73l-0.242 1.891 0.241 1.048c0.27 1.175 0.323 1.331 0.541 1.59 0.346 0.411 1.048 0.564 1.532 0.334 0.45-0.214 0.797-0.748 0.791-1.221-0.001-0.086-0.403-1.901-0.894-4.033l-0.892-3.876-0.278-0.039c-0.153-0.021-0.373-0.061-0.488-0.087l-0.209-0.048 0.094 0.182zM9.615 20.458c0.028 0.028-0.543 4.487-0.58 4.524-0.016 0.016-0.037-1.018-0.046-2.299l-0.017-2.328 0.311 0.041c0.171 0.023 0.321 0.051 0.332 0.062z"></path>
</symbol>
<symbol id="icon-laudos" viewBox="0 0 31 32">
<path fill="#00ada8" style="fill: var(--color1, #00ada8)" d="M8.091 3.004c-0.023 2.939-0.027 3.013-0.18 3.395-0.208 0.519-0.693 1.027-1.214 1.271l-0.412 0.193-6.285 0.041 0.018 10.417 0.018 10.417 0.161 0.446c0.389 1.082 1.106 1.889 2.106 2.371 0.34 0.164 0.801 0.331 1.026 0.371 0.274 0.049 3.355 0.073 9.414 0.073 8.744 0 9.022-0.004 9.537-0.136 0.756-0.194 1.304-0.506 1.866-1.064 0.551-0.547 0.789-0.92 1.045-1.634 0.175-0.488 0.178-0.535 0.205-2.726l0.027-2.23-0.332 0.31c-0.512 0.477-0.818 0.661-2.684 1.613-1.595 0.814-1.763 0.884-2.096 0.879-0.7-0.010-1.202-0.416-1.356-1.097-0.061-0.27 0.176-4.062 0.283-4.524 0.161-0.695 0.577-1.393 3.35-5.627l2.831-4.322-0.044-8.112-0.18-0.497c-0.261-0.718-0.499-1.089-1.048-1.634-0.563-0.559-1.11-0.871-1.866-1.064-0.511-0.131-0.783-0.136-7.348-0.136h-6.817l-0.023 3.004zM6.444 0.236c-0.253 0.088-0.66 0.294-0.905 0.459-0.615 0.415-4.527 4.241-4.859 4.754-0.23 0.355-0.418 0.772-0.57 1.263l-0.048 0.154h2.913c2.030 0 2.984-0.024 3.146-0.080 0.319-0.109 0.548-0.295 0.731-0.595 0.153-0.251 0.154-0.267 0.155-3.188 0-1.615-0.023-2.934-0.051-2.932s-0.258 0.076-0.511 0.163zM21.876 3.671c0.166 0.166 0.169 0.186 0.169 1.376s-0.002 1.21-0.169 1.377l-0.169 0.169h-5.175c-5.076 0-5.178-0.003-5.322-0.137-0.204-0.19-0.236-0.439-0.21-1.607l0.022-1.014 0.385-0.331h10.299l0.169 0.169zM27.694 10.695c-0.594 0.246-0.894 0.533-1.463 1.403-0.3 0.459-0.539 0.841-0.529 0.848 0.222 0.169 4.061 2.642 4.101 2.642 0.112 0 1.039-1.551 1.146-1.918 0.318-1.089-0.253-2.377-1.272-2.867-0.507-0.244-1.522-0.299-1.983-0.109zM9.281 11.518c0.111 0.065 0.262 0.245 0.337 0.399 0.127 0.262 0.136 0.429 0.136 2.538s-0.009 2.275-0.136 2.538c-0.253 0.522-0.228 0.518-2.951 0.518-2.666 0-2.698-0.005-2.959-0.433-0.126-0.207-0.134-0.361-0.134-2.61-0-2.64 0.005-2.674 0.432-2.935 0.207-0.126 0.361-0.134 2.647-0.134 2.177-0 2.448 0.012 2.628 0.118zM22.732 12.773c0.174 0.174 0.176 0.486 0.006 0.696l-0.131 0.162-4.727 0.019c-2.6 0.011-4.797 0.002-4.883-0.019-0.404-0.099-0.552-0.545-0.278-0.837l0.149-0.159h4.864c4.772 0 4.866 0.003 5.001 0.137zM6.927 13.753c-0.285 0.204-0.553 0.393-0.596 0.42-0.045 0.028-0.169-0.055-0.292-0.195-0.165-0.187-0.267-0.244-0.442-0.244-0.257 0-0.513 0.255-0.513 0.511 0 0.214 0.667 1.133 0.882 1.215 0.24 0.091 0.354 0.033 1.29-0.663 0.76-0.565 0.781-0.588 0.781-0.845 0-0.29-0.129-0.453-0.416-0.525-0.141-0.035-0.278 0.030-0.693 0.327zM23.075 16.9c-1.114 1.703-2.035 3.12-2.046 3.149-0.018 0.047 0.781 0.585 3.328 2.242l0.767 0.499 2.002-3.060c1.101-1.683 2.018-3.102 2.038-3.154 0.024-0.063-0.622-0.528-1.993-1.434-1.116-0.737-2.038-1.34-2.050-1.34s-0.932 1.394-2.046 3.097zM20.186 15.345c0.315 0.163 0.369 0.454 0.137 0.749l-0.142 0.181h-7.294l-0.159-0.149c-0.255-0.24-0.18-0.684 0.137-0.812 0.083-0.033 1.72-0.062 3.638-0.065 2.933-0.004 3.519 0.012 3.683 0.096zM20.369 21.23c-0.052 0.126-0.128 0.461-0.168 0.744-0.102 0.717-0.247 3.572-0.193 3.789 0.088 0.352 0.254 0.303 2.033-0.606 1.442-0.737 2.318-1.263 2.445-1.468 0.026-0.041-3.753-2.582-3.962-2.664-0.033-0.013-0.102 0.080-0.154 0.206zM9.28 21.512c0.473 0.316 0.479 0.355 0.458 3.003-0.021 2.599-0.015 2.565-0.453 2.862-0.168 0.114-0.394 0.127-2.553 0.144-2.648 0.021-2.687 0.015-3.003-0.458-0.155-0.231-0.156-0.253-0.156-2.611 0-2.628 0.006-2.67 0.446-2.96 0.195-0.128 0.332-0.136 2.616-0.136 2.392-0 2.412 0.001 2.644 0.155zM17.412 22.637c0.178 0.068 0.304 0.425 0.227 0.645-0.112 0.322-0.25 0.34-2.57 0.34h-2.163l-0.168-0.169c-0.206-0.206-0.215-0.441-0.026-0.681l0.142-0.181h2.221c1.222 0 2.273 0.020 2.337 0.045zM6.903 23.795c-0.264 0.203-0.506 0.371-0.537 0.373s-0.158-0.104-0.283-0.237c-0.149-0.158-0.289-0.24-0.411-0.24-0.229 0-0.521 0.281-0.521 0.501 0 0.188 0.621 1.107 0.82 1.213 0.254 0.136 0.407 0.067 1.25-0.564 0.805-0.602 0.85-0.649 0.87-0.899 0.029-0.349-0.13-0.527-0.462-0.521-0.189 0.004-0.359 0.091-0.728 0.374zM16.461 25.42c0.194 0.182 0.205 0.465 0.028 0.684l-0.131 0.162h-3.527l-0.131-0.162c-0.173-0.214-0.166-0.479 0.018-0.675 0.148-0.158 0.16-0.159 1.867-0.159 1.669 0 1.722 0.004 1.876 0.149z"></path>
</symbol>
<symbol id="icon-exames-medicos" viewBox="0 0 32 32">
<path fill="#00ada8" style="fill: var(--color1, #00ada8)" d="M2.277 0.064c-0.726 0.142-1.551 0.756-1.911 1.424-0.358 0.663-0.366 0.759-0.366 4.465v3.402h2.149l0.195 0.174c0.311 0.278 0.253 0.793-0.108 0.958-0.093 0.042-0.567 0.070-1.195 0.070h-1.041v10.88h2.149l0.197 0.176c0.279 0.249 0.279 0.601 0 0.85l-0.197 0.176h-2.149v3.402c0 3.707 0.008 3.802 0.366 4.465 0.216 0.4 0.726 0.908 1.135 1.13 0.696 0.379 0.151 0.362 11.637 0.363 7.414 0.001 10.612-0.020 10.848-0.069 1.118-0.232 2.047-1.188 2.263-2.327 0.073-0.385 0.092-6.57 0.019-6.498-0.025 0.025-0.292 0.575-0.594 1.224s-0.627 1.276-0.723 1.396c-0.272 0.341-3.623 2.986-4.006 3.162-0.289 0.133-0.406 0.151-0.791 0.126-0.725-0.047-1.253-0.398-1.563-1.039-0.134-0.277-0.153-0.429-0.194-1.536-0.025-0.676-0.055-1.814-0.066-2.53l-0.020-1.302 8.002-17.166v-1.355c0-0.745-0.029-1.508-0.065-1.695-0.217-1.146-1.138-2.092-2.263-2.327-0.411-0.086-21.27-0.086-21.709-0zM28.989 4.287c-0.448 0.155-0.814 0.421-1.099 0.799-0.209 0.277-1.134 2.155-1.134 2.302 0 0.055 4.485 2.128 4.513 2.086 0.094-0.139 0.934-2.047 0.985-2.237 0.106-0.399 0.082-1.008-0.056-1.402-0.436-1.239-1.966-1.978-3.209-1.548zM14.943 4.978c0.404 0.179 0.716 0.481 0.916 0.888 0.17 0.346 0.177 0.402 0.197 1.482l0.021 1.123h1.059c1.3 0 1.532 0.062 2.010 0.54 0.468 0.468 0.544 0.765 0.515 2.009-0.025 1.077-0.087 1.276-0.537 1.726-0.433 0.433-0.668 0.497-1.928 0.52l-1.117 0.021-0.022 1.118c-0.025 1.27-0.087 1.484-0.568 1.965-0.41 0.41-0.778 0.512-1.848 0.512-0.656 0-0.983-0.027-1.196-0.1-0.395-0.135-0.854-0.552-1.035-0.942-0.138-0.296-0.149-0.397-0.149-1.441l-0.001-1.123h-1.036c-0.799 0-1.112-0.024-1.366-0.107-0.434-0.14-0.89-0.554-1.084-0.983-0.139-0.308-0.151-0.413-0.149-1.346 0.001-0.817 0.022-1.059 0.11-1.255 0.173-0.389 0.455-0.699 0.817-0.899 0.331-0.183 0.357-0.187 1.507-0.218l1.17-0.032 0.032-1.17c0.035-1.306 0.079-1.471 0.506-1.898 0.457-0.457 0.915-0.575 2.099-0.539 0.617 0.018 0.866 0.052 1.079 0.146zM12.642 6.188c-0.148 0.119-0.15 0.139-0.181 1.612l-0.032 1.491-0.351 0.351-1.491 0.032c-1.46 0.031-1.493 0.035-1.608 0.177-0.155 0.191-0.209 0.587-0.175 1.283 0.025 0.516 0.043 0.585 0.199 0.74l0.171 0.172 1.406 0.017c0.96 0.011 1.454 0.042 1.558 0.095 0.281 0.144 0.322 0.378 0.322 1.82v1.335l0.185 0.185c0.184 0.184 0.188 0.185 0.952 0.185 0.845 0 1.062-0.063 1.191-0.346 0.051-0.112 0.076-0.607 0.076-1.528v-1.362l0.37-0.37h1.368c1.878 0 1.868 0.007 1.868-1.273 0-0.757-0.001-0.762-0.185-0.946l-0.185-0.185-1.381-0c-1.261-0-1.398-0.011-1.585-0.125-0.112-0.068-0.219-0.189-0.237-0.269s-0.040-0.766-0.049-1.526l-0.016-1.381-0.177-0.152c-0.168-0.145-0.221-0.153-1.021-0.153-0.736 0-0.863 0.015-0.993 0.121zM25.974 8.992c-0.116 0.252-1.538 3.307-3.161 6.789s-2.951 6.359-2.951 6.393c0 0.097 4.423 2.14 4.488 2.072 0.031-0.032 1.356-2.847 2.945-6.257s2.908-6.219 2.932-6.244c0.049-0.053 0.683 0.229 0.846 0.376 0.061 0.055 0.111 0.142 0.111 0.193s-0.47 1.097-1.044 2.324c-0.574 1.227-1.044 2.293-1.044 2.368 0 0.443 0.448 0.729 0.845 0.541 0.202-0.096 0.286-0.25 1.185-2.171 1.194-2.552 1.256-2.701 1.258-3.022 0.003-0.481-0.274-1.015-0.665-1.283-0.17-0.116-5.422-2.538-5.504-2.538-0.017 0-0.126 0.206-0.242 0.459zM19.551 24.521c0.003 0.583 0.025 1.496 0.048 2.030 0.043 0.961 0.045 0.972 0.22 1.123 0.118 0.102 0.255 0.152 0.413 0.152 0.211 0 0.401-0.13 1.806-1.243 1.362-1.078 1.554-1.252 1.453-1.309-0.24-0.135-3.843-1.813-3.893-1.813-0.029 0-0.049 0.477-0.047 1.059z"></path>
</symbol>
<symbol id="icon-analises-de-risco" viewBox="0 0 32 32">
<path fill="#00ada8" style="fill: var(--color1, #00ada8)" d="M8.853 0.098c-1.050 0.283-1.927 1.103-2.212 2.067-0.082 0.276-0.083 0.277-0.521 0.353-2.575 0.446-4.712 2.451-5.392 5.058-0.183 0.701-0.245 2.038-0.129 2.763 0.17 1.060 0.624 2.173 1.211 2.97l0.294 0.398-0.95 1.627c-0.523 0.895-0.999 1.789-1.058 1.987-0.25 0.833 0.002 1.761 0.641 2.359 0.518 0.485 0.972 0.668 1.659 0.668 0.506 0 0.613-0.023 1.011-0.219 0.265-0.13 0.544-0.332 0.688-0.498 0.134-0.154 0.669-1.011 1.189-1.906 0.712-1.224 0.981-1.632 1.087-1.648l0.141-0.021 0.001 6.562c0.001 7.162-0.005 7.029 0.383 7.75 0.403 0.749 1.264 1.381 2.126 1.561 0.248 0.052 3.242 0.072 10.16 0.070 9.050-0.004 9.842-0.013 10.245-0.118 1.085-0.283 1.93-1.136 2.217-2.238 0.090-0.345 0.102-1.944 0.102-13.578 0-14.533 0.029-13.532-0.412-14.359-0.429-0.805-1.346-1.479-2.236-1.644-0.229-0.042-3.886-0.065-10.127-0.062-8.188 0.004-9.826 0.020-10.117 0.098zM29.158 1.099c0.688 0.204 1.206 0.695 1.422 1.346 0.094 0.282 0.103 1.67 0.087 13.592l-0.018 13.278-0.192 0.415c-0.219 0.475-0.628 0.888-1.092 1.102l-0.311 0.143h-19.988l-0.379-0.186c-0.454-0.223-0.922-0.72-1.093-1.159-0.115-0.297-0.123-0.686-0.14-6.896l-0.018-6.581 0.516-0.041c3.289-0.261 6.025-2.999 6.248-6.254 0.116-1.695-0.245-3.092-1.151-4.454-1.070-1.608-2.857-2.707-4.811-2.957-0.33-0.042-0.6-0.1-0.6-0.127 0-0.151 0.476-0.726 0.755-0.912 0.644-0.43-0.011-0.405 10.671-0.41 8.749-0.004 9.769 0.006 10.092 0.102zM8.757 3.582c2.637 0.634 4.479 2.983 4.479 5.711 0 4.709-5.229 7.509-9.148 4.899-0.511-0.34-1.16-0.97-1.531-1.485-1.77-2.456-1.305-6.034 1.033-7.959 1.437-1.183 3.326-1.609 5.168-1.166zM20.288 4.442c-0.344 0.139-0.33-0.086-0.33 5.298v5.009l0.186 0.16c0.184 0.159 0.2 0.16 1.615 0.16h1.429l0.388-0.388v-4.916c0-3.461-0.022-4.964-0.074-5.078-0.041-0.089-0.147-0.195-0.236-0.236-0.19-0.086-2.77-0.096-2.98-0.010zM6.26 5.044c-1.183 0.31-2.276 1.193-2.793 2.257-0.361 0.743-0.475 1.221-0.474 1.99 0.001 0.747 0.123 1.319 0.399 1.876 0.704 1.418 1.935 2.248 3.617 2.44 1.955 0.222 3.879-1.064 4.521-3.022 0.169-0.514 0.194-0.69 0.191-1.324-0.004-1.045-0.218-1.685-0.871-2.606-0.553-0.78-1.571-1.444-2.525-1.646-0.626-0.133-1.479-0.118-2.065 0.036zM25.192 7.899c-0.080 0.032-0.177 0.118-0.216 0.191-0.047 0.088-0.071 1.212-0.071 3.39 0 3.156 0.004 3.262 0.131 3.389 0.197 0.197 0.325 0.21 1.821 0.188 1.359-0.020 1.382-0.023 1.507-0.177 0.121-0.149 0.127-0.307 0.127-3.398 0-1.783-0.019-3.289-0.041-3.349-0.099-0.258-0.36-0.302-1.765-0.298-0.741 0.002-1.413 0.031-1.493 0.063zM15.174 9.655l-0.163 0.163v2.453c0 2.316 0.007 2.461 0.127 2.609 0.127 0.157 0.129 0.157 1.666 0.157s1.539-0 1.666-0.157c0.12-0.148 0.127-0.294 0.127-2.635v-2.478l-0.175-0.138c-0.165-0.13-0.259-0.138-1.63-0.138h-1.455l-0.163 0.163zM22.829 18.989c-2.048 0.25-3.857 1.83-4.409 3.851-0.162 0.592-0.165 1.989-0.005 2.59 0.374 1.412 1.435 2.709 2.739 3.351 0.884 0.435 1.303 0.53 2.324 0.528 1.469-0.003 2.504-0.408 3.544-1.386 1.607-1.511 2.077-3.994 1.135-6.006-0.936-1.999-3.116-3.198-5.328-2.928zM14.282 19.186c-0.188 0.189-0.215 0.362-0.19 1.231 0.022 0.755 0.027 0.779 0.209 0.935 0.176 0.151 0.234 0.16 1.037 0.16 0.76 0 0.869-0.015 1.026-0.138 0.175-0.137 0.175-0.14 0.175-1.091s-0-0.954-0.175-1.091c-0.157-0.124-0.265-0.138-1.063-0.138-0.795 0-0.901 0.014-1.019 0.131zM9.112 20.071c-0.192 0.204-0.184 0.477 0.019 0.679l0.163 0.163h1.521c1.439 0 1.531-0.008 1.696-0.138 0.219-0.172 0.24-0.528 0.042-0.726-0.125-0.125-0.221-0.133-1.715-0.133-1.568 0-1.583 0.001-1.727 0.154zM23.113 22.007c0 1.995 0.002 2.025 0.145 2.158 0.14 0.13 0.224 0.135 2.258 0.135h2.112v0.229c0 0.414-0.141 0.924-0.41 1.489-0.206 0.431-0.379 0.671-0.774 1.069-1.657 1.672-4.248 1.676-5.919 0.010-1.675-1.671-1.679-4.262-0.008-5.921 0.697-0.692 1.661-1.173 2.38-1.188l0.216-0.004v2.023zM14.282 22.838c-0.188 0.188-0.215 0.362-0.19 1.231 0.022 0.755 0.027 0.779 0.209 0.935 0.176 0.151 0.234 0.16 1.037 0.16 0.76 0 0.869-0.015 1.026-0.138 0.174-0.137 0.175-0.143 0.175-1.054 0-0.826-0.013-0.933-0.138-1.091-0.137-0.174-0.142-0.175-1.063-0.175-0.832 0-0.938 0.013-1.056 0.131zM9.131 23.6c-0.209 0.209-0.213 0.497-0.009 0.689 0.149 0.14 0.203 0.144 1.727 0.144 1.484 0 1.58-0.008 1.706-0.133 0.198-0.198 0.177-0.553-0.042-0.726-0.165-0.13-0.258-0.138-1.696-0.138h-1.521l-0.163 0.163zM14.241 26.565c-0.112 0.123-0.127 0.248-0.127 1.061 0 1.205 0.003 1.209 0.996 1.246 0.816 0.030 1.122-0.015 1.299-0.192 0.115-0.115 0.129-0.226 0.129-1.017 0-0.797-0.014-0.905-0.138-1.063-0.137-0.174-0.141-0.175-1.085-0.175-0.879 0-0.957 0.010-1.074 0.14zM9.143 27.094c-0.229 0.18-0.234 0.474-0.012 0.695l0.163 0.163h1.521c1.439 0 1.531-0.008 1.696-0.138 0.229-0.18 0.239-0.51 0.021-0.714-0.149-0.14-0.204-0.144-1.684-0.144-1.448 0-1.54 0.007-1.706 0.138z"></path>
</symbol>
<symbol id="icon-esocial" viewBox="0 0 32 32">
<path fill="#00ada8" style="fill: var(--color1, #00ada8)" d="M15.368 0.275c-0.659 0.413-1.858 0.97-2.636 1.225-1.099 0.36-2.615 0.629-3.551 0.631-0.286 0-0.384 0.032-0.517 0.164-0.164 0.164-0.164 0.164-0.164 1.597v1.434l-6.501 0.039-0.445 0.211c-0.62 0.294-1.006 0.672-1.306 1.278l-0.249 0.504v16.215l0.249 0.504c0.3 0.607 0.686 0.985 1.306 1.278l0.445 0.211 10.747 0.037-0.060 0.381c-0.132 0.845-0.463 1.694-0.932 2.39l-0.275 0.409-0.44 0.032c-0.789 0.058-1.465 0.514-1.803 1.218-0.125 0.26-0.167 0.475-0.189 0.979-0.028 0.622-0.023 0.652 0.142 0.817l0.171 0.171h13.213l0.172-0.172c0.167-0.167 0.171-0.192 0.141-0.825-0.028-0.589-0.054-0.694-0.264-1.078-0.378-0.691-1.091-1.125-1.847-1.125-0.305 0-0.313-0.006-0.59-0.417-0.475-0.705-0.805-1.55-0.938-2.398l-0.060-0.381 10.747-0.037 0.445-0.211c0.62-0.294 1.006-0.672 1.306-1.278l0.249-0.504v-16.215l-0.249-0.504c-0.3-0.607-0.686-0.985-1.306-1.278l-0.445-0.211-6.501-0.039v-1.434c0-1.433-0-1.434-0.164-1.597-0.132-0.132-0.231-0.164-0.517-0.164-1.873-0.003-4.297-0.718-6.079-1.795-0.308-0.186-0.631-0.337-0.717-0.335s-0.352 0.125-0.591 0.275zM20.072 6.028c0.107 0.107 0.164 0.239 0.164 0.382 0 0.199-0.231 0.45-2.551 2.77-2.374 2.374-2.567 2.551-2.782 2.551-0.212 0-0.352-0.122-1.716-1.485-1.33-1.33-1.485-1.508-1.485-1.703 0-0.291 0.253-0.545 0.543-0.545 0.191 0 0.358 0.142 1.437 1.215l1.221 1.215 2.285-2.282c2.068-2.064 2.306-2.282 2.503-2.282 0.142 0 0.274 0.057 0.381 0.164zM8.521 7.814c0.029 1.084 0.069 1.554 0.173 2.003 0.637 2.75 2.677 5.090 5.78 6.631 1.031 0.512 1.391 0.639 1.661 0.589 0.375-0.070 2.413-1.134 3.045-1.589 1.917-1.381 3.079-2.81 3.765-4.635 0.329-0.873 0.433-1.547 0.472-3.032l0.036-1.383h3.034c2.187 0 3.111 0.023 3.309 0.081 0.366 0.108 0.919 0.661 1.027 1.027 0.061 0.207 0.081 1.811 0.081 6.517v6.243h-29.87v-6.243c0-4.707 0.020-6.31 0.081-6.517 0.1-0.34 0.658-0.918 0.986-1.021 0.155-0.049 1.271-0.076 3.308-0.080l3.075-0.007 0.037 1.417zM18.128 25.749c0.016 0.083 0.062 0.352 0.103 0.599 0.099 0.598 0.407 1.49 0.699 2.021l0.237 0.43h-6.381l0.278-0.554c0.32-0.637 0.545-1.309 0.643-1.92 0.038-0.235 0.083-0.494 0.1-0.576l0.031-0.15h4.262l0.029 0.15z"></path>
</symbol>
<symbol id="icon-logotipowhite" viewBox="0 0 163 32">
<path fill="#fff" style="fill: var(--color2, #fff)" d="M8.199 25.355l2.453-2.457 3.917 3.917 8.734-8.738-3.914-3.913 2.457-2.457 6.642 6.645-13.648 13.648-6.642-6.645z"></path>
<path fill="#fff" style="fill: var(--color2, #fff)" d="M6.645 23.8l2.453-2.453-3.913-3.917 8.738-8.734 3.913 3.913 2.457-2.457-6.645-6.642-13.648 13.648 6.645 6.642z"></path>
<path fill="#fff" style="fill: var(--color2, #fff)" d="M11.146 0.079h-3.537v3.537h3.537v-3.537z"></path>
<path fill="#fff" style="fill: var(--color2, #fff)" d="M7.484 3.737h-3.349v3.473h3.349v-3.473z"></path>
<path fill="#fff" style="fill: var(--color2, #fff)" d="M4.011 7.274h-2.141v2.126h2.141v-2.126z"></path>
<path fill="#fff" style="fill: var(--color2, #fff)" d="M1.731 6.002h-1.148v1.193h1.148v-1.193z"></path>
<path fill="#fff" style="fill: var(--color2, #fff)" d="M3.996 1.52h-2.186v2.107h2.186v-2.107z"></path>
<path fill="#fff" style="fill: var(--color2, #fff)" d="M5.531 0h-1.434v1.464h1.434v-1.464z"></path>
<path fill="#fff" style="fill: var(--color2, #fff)" d="M1.746 0.177h-1.193v1.272h1.193v-1.272z"></path>
<path fill="#fff" style="fill: var(--color2, #fff)" d="M14.627 17.257c2.235 1.84 3.364-0.376 2.34-0.869 1.261-0.485 1.242-2.13-0.113-2.134 0.674-1.084-0.674-2.352-1.855-1.648-0.948-1.159-2.879-0.542-2.6 0.775-1.784-0.079-2.021 1.795-0.937 2.536-0.828 1.558 0.79 2.405 1.881 2.115 0.117-1.261 0.753-2.525 2.032-3.797-0.516 0.853-0.88 1.789-1.076 2.766l0.327 0.256z"></path>
<path fill="#fff" style="fill: var(--color2, #fff)" d="M15.375 14.235c-2.811 2.841-2.634 5.644-0.094 8.422-1.471-2.807-1.577-5.614 0.094-8.422z"></path>
<path fill="#fff" style="fill: var(--color2, #fff)" d="M9.483 18.536l1.806-0.045c0.339 3.676 5.742 4.079 6.13-0.275l1.814-0.056c0 0.448-0.045 1.61-0.32 2.032l-0.963-0.090-0.263 0.504 0.576 0.753c-0.078 0.219-0.199 0.419-0.357 0.59s-0.349 0.306-0.561 0.4l-0.692-0.602-0.542 0.316 0.136 1.035c-0.389 0.192-0.816 0.297-1.249 0.309l-0.32-0.96h-0.617c-0.051 0.328-0.171 0.641-0.354 0.918-0.415 0.004-0.825-0.090-1.197-0.275l0.102-1.031-0.467-0.275-0.809 0.602c-0.364-0.236-0.659-0.563-0.858-0.948l0.568-0.79-0.29-0.489-0.952 0.102c-0.203-0.548-0.312-1.127-0.32-1.712z"></path>
<path fill="#fff" style="fill: var(--color2, #fff)" d="M41.167 14.134h-1.606c-0.062-0.343-0.177-0.645-0.345-0.906s-0.374-0.482-0.618-0.664c-0.244-0.182-0.517-0.319-0.819-0.412-0.299-0.093-0.616-0.139-0.953-0.139-0.608 0-1.152 0.153-1.632 0.458-0.477 0.306-0.855 0.754-1.133 1.344-0.275 0.59-0.412 1.311-0.412 2.163 0 0.858 0.137 1.583 0.412 2.173 0.278 0.59 0.657 1.037 1.138 1.339s1.021 0.453 1.622 0.453c0.333 0 0.649-0.045 0.947-0.134 0.302-0.093 0.575-0.228 0.819-0.407s0.45-0.396 0.618-0.654c0.172-0.261 0.29-0.56 0.355-0.896l1.606 0.005c-0.086 0.518-0.252 0.996-0.499 1.432-0.244 0.432-0.558 0.807-0.942 1.122-0.381 0.312-0.817 0.554-1.308 0.726s-1.026 0.258-1.607 0.258c-0.913 0-1.727-0.216-2.441-0.649-0.714-0.436-1.277-1.059-1.689-1.869-0.409-0.81-0.613-1.776-0.613-2.899 0-1.126 0.206-2.092 0.618-2.899 0.412-0.81 0.975-1.431 1.689-1.864 0.714-0.436 1.526-0.654 2.436-0.654 0.56 0 1.081 0.081 1.565 0.242 0.487 0.158 0.925 0.391 1.313 0.7 0.388 0.306 0.709 0.68 0.963 1.122 0.254 0.439 0.426 0.942 0.515 1.509z"></path>
<path fill="#fff" style="fill: var(--color2, #fff)" d="M46.279 21.41c-0.742 0-1.389-0.17-1.941-0.51s-0.982-0.815-1.287-1.426-0.458-1.325-0.458-2.142c0-0.82 0.153-1.538 0.458-2.152s0.735-1.092 1.287-1.432c0.553-0.34 1.2-0.51 1.941-0.51s1.389 0.17 1.941 0.51c0.553 0.34 0.982 0.817 1.287 1.432s0.458 1.332 0.458 2.152c0 0.817-0.153 1.531-0.458 2.142s-0.735 1.086-1.287 1.426c-0.553 0.34-1.2 0.51-1.941 0.51zM46.284 20.117c0.481 0 0.879-0.127 1.195-0.381s0.549-0.592 0.7-1.014c0.154-0.422 0.232-0.887 0.232-1.395 0-0.505-0.077-0.968-0.232-1.39-0.151-0.426-0.384-0.767-0.7-1.025s-0.714-0.386-1.195-0.386c-0.484 0-0.886 0.129-1.205 0.386-0.316 0.257-0.551 0.599-0.705 1.025-0.151 0.422-0.227 0.886-0.227 1.39 0 0.508 0.076 0.973 0.227 1.395 0.154 0.422 0.39 0.76 0.705 1.014 0.319 0.254 0.721 0.381 1.205 0.381z"></path>
<path fill="#fff" style="fill: var(--color2, #fff)" d="M53.224 16.554v4.696h-1.54v-7.909h1.478v1.287h0.098c0.182-0.419 0.467-0.755 0.855-1.009 0.391-0.254 0.884-0.381 1.478-0.381 0.539 0 1.011 0.113 1.416 0.34 0.405 0.223 0.719 0.556 0.942 0.999s0.335 0.99 0.335 1.643v5.031h-1.54v-4.845c0-0.573-0.149-1.021-0.448-1.344-0.299-0.326-0.709-0.489-1.231-0.489-0.357 0-0.675 0.077-0.953 0.232-0.275 0.154-0.493 0.381-0.654 0.68-0.158 0.295-0.237 0.652-0.237 1.071z"></path>
<path fill="#fff" style="fill: var(--color2, #fff)" d="M60.659 10.705l2.935 8.589h0.118l2.935-8.589h1.72l-3.795 10.545h-1.838l-3.795-10.545h1.72z"></path>
<path fill="#fff" style="fill: var(--color2, #fff)" d="M69.767 21.25v-7.909h1.54v7.909h-1.54zM70.544 12.121c-0.268 0-0.498-0.089-0.69-0.268-0.189-0.182-0.283-0.398-0.283-0.649 0-0.254 0.094-0.47 0.283-0.649 0.192-0.182 0.422-0.273 0.69-0.273s0.496 0.091 0.685 0.273c0.192 0.178 0.288 0.395 0.288 0.649 0 0.251-0.096 0.467-0.288 0.649-0.189 0.179-0.417 0.268-0.685 0.268z"></path>
<path fill="#fff" style="fill: var(--color2, #fff)" d="M76.339 21.405c-0.638 0-1.208-0.163-1.71-0.489-0.498-0.33-0.889-0.798-1.174-1.406-0.282-0.611-0.422-1.344-0.422-2.199s0.142-1.586 0.427-2.194c0.288-0.608 0.683-1.073 1.184-1.395s1.069-0.484 1.704-0.484c0.491 0 0.886 0.082 1.184 0.247 0.302 0.161 0.536 0.35 0.7 0.566 0.168 0.216 0.299 0.407 0.391 0.572h0.093v-3.918h1.539v10.545h-1.503v-1.231h-0.129c-0.093 0.168-0.227 0.36-0.402 0.577-0.172 0.216-0.408 0.405-0.711 0.566s-0.693 0.242-1.174 0.242zM76.678 20.092c0.443 0 0.817-0.117 1.122-0.35 0.309-0.237 0.542-0.565 0.7-0.984 0.161-0.419 0.242-0.906 0.242-1.462 0-0.549-0.079-1.030-0.237-1.442s-0.39-0.733-0.695-0.963-0.683-0.345-1.133-0.345c-0.463 0-0.85 0.12-1.159 0.36s-0.542 0.568-0.7 0.984c-0.154 0.415-0.232 0.884-0.232 1.406 0 0.529 0.079 1.004 0.237 1.426s0.391 0.757 0.7 1.004c0.312 0.244 0.697 0.366 1.153 0.366z"></path>
<path fill="#fff" style="fill: var(--color2, #fff)" d="M84.756 21.425c-0.501 0-0.954-0.093-1.359-0.278-0.405-0.189-0.726-0.462-0.963-0.819-0.233-0.357-0.35-0.795-0.35-1.313 0-0.446 0.086-0.814 0.257-1.102s0.404-0.517 0.695-0.685c0.292-0.168 0.618-0.295 0.978-0.381s0.728-0.151 1.102-0.196c0.474-0.055 0.858-0.1 1.153-0.134 0.295-0.038 0.51-0.098 0.644-0.18s0.201-0.216 0.201-0.402v-0.036c0-0.45-0.127-0.798-0.381-1.045-0.25-0.247-0.625-0.371-1.122-0.371-0.518 0-0.927 0.115-1.226 0.345-0.295 0.227-0.5 0.479-0.613 0.757l-1.447-0.33c0.172-0.481 0.422-0.868 0.752-1.164 0.333-0.299 0.716-0.515 1.148-0.649 0.433-0.137 0.887-0.206 1.365-0.206 0.316 0 0.65 0.038 1.004 0.113 0.357 0.072 0.69 0.206 0.999 0.402 0.312 0.196 0.568 0.475 0.767 0.839 0.199 0.36 0.298 0.829 0.298 1.406v5.252h-1.503v-1.081h-0.062c-0.099 0.199-0.249 0.395-0.448 0.587s-0.454 0.352-0.767 0.479c-0.312 0.127-0.686 0.191-1.122 0.191zM85.091 20.189c0.426 0 0.789-0.084 1.091-0.252 0.306-0.168 0.538-0.388 0.695-0.659 0.162-0.275 0.242-0.568 0.242-0.88v-1.020c-0.054 0.055-0.161 0.106-0.319 0.154-0.154 0.045-0.331 0.084-0.53 0.118-0.198 0.031-0.393 0.060-0.582 0.088-0.189 0.024-0.346 0.045-0.474 0.062-0.298 0.038-0.571 0.101-0.818 0.191-0.244 0.089-0.44 0.218-0.587 0.386-0.144 0.165-0.216 0.384-0.216 0.659 0 0.381 0.14 0.669 0.422 0.865 0.282 0.192 0.641 0.288 1.077 0.288z"></path>
<path fill="#fff" style="fill: var(--color2, #fff)" d="M95.562 21.25h-1.689l3.795-10.545h1.838l3.795 10.545h-1.689l-2.982-8.63h-0.082l-2.986 8.63zM95.845 17.12h5.478v1.339h-5.478v-1.339z"></path>
<path fill="#fff" style="fill: var(--color2, #fff)" d="M104.7 21.25v-7.909h1.478v1.287h0.098c0.165-0.436 0.434-0.776 0.808-1.020 0.374-0.247 0.822-0.371 1.344-0.371 0.529 0 0.971 0.124 1.329 0.371 0.36 0.247 0.626 0.587 0.798 1.020h0.082c0.189-0.422 0.49-0.759 0.902-1.009 0.412-0.254 0.902-0.381 1.472-0.381 0.718 0 1.303 0.225 1.756 0.675 0.457 0.45 0.685 1.128 0.685 2.034v5.304h-1.539v-5.159c0-0.536-0.146-0.923-0.438-1.164s-0.641-0.36-1.046-0.36c-0.501 0-0.89 0.154-1.169 0.463-0.278 0.306-0.417 0.699-0.417 1.179v5.041h-1.534v-5.257c0-0.429-0.134-0.774-0.402-1.035s-0.617-0.391-1.046-0.391c-0.292 0-0.562 0.077-0.808 0.232-0.244 0.151-0.442 0.362-0.593 0.633-0.147 0.271-0.221 0.585-0.221 0.942v4.876h-1.54z"></path>
<path fill="#fff" style="fill: var(--color2, #fff)" d="M117.638 21.25v-10.545h1.54v3.918h0.093c0.089-0.165 0.218-0.355 0.386-0.572s0.402-0.405 0.701-0.566c0.298-0.165 0.693-0.247 1.184-0.247 0.638 0 1.208 0.161 1.71 0.484s0.894 0.788 1.179 1.395c0.288 0.608 0.433 1.339 0.433 2.194s-0.143 1.588-0.428 2.199c-0.285 0.608-0.676 1.076-1.174 1.406-0.498 0.326-1.066 0.489-1.705 0.489-0.48 0-0.874-0.081-1.179-0.242-0.302-0.161-0.538-0.35-0.71-0.566s-0.304-0.408-0.396-0.577h-0.129v1.231h-1.504zM119.147 17.296c0 0.556 0.081 1.044 0.242 1.462s0.394 0.747 0.7 0.984c0.306 0.233 0.68 0.35 1.122 0.35 0.46 0 0.845-0.122 1.154-0.366 0.309-0.247 0.542-0.582 0.7-1.004 0.162-0.422 0.242-0.898 0.242-1.426 0-0.522-0.079-0.99-0.237-1.406-0.154-0.415-0.388-0.743-0.701-0.984-0.309-0.24-0.695-0.36-1.158-0.36-0.446 0-0.824 0.115-1.133 0.345-0.306 0.23-0.537 0.551-0.695 0.963s-0.237 0.892-0.237 1.442z"></path>
<path fill="#fff" style="fill: var(--color2, #fff)" d="M126.592 21.25v-7.909h1.539v7.909h-1.539zM127.369 12.121c-0.267 0-0.498-0.089-0.69-0.268-0.189-0.182-0.283-0.398-0.283-0.649 0-0.254 0.094-0.47 0.283-0.649 0.192-0.182 0.422-0.273 0.69-0.273s0.497 0.091 0.686 0.273c0.192 0.178 0.288 0.395 0.288 0.649 0 0.251-0.096 0.467-0.288 0.649-0.189 0.179-0.418 0.268-0.686 0.268z"></path>
<path fill="#fff" style="fill: var(--color2, #fff)" d="M133.611 21.41c-0.779 0-1.45-0.166-2.014-0.5-0.559-0.336-0.992-0.808-1.298-1.416-0.302-0.611-0.453-1.327-0.453-2.147 0-0.81 0.151-1.524 0.453-2.142 0.306-0.618 0.731-1.1 1.278-1.447 0.549-0.347 1.191-0.52 1.926-0.52 0.446 0 0.878 0.074 1.298 0.221s0.794 0.379 1.127 0.695c0.334 0.316 0.596 0.726 0.788 1.231 0.193 0.501 0.289 1.111 0.289 1.828v0.546h-6.287v-1.153h4.778c0-0.405-0.082-0.764-0.247-1.076-0.165-0.316-0.397-0.565-0.695-0.747-0.295-0.182-0.642-0.273-1.040-0.273-0.433 0-0.81 0.106-1.133 0.319-0.319 0.209-0.566 0.484-0.742 0.824-0.172 0.336-0.258 0.702-0.258 1.097v0.901c0 0.529 0.093 0.978 0.278 1.349 0.189 0.371 0.451 0.654 0.787 0.85 0.337 0.192 0.73 0.288 1.179 0.288 0.292 0 0.558-0.041 0.798-0.124 0.24-0.086 0.448-0.213 0.623-0.381s0.309-0.376 0.402-0.623l1.457 0.263c-0.117 0.429-0.326 0.805-0.628 1.128-0.298 0.319-0.674 0.568-1.127 0.747-0.45 0.175-0.963 0.263-1.54 0.263z"></path>
<path fill="#fff" style="fill: var(--color2, #fff)" d="M140.252 16.554v4.696h-1.539v-7.909h1.478v1.287h0.098c0.182-0.419 0.467-0.755 0.855-1.009 0.391-0.254 0.884-0.381 1.478-0.381 0.539 0 1.011 0.113 1.416 0.34 0.406 0.223 0.719 0.556 0.942 0.999s0.334 0.99 0.334 1.643v5.031h-1.539v-4.845c0-0.573-0.15-1.021-0.448-1.344-0.298-0.326-0.709-0.489-1.23-0.489-0.358 0-0.674 0.077-0.953 0.232-0.274 0.154-0.493 0.381-0.654 0.68-0.158 0.295-0.238 0.652-0.238 1.071z"></path>
<path fill="#fff" style="fill: var(--color2, #fff)" d="M151.070 13.341v1.236h-4.32v-1.236h4.32zM147.909 11.446h1.54v7.482c0 0.299 0.045 0.524 0.134 0.675 0.090 0.148 0.205 0.249 0.346 0.304 0.144 0.052 0.3 0.077 0.468 0.077 0.124 0 0.232-0.009 0.325-0.026s0.165-0.031 0.216-0.041l0.278 1.272c-0.090 0.034-0.217 0.069-0.382 0.103-0.165 0.038-0.37 0.058-0.618 0.062-0.405 0.007-0.782-0.065-1.133-0.216s-0.634-0.384-0.85-0.7c-0.216-0.316-0.325-0.712-0.325-1.189v-7.801z"></path>
<path fill="#fff" style="fill: var(--color2, #fff)" d="M155.075 21.425c-0.501 0-0.954-0.093-1.359-0.278-0.405-0.189-0.726-0.462-0.963-0.819-0.233-0.357-0.35-0.795-0.35-1.313 0-0.446 0.086-0.814 0.258-1.102s0.403-0.517 0.695-0.685c0.291-0.168 0.618-0.295 0.978-0.381s0.728-0.151 1.102-0.196c0.474-0.055 0.858-0.1 1.154-0.134 0.295-0.038 0.51-0.098 0.643-0.18s0.201-0.216 0.201-0.402v-0.036c0-0.45-0.127-0.798-0.381-1.045-0.25-0.247-0.625-0.371-1.122-0.371-0.518 0-0.927 0.115-1.226 0.345-0.295 0.227-0.499 0.479-0.613 0.757l-1.447-0.33c0.172-0.481 0.422-0.868 0.752-1.164 0.333-0.299 0.716-0.515 1.148-0.649 0.433-0.137 0.888-0.206 1.365-0.206 0.316 0 0.65 0.038 1.004 0.113 0.357 0.072 0.69 0.206 0.999 0.402 0.312 0.196 0.568 0.475 0.767 0.839 0.199 0.36 0.298 0.829 0.298 1.406v5.252h-1.503v-1.081h-0.062c-0.099 0.199-0.249 0.395-0.447 0.587s-0.455 0.352-0.768 0.479c-0.312 0.127-0.686 0.191-1.122 0.191zM155.41 20.189c0.426 0 0.79-0.084 1.091-0.252 0.306-0.168 0.538-0.388 0.695-0.659 0.162-0.275 0.242-0.568 0.242-0.88v-1.020c-0.055 0.055-0.162 0.106-0.319 0.154-0.155 0.045-0.331 0.084-0.53 0.118-0.199 0.031-0.394 0.060-0.582 0.088-0.189 0.024-0.346 0.045-0.474 0.062-0.298 0.038-0.571 0.101-0.818 0.191-0.244 0.089-0.439 0.218-0.587 0.386-0.144 0.165-0.216 0.384-0.216 0.659 0 0.381 0.141 0.669 0.422 0.865 0.282 0.192 0.641 0.288 1.077 0.288z"></path>
<path fill="#fff" style="fill: var(--color2, #fff)" d="M162.569 10.705v10.545h-1.54v-10.545h1.54z"></path>
<path fill="#fff" style="fill: var(--color2, #fff)" d="M36.009 26.091h-0.488c-0.019-0.104-0.054-0.196-0.105-0.275s-0.114-0.146-0.188-0.202c-0.074-0.055-0.157-0.097-0.248-0.125s-0.187-0.042-0.289-0.042c-0.184 0-0.349 0.046-0.495 0.139-0.145 0.093-0.259 0.229-0.344 0.408-0.083 0.179-0.125 0.398-0.125 0.656 0 0.26 0.042 0.48 0.125 0.659 0.084 0.179 0.2 0.315 0.345 0.406s0.31 0.138 0.492 0.138c0.101 0 0.197-0.014 0.288-0.041 0.092-0.028 0.174-0.069 0.248-0.123s0.136-0.12 0.188-0.198c0.052-0.079 0.088-0.17 0.108-0.272l0.488 0.002c-0.026 0.157-0.077 0.302-0.152 0.434-0.074 0.131-0.169 0.245-0.286 0.341-0.116 0.095-0.248 0.168-0.397 0.22s-0.312 0.078-0.488 0.078c-0.277 0-0.524-0.066-0.741-0.197-0.217-0.132-0.388-0.321-0.512-0.567s-0.186-0.539-0.186-0.88c0-0.342 0.063-0.635 0.188-0.88 0.125-0.246 0.296-0.434 0.512-0.566 0.217-0.132 0.463-0.198 0.739-0.198 0.17 0 0.328 0.024 0.475 0.073 0.148 0.048 0.281 0.119 0.398 0.212 0.118 0.093 0.215 0.206 0.292 0.341s0.129 0.286 0.156 0.458z"></path>
<path fill="#fff" style="fill: var(--color2, #fff)" d="M39.367 26.65c0 0.342-0.062 0.635-0.188 0.881-0.125 0.245-0.296 0.433-0.514 0.566-0.217 0.131-0.463 0.197-0.739 0.197s-0.524-0.066-0.742-0.197c-0.217-0.132-0.388-0.321-0.512-0.567s-0.188-0.539-0.188-0.88c0-0.342 0.062-0.635 0.188-0.88 0.125-0.246 0.296-0.434 0.512-0.566 0.218-0.132 0.465-0.198 0.742-0.198s0.522 0.066 0.739 0.198c0.218 0.131 0.389 0.32 0.514 0.566 0.125 0.245 0.188 0.538 0.188 0.88zM38.889 26.65c0-0.26-0.042-0.48-0.127-0.658-0.083-0.179-0.198-0.315-0.344-0.406-0.145-0.093-0.309-0.139-0.492-0.139-0.184 0-0.349 0.046-0.494 0.139-0.145 0.092-0.259 0.227-0.344 0.406-0.083 0.178-0.125 0.397-0.125 0.658s0.042 0.48 0.125 0.659c0.084 0.178 0.199 0.314 0.344 0.406 0.145 0.092 0.309 0.138 0.494 0.138s0.347-0.046 0.492-0.138c0.146-0.093 0.26-0.228 0.344-0.406 0.084-0.179 0.127-0.399 0.127-0.659z"></path>
<path fill="#fff" style="fill: var(--color2, #fff)" d="M42.552 25.050v3.2h-0.444l-1.627-2.347h-0.030v2.347h-0.483v-3.2h0.447l1.628 2.35h0.030v-2.35h0.478z"></path>
<path fill="#fff" style="fill: var(--color2, #fff)" d="M45.001 25.891c-0.017-0.148-0.085-0.262-0.206-0.344-0.121-0.082-0.273-0.123-0.456-0.123-0.131 0-0.245 0.021-0.341 0.062-0.096 0.041-0.17 0.097-0.223 0.169-0.052 0.071-0.078 0.152-0.078 0.242 0 0.076 0.018 0.142 0.053 0.197 0.036 0.055 0.084 0.102 0.142 0.139 0.059 0.036 0.123 0.067 0.191 0.092 0.068 0.024 0.133 0.044 0.195 0.059l0.312 0.081c0.102 0.025 0.207 0.059 0.314 0.102s0.207 0.099 0.298 0.169c0.092 0.070 0.166 0.156 0.222 0.259 0.057 0.103 0.086 0.227 0.086 0.37 0 0.181-0.047 0.342-0.141 0.483-0.093 0.141-0.228 0.252-0.405 0.333-0.176 0.081-0.389 0.122-0.639 0.122-0.24 0-0.447-0.038-0.622-0.114s-0.312-0.184-0.411-0.323c-0.099-0.141-0.154-0.307-0.164-0.5h0.484c0.009 0.116 0.047 0.212 0.112 0.289 0.067 0.076 0.152 0.133 0.255 0.17 0.104 0.036 0.218 0.055 0.342 0.055 0.136 0 0.258-0.021 0.364-0.064 0.107-0.044 0.192-0.104 0.253-0.181 0.061-0.078 0.092-0.169 0.092-0.273 0-0.095-0.027-0.172-0.081-0.233-0.053-0.060-0.126-0.11-0.217-0.15-0.091-0.040-0.193-0.074-0.308-0.105l-0.378-0.103c-0.256-0.070-0.459-0.172-0.609-0.308-0.149-0.135-0.223-0.315-0.223-0.537 0-0.184 0.050-0.345 0.15-0.483s0.235-0.244 0.406-0.32c0.171-0.077 0.364-0.116 0.578-0.116 0.217 0 0.408 0.038 0.573 0.114 0.167 0.076 0.298 0.181 0.394 0.314 0.096 0.132 0.146 0.284 0.15 0.456h-0.466z"></path>
<path fill="#fff" style="fill: var(--color2, #fff)" d="M48.145 25.050h0.484v2.105c0 0.224-0.053 0.422-0.158 0.595-0.105 0.172-0.253 0.307-0.444 0.406-0.191 0.098-0.414 0.147-0.67 0.147-0.255 0-0.478-0.049-0.669-0.147-0.191-0.099-0.338-0.234-0.444-0.406-0.105-0.173-0.158-0.371-0.158-0.595v-2.105h0.483v2.066c0 0.145 0.032 0.273 0.095 0.386 0.065 0.112 0.156 0.201 0.273 0.266 0.118 0.064 0.257 0.095 0.419 0.095s0.303-0.032 0.42-0.095c0.119-0.065 0.209-0.153 0.272-0.266 0.064-0.113 0.095-0.241 0.095-0.386v-2.066z"></path>
<path fill="#fff" style="fill: var(--color2, #fff)" d="M49.332 28.25v-3.2h0.483v2.784h1.45v0.416h-1.933z"></path>
<path fill="#fff" style="fill: var(--color2, #fff)" d="M51.241 25.466v-0.416h2.477v0.416h-0.998v2.784h-0.481v-2.784h-0.997z"></path>
<path fill="#fff" style="fill: var(--color2, #fff)" d="M56.907 26.65c0 0.342-0.062 0.635-0.188 0.881-0.125 0.245-0.296 0.433-0.514 0.566-0.217 0.131-0.463 0.197-0.739 0.197s-0.524-0.066-0.742-0.197c-0.217-0.132-0.388-0.321-0.512-0.567s-0.188-0.539-0.188-0.88c0-0.342 0.062-0.635 0.188-0.88 0.125-0.246 0.296-0.434 0.512-0.566 0.218-0.132 0.465-0.198 0.742-0.198s0.522 0.066 0.739 0.198c0.218 0.131 0.389 0.32 0.514 0.566 0.125 0.245 0.188 0.538 0.188 0.88zM56.429 26.65c0-0.26-0.042-0.48-0.127-0.658-0.083-0.179-0.198-0.315-0.344-0.406-0.145-0.093-0.309-0.139-0.492-0.139s-0.349 0.046-0.494 0.139c-0.145 0.092-0.259 0.227-0.344 0.406-0.083 0.178-0.125 0.397-0.125 0.658s0.042 0.48 0.125 0.659c0.084 0.178 0.199 0.314 0.344 0.406 0.145 0.092 0.309 0.138 0.494 0.138s0.347-0.046 0.492-0.138c0.146-0.093 0.26-0.228 0.344-0.406 0.084-0.179 0.127-0.399 0.127-0.659z"></path>
<path fill="#fff" style="fill: var(--color2, #fff)" d="M57.509 28.25v-3.2h1.141c0.248 0 0.454 0.043 0.617 0.128 0.165 0.085 0.288 0.204 0.369 0.355 0.081 0.15 0.122 0.323 0.122 0.52 0 0.196-0.041 0.368-0.123 0.517-0.081 0.148-0.204 0.263-0.369 0.345s-0.369 0.123-0.617 0.123h-0.864v-0.416h0.82c0.156 0 0.283-0.022 0.381-0.067s0.171-0.11 0.217-0.195c0.046-0.085 0.069-0.188 0.069-0.308 0-0.121-0.023-0.226-0.070-0.314-0.046-0.088-0.118-0.156-0.217-0.203-0.098-0.048-0.227-0.072-0.386-0.072h-0.606v2.786h-0.483zM59.088 26.806l0.791 1.444h-0.55l-0.775-1.444h0.534z"></path>
<path fill="#fff" style="fill: var(--color2, #fff)" d="M60.827 25.050v3.2h-0.483v-3.2h0.483z"></path>
<path fill="#fff" style="fill: var(--color2, #fff)" d="M61.801 28.25h-0.512l1.152-3.2h0.558l1.152 3.2h-0.512l-0.905-2.619h-0.025l-0.906 2.619zM61.887 26.997h1.662v0.406h-1.662v-0.406z"></path>
<path fill="#fff" style="fill: var(--color2, #fff)" d="M66.046 28.25h-0.512l1.152-3.2h0.558l1.152 3.2h-0.513l-0.905-2.619h-0.025l-0.906 2.619zM66.132 26.997h1.663v0.406h-1.663v-0.406z"></path>
<path fill="#fff" style="fill: var(--color2, #fff)" d="M68.857 25.050h0.586l1.019 2.488h0.037l1.019-2.488h0.586v3.2h-0.459v-2.316h-0.030l-0.944 2.311h-0.381l-0.944-2.312h-0.030v2.317h-0.459v-3.2z"></path>
<path fill="#fff" style="fill: var(--color2, #fff)" d="M72.805 28.25v-3.2h1.172c0.227 0 0.415 0.038 0.564 0.112s0.26 0.174 0.334 0.302c0.074 0.126 0.111 0.268 0.111 0.427 0 0.133-0.024 0.246-0.073 0.338-0.049 0.091-0.115 0.164-0.197 0.219-0.081 0.054-0.171 0.094-0.269 0.119v0.031c0.106 0.005 0.21 0.040 0.311 0.103 0.102 0.062 0.186 0.152 0.253 0.267s0.1 0.256 0.1 0.422c0 0.164-0.039 0.31-0.116 0.441-0.076 0.129-0.194 0.232-0.353 0.308-0.159 0.075-0.363 0.112-0.611 0.112h-1.227zM73.288 27.836h0.697c0.231 0 0.397-0.045 0.497-0.134s0.15-0.202 0.15-0.336c0-0.101-0.025-0.194-0.077-0.278s-0.124-0.152-0.219-0.202c-0.094-0.050-0.205-0.075-0.334-0.075h-0.714v1.025zM73.288 26.434h0.647c0.108 0 0.206-0.021 0.292-0.063 0.088-0.042 0.157-0.1 0.208-0.175 0.052-0.076 0.078-0.166 0.078-0.269 0-0.132-0.046-0.243-0.139-0.333s-0.235-0.134-0.427-0.134h-0.659v0.973z"></path>
<path fill="#fff" style="fill: var(--color2, #fff)" d="M76.167 25.050v3.2h-0.483v-3.2h0.483z"></path>
<path fill="#fff" style="fill: var(--color2, #fff)" d="M76.87 28.25v-3.2h2.006v0.416h-1.523v0.975h1.419v0.414h-1.419v0.98h1.542v0.416h-2.025z"></path>
<path fill="#fff" style="fill: var(--color2, #fff)" d="M82.104 25.050v3.2h-0.443l-1.627-2.347h-0.030v2.347h-0.482v-3.2h0.447l1.628 2.35h0.030v-2.35h0.478z"></path>
<path fill="#fff" style="fill: var(--color2, #fff)" d="M82.65 25.466v-0.416h2.477v0.416h-0.998v2.784h-0.481v-2.784h-0.998z"></path>
<path fill="#fff" style="fill: var(--color2, #fff)" d="M85.567 28.25h-0.513l1.151-3.2h0.558l1.151 3.2h-0.513l-0.904-2.619h-0.026l-0.906 2.619zM85.653 26.997h1.662v0.406h-1.662v-0.406z"></path>
<path fill="#fff" style="fill: var(--color2, #fff)" d="M88.378 28.25v-3.2h0.482v2.784h1.45v0.416h-1.933z"></path>
<path fill="#fff" style="fill: var(--color2, #fff)" d="M92.026 28.25v-3.2h2.006v0.416h-1.524v0.975h1.419v0.414h-1.419v0.98h1.542v0.416h-2.025z"></path>
<path fill="#fff" style="fill: var(--color2, #fff)" d="M96.877 28.25h-1.036v-3.2h1.069c0.314 0 0.583 0.064 0.808 0.192s0.398 0.31 0.517 0.548c0.122 0.238 0.182 0.522 0.182 0.855 0 0.333-0.061 0.62-0.182 0.859s-0.296 0.424-0.526 0.553c-0.229 0.128-0.506 0.192-0.831 0.192zM96.324 27.828h0.526c0.244 0 0.446-0.046 0.608-0.138 0.162-0.093 0.282-0.227 0.362-0.402s0.12-0.391 0.12-0.644c0-0.251-0.040-0.464-0.12-0.639s-0.198-0.308-0.354-0.398c-0.158-0.091-0.353-0.136-0.586-0.136h-0.556v2.356z"></path>
<path fill="#fff" style="fill: var(--color2, #fff)" d="M99.017 28.25v-3.2h2.006v0.416h-1.523v0.975h1.418v0.414h-1.418v0.98h1.542v0.416h-2.025z"></path>
<path fill="#fff" style="fill: var(--color2, #fff)" d="M104.578 25.891c-0.017-0.148-0.086-0.262-0.206-0.344-0.121-0.082-0.273-0.123-0.456-0.123-0.131 0-0.245 0.021-0.341 0.062-0.096 0.041-0.17 0.097-0.224 0.169-0.052 0.071-0.078 0.152-0.078 0.242 0 0.076 0.018 0.142 0.053 0.197 0.037 0.055 0.084 0.102 0.142 0.139 0.059 0.036 0.123 0.067 0.19 0.092 0.068 0.024 0.133 0.044 0.195 0.059l0.313 0.081c0.102 0.025 0.206 0.059 0.314 0.102s0.206 0.099 0.298 0.169c0.091 0.070 0.166 0.156 0.222 0.259 0.058 0.103 0.086 0.227 0.086 0.37 0 0.181-0.046 0.342-0.14 0.483s-0.228 0.252-0.405 0.333c-0.176 0.081-0.39 0.122-0.639 0.122-0.24 0-0.447-0.038-0.622-0.114s-0.312-0.184-0.411-0.323c-0.099-0.141-0.154-0.307-0.164-0.5h0.484c0.010 0.116 0.047 0.212 0.113 0.289 0.066 0.076 0.151 0.133 0.254 0.17 0.105 0.036 0.218 0.055 0.342 0.055 0.137 0 0.258-0.021 0.364-0.064 0.107-0.044 0.192-0.104 0.254-0.181 0.061-0.078 0.092-0.169 0.092-0.273 0-0.095-0.027-0.172-0.082-0.233-0.053-0.060-0.126-0.11-0.217-0.15s-0.194-0.074-0.308-0.105l-0.378-0.103c-0.256-0.070-0.459-0.172-0.609-0.308s-0.224-0.315-0.224-0.537c0-0.184 0.050-0.345 0.15-0.483s0.235-0.244 0.406-0.32c0.17-0.077 0.363-0.116 0.578-0.116 0.217 0 0.408 0.038 0.574 0.114s0.298 0.181 0.394 0.314c0.096 0.132 0.146 0.284 0.15 0.456h-0.466z"></path>
<path fill="#fff" style="fill: var(--color2, #fff)" d="M105.664 28.25v-3.2h2.006v0.416h-1.523v0.975h1.419v0.414h-1.419v0.98h1.542v0.416h-2.025z"></path>
<path fill="#fff" style="fill: var(--color2, #fff)" d="M110.481 26.061c-0.030-0.095-0.071-0.18-0.122-0.255-0.050-0.076-0.11-0.141-0.179-0.194-0.070-0.054-0.15-0.095-0.239-0.123s-0.186-0.042-0.292-0.042c-0.181 0-0.343 0.046-0.488 0.139s-0.259 0.229-0.343 0.408c-0.084 0.178-0.126 0.396-0.126 0.655 0 0.259 0.042 0.479 0.126 0.658s0.2 0.315 0.347 0.408 0.314 0.139 0.502 0.139c0.174 0 0.326-0.035 0.454-0.106 0.13-0.071 0.231-0.171 0.302-0.3 0.072-0.13 0.108-0.283 0.108-0.459l0.125 0.023h-0.915v-0.398h1.258v0.364c0 0.269-0.058 0.502-0.172 0.7-0.114 0.197-0.27 0.349-0.472 0.456-0.2 0.107-0.429 0.161-0.687 0.161-0.29 0-0.544-0.067-0.762-0.2s-0.387-0.322-0.51-0.567c-0.122-0.246-0.182-0.538-0.182-0.875 0-0.255 0.035-0.484 0.106-0.688s0.17-0.376 0.299-0.517c0.129-0.143 0.28-0.252 0.454-0.327 0.175-0.076 0.366-0.114 0.574-0.114 0.173 0 0.334 0.026 0.482 0.077 0.15 0.051 0.283 0.123 0.4 0.217s0.215 0.205 0.292 0.334c0.078 0.128 0.13 0.27 0.157 0.427h-0.495z"></path>
<path fill="#fff" style="fill: var(--color2, #fff)" d="M113.668 25.050h0.485v2.105c0 0.224-0.053 0.422-0.158 0.595-0.106 0.172-0.254 0.307-0.444 0.406-0.19 0.098-0.414 0.147-0.67 0.147s-0.478-0.049-0.669-0.147c-0.19-0.099-0.338-0.234-0.444-0.406-0.105-0.173-0.158-0.371-0.158-0.595v-2.105h0.483v2.066c0 0.145 0.031 0.273 0.095 0.386s0.156 0.201 0.274 0.266c0.118 0.064 0.257 0.095 0.418 0.095s0.302-0.032 0.42-0.095c0.119-0.065 0.21-0.153 0.272-0.266 0.064-0.113 0.095-0.241 0.095-0.386v-2.066z"></path>
<path fill="#fff" style="fill: var(--color2, #fff)" d="M114.854 28.25v-3.2h1.141c0.248 0 0.454 0.043 0.618 0.128s0.287 0.204 0.369 0.355c0.081 0.15 0.122 0.323 0.122 0.52 0 0.196-0.042 0.368-0.123 0.517-0.082 0.148-0.205 0.263-0.369 0.345s-0.37 0.123-0.618 0.123h-0.864v-0.416h0.821c0.156 0 0.283-0.022 0.381-0.067 0.099-0.045 0.171-0.11 0.218-0.195s0.069-0.188 0.069-0.308c0-0.121-0.024-0.226-0.070-0.314s-0.118-0.156-0.218-0.203c-0.098-0.048-0.226-0.072-0.386-0.072h-0.606v2.786h-0.483zM116.434 26.806l0.79 1.444h-0.55l-0.775-1.444h0.534z"></path>
<path fill="#fff" style="fill: var(--color2, #fff)" d="M117.961 28.25h-0.512l1.151-3.2h0.558l1.152 3.2h-0.513l-0.905-2.619h-0.025l-0.906 2.619zM118.047 26.997h1.662v0.406h-1.662v-0.406z"></path>
<path fill="#fff" style="fill: var(--color2, #fff)" d="M123.354 25.050v3.2h-0.444l-1.626-2.347h-0.030v2.347h-0.483v-3.2h0.447l1.628 2.35h0.030v-2.35h0.478z"></path>
<path fill="#fff" style="fill: var(--color2, #fff)" d="M126.717 26.091h-0.488c-0.018-0.104-0.054-0.196-0.105-0.275s-0.114-0.146-0.187-0.202c-0.074-0.055-0.157-0.097-0.249-0.125-0.090-0.028-0.186-0.042-0.289-0.042-0.184 0-0.35 0.046-0.495 0.139s-0.259 0.229-0.344 0.408c-0.083 0.179-0.125 0.398-0.125 0.656 0 0.26 0.042 0.48 0.125 0.659 0.085 0.179 0.2 0.315 0.346 0.406s0.31 0.138 0.492 0.138c0.101 0 0.197-0.014 0.287-0.041 0.092-0.028 0.175-0.069 0.249-0.123s0.137-0.12 0.187-0.198c0.052-0.079 0.088-0.17 0.108-0.272l0.488 0.002c-0.026 0.157-0.077 0.302-0.152 0.434-0.074 0.131-0.17 0.245-0.286 0.341-0.116 0.095-0.248 0.168-0.397 0.22s-0.312 0.078-0.488 0.078c-0.277 0-0.524-0.066-0.741-0.197-0.216-0.132-0.387-0.321-0.512-0.567s-0.186-0.539-0.186-0.88c0-0.342 0.062-0.635 0.188-0.88 0.125-0.246 0.296-0.434 0.512-0.566 0.217-0.132 0.463-0.198 0.739-0.198 0.17 0 0.328 0.024 0.475 0.073 0.148 0.048 0.281 0.119 0.398 0.212 0.118 0.093 0.215 0.206 0.292 0.341s0.13 0.286 0.157 0.458zM125.23 28.255h0.306l-0.025 0.128c0.090 0.015 0.17 0.051 0.238 0.109s0.102 0.146 0.102 0.264c0.001 0.141-0.060 0.255-0.183 0.342-0.122 0.088-0.298 0.131-0.53 0.131l-0.010-0.261c0.109 0 0.196-0.016 0.262-0.047 0.068-0.031 0.102-0.082 0.103-0.152s-0.025-0.119-0.078-0.147c-0.053-0.028-0.136-0.048-0.25-0.059l0.064-0.309z"></path>
<path fill="#fff" style="fill: var(--color2, #fff)" d="M127.543 28.25h-0.513l1.152-3.2h0.558l1.151 3.2h-0.512l-0.905-2.619h-0.025l-0.906 2.619zM127.629 26.997h1.662v0.406h-1.662v-0.406z"></path>
<path fill="#fff" style="fill: var(--color2, #fff)" d="M132.554 28.25h-1.036v-3.2h1.069c0.314 0 0.583 0.064 0.808 0.192s0.398 0.31 0.518 0.548c0.121 0.238 0.181 0.522 0.181 0.855 0 0.333-0.061 0.62-0.182 0.859s-0.296 0.424-0.526 0.553c-0.229 0.128-0.506 0.192-0.831 0.192zM132.001 27.828h0.526c0.244 0 0.446-0.046 0.608-0.138 0.162-0.093 0.282-0.227 0.362-0.402s0.12-0.391 0.12-0.644c0-0.251-0.040-0.464-0.12-0.639s-0.198-0.308-0.354-0.398c-0.158-0.091-0.353-0.136-0.586-0.136h-0.556v2.356z"></path>
<path fill="#fff" style="fill: var(--color2, #fff)" d="M137.473 26.65c0 0.342-0.062 0.635-0.187 0.881-0.125 0.245-0.296 0.433-0.514 0.566-0.216 0.131-0.462 0.197-0.738 0.197-0.278 0-0.525-0.066-0.742-0.197-0.217-0.132-0.388-0.321-0.513-0.567s-0.187-0.539-0.187-0.88c0-0.342 0.062-0.635 0.187-0.88 0.125-0.246 0.296-0.434 0.513-0.566 0.218-0.132 0.465-0.198 0.742-0.198 0.276 0 0.522 0.066 0.738 0.198 0.218 0.131 0.39 0.32 0.514 0.566 0.125 0.245 0.187 0.538 0.187 0.88zM136.995 26.65c0-0.26-0.042-0.48-0.127-0.658-0.083-0.179-0.198-0.315-0.343-0.406-0.145-0.093-0.309-0.139-0.492-0.139-0.185 0-0.35 0.046-0.494 0.139-0.145 0.092-0.259 0.227-0.343 0.406s-0.126 0.397-0.126 0.658 0.042 0.48 0.126 0.659c0.084 0.178 0.198 0.314 0.343 0.406 0.145 0.092 0.31 0.138 0.494 0.138 0.183 0 0.347-0.046 0.492-0.138 0.146-0.093 0.26-0.228 0.343-0.406 0.085-0.179 0.127-0.399 0.127-0.659z"></path>
<path fill="#fff" style="fill: var(--color2, #fff)" d="M139.082 25.466v-0.416h2.477v0.416h-0.998v2.784h-0.482v-2.784h-0.997z"></path>
<path fill="#fff" style="fill: var(--color2, #fff)" d="M142.106 28.25v-3.2h1.141c0.248 0 0.454 0.043 0.617 0.128 0.165 0.085 0.288 0.204 0.369 0.355 0.082 0.15 0.122 0.323 0.122 0.52 0 0.196-0.041 0.368-0.123 0.517-0.081 0.148-0.204 0.263-0.369 0.345-0.163 0.082-0.369 0.123-0.617 0.123h-0.864v-0.416h0.82c0.156 0 0.283-0.022 0.382-0.067s0.171-0.11 0.217-0.195c0.046-0.085 0.069-0.188 0.069-0.308 0-0.121-0.023-0.226-0.070-0.314-0.046-0.088-0.118-0.156-0.217-0.203-0.098-0.048-0.227-0.072-0.386-0.072h-0.606v2.786h-0.482zM143.685 26.806l0.791 1.444h-0.55l-0.774-1.444h0.534z"></path>
<path fill="#fff" style="fill: var(--color2, #fff)" d="M145.212 28.25h-0.513l1.152-3.2h0.558l1.151 3.2h-0.512l-0.905-2.619h-0.026l-0.906 2.619zM145.298 26.997h1.662v0.406h-1.662v-0.406z"></path>
<path fill="#fff" style="fill: var(--color2, #fff)" d="M148.022 28.25v-3.2h1.172c0.227 0 0.415 0.038 0.564 0.112s0.26 0.174 0.334 0.302c0.074 0.126 0.11 0.268 0.11 0.427 0 0.133-0.024 0.246-0.073 0.338-0.050 0.091-0.115 0.164-0.197 0.219-0.082 0.054-0.171 0.094-0.269 0.119v0.031c0.106 0.005 0.21 0.040 0.31 0.103 0.102 0.062 0.186 0.152 0.254 0.267s0.1 0.256 0.1 0.422c0 0.164-0.038 0.31-0.116 0.441-0.076 0.129-0.194 0.232-0.353 0.308-0.159 0.075-0.363 0.112-0.611 0.112h-1.226zM148.505 27.836h0.697c0.232 0 0.398-0.045 0.498-0.134s0.15-0.202 0.15-0.336c0-0.101-0.026-0.194-0.077-0.278s-0.124-0.152-0.218-0.202c-0.094-0.050-0.206-0.075-0.334-0.075h-0.714v1.025zM148.505 26.434h0.647c0.108 0 0.206-0.021 0.292-0.063 0.088-0.042 0.157-0.1 0.208-0.175 0.052-0.076 0.078-0.166 0.078-0.269 0-0.132-0.046-0.243-0.139-0.333s-0.235-0.134-0.426-0.134h-0.66v0.973z"></path>
<path fill="#fff" style="fill: var(--color2, #fff)" d="M151.171 28.25h-0.512l1.151-3.2h0.558l1.152 3.2h-0.513l-0.905-2.619h-0.025l-0.906 2.619zM151.258 26.997h1.662v0.406h-1.662v-0.406z"></path>
<path fill="#fff" style="fill: var(--color2, #fff)" d="M153.982 28.25v-3.2h0.482v2.784h1.45v0.416h-1.933z"></path>
<path fill="#fff" style="fill: var(--color2, #fff)" d="M156.466 28.25v-3.2h0.483v1.391h1.595v-1.391h0.484v3.2h-0.484v-1.395h-1.595v1.395h-0.483z"></path>
<path fill="#fff" style="fill: var(--color2, #fff)" d="M162.511 26.65c0 0.342-0.062 0.635-0.188 0.881-0.125 0.245-0.296 0.433-0.514 0.566-0.217 0.131-0.463 0.197-0.739 0.197s-0.525-0.066-0.742-0.197c-0.217-0.132-0.387-0.321-0.512-0.567s-0.188-0.539-0.188-0.88c0-0.342 0.062-0.635 0.188-0.88 0.125-0.246 0.295-0.434 0.512-0.566 0.218-0.132 0.466-0.198 0.742-0.198s0.522 0.066 0.739 0.198c0.218 0.131 0.389 0.32 0.514 0.566 0.126 0.245 0.188 0.538 0.188 0.88zM162.033 26.65c0-0.26-0.042-0.48-0.126-0.658s-0.198-0.315-0.344-0.406c-0.145-0.093-0.309-0.139-0.492-0.139-0.185 0-0.349 0.046-0.494 0.139-0.145 0.092-0.259 0.227-0.344 0.406-0.083 0.178-0.125 0.397-0.125 0.658s0.042 0.48 0.125 0.659c0.085 0.178 0.199 0.314 0.344 0.406 0.145 0.092 0.309 0.138 0.494 0.138 0.183 0 0.347-0.046 0.492-0.138 0.146-0.093 0.261-0.228 0.344-0.406s0.126-0.399 0.126-0.659z"></path>
</symbol>
<symbol id="icon-logotipo" viewBox="0 0 163 32">
<path fill="#00ada8" style="fill: var(--color1, #00ada8)" d="M8.199 25.355l2.453-2.457 3.917 3.917 8.734-8.738-3.914-3.913 2.457-2.457 6.642 6.645-13.648 13.648-6.642-6.645z"></path>
<path fill="#9d9c9c" style="fill: var(--color3, #9d9c9c)" d="M6.645 23.801l2.453-2.453-3.913-3.917 8.738-8.734 3.913 3.914 2.457-2.457-6.645-6.642-13.648 13.648 6.645 6.642z"></path>
<path fill="#00ada8" style="fill: var(--color1, #00ada8)" d="M11.146 0.079h-3.537v3.537h3.537v-3.537z"></path>
<path fill="#00ada8" style="fill: var(--color1, #00ada8)" d="M7.484 3.737h-3.349v3.473h3.349v-3.473z"></path>
<path fill="#00ada8" style="fill: var(--color1, #00ada8)" d="M4.011 7.274h-2.141v2.126h2.141v-2.126z"></path>
<path fill="#00ada8" style="fill: var(--color1, #00ada8)" d="M1.731 6.002h-1.148v1.193h1.148v-1.193z"></path>
<path fill="#00ada8" style="fill: var(--color1, #00ada8)" d="M3.996 1.52h-2.186v2.107h2.186v-2.107z"></path>
<path fill="#00ada8" style="fill: var(--color1, #00ada8)" d="M5.531 0h-1.434v1.464h1.434v-1.464z"></path>
<path fill="#00ada8" style="fill: var(--color1, #00ada8)" d="M1.746 0.177h-1.193v1.272h1.193v-1.272z"></path>
<path fill="#00ada8" style="fill: var(--color1, #00ada8)" d="M14.627 17.257c2.235 1.84 3.364-0.376 2.34-0.869 1.261-0.485 1.242-2.13-0.113-2.134 0.674-1.084-0.674-2.352-1.855-1.648-0.948-1.159-2.879-0.542-2.6 0.775-1.784-0.079-2.021 1.795-0.937 2.536-0.828 1.558 0.79 2.405 1.881 2.115 0.117-1.261 0.753-2.525 2.032-3.797-0.516 0.853-0.88 1.789-1.076 2.766l0.327 0.256z"></path>
<path fill="#b2b2b2" style="fill: var(--color4, #b2b2b2)" d="M15.375 14.235c-2.811 2.841-2.634 5.644-0.094 8.422-1.471-2.807-1.577-5.614 0.094-8.422z"></path>
<path fill="#9d9c9c" style="fill: var(--color3, #9d9c9c)" d="M9.483 18.536l1.806-0.045c0.339 3.676 5.742 4.079 6.13-0.275l1.814-0.056c0 0.448-0.045 1.611-0.32 2.032l-0.963-0.090-0.263 0.504 0.576 0.753c-0.078 0.219-0.199 0.419-0.357 0.59s-0.349 0.306-0.561 0.4l-0.692-0.602-0.542 0.316 0.136 1.035c-0.389 0.192-0.816 0.297-1.249 0.309l-0.32-0.96h-0.617c-0.051 0.328-0.171 0.641-0.354 0.918-0.415 0.004-0.825-0.090-1.197-0.275l0.102-1.031-0.467-0.275-0.809 0.602c-0.364-0.236-0.659-0.563-0.858-0.948l0.568-0.79-0.29-0.489-0.952 0.102c-0.203-0.548-0.312-1.127-0.32-1.712z"></path>
<path fill="#9d9c9c" style="fill: var(--color3, #9d9c9c)" d="M41.167 14.134h-1.606c-0.062-0.343-0.177-0.645-0.345-0.906s-0.374-0.482-0.618-0.664c-0.244-0.182-0.517-0.319-0.819-0.412-0.299-0.093-0.616-0.139-0.953-0.139-0.608 0-1.152 0.153-1.632 0.458-0.477 0.306-0.855 0.754-1.133 1.344-0.275 0.59-0.412 1.311-0.412 2.163 0 0.858 0.137 1.582 0.412 2.173 0.278 0.59 0.657 1.037 1.138 1.339s1.021 0.453 1.622 0.453c0.333 0 0.649-0.045 0.947-0.134 0.302-0.093 0.575-0.228 0.819-0.407s0.45-0.396 0.618-0.654c0.172-0.261 0.29-0.56 0.355-0.896l1.606 0.005c-0.086 0.518-0.252 0.996-0.499 1.431-0.244 0.433-0.558 0.807-0.942 1.123-0.381 0.312-0.817 0.554-1.308 0.726s-1.026 0.257-1.607 0.257c-0.913 0-1.727-0.216-2.441-0.649-0.714-0.436-1.277-1.059-1.689-1.869-0.409-0.81-0.613-1.776-0.613-2.899 0-1.126 0.206-2.092 0.618-2.899 0.412-0.81 0.975-1.431 1.689-1.864 0.714-0.436 1.526-0.654 2.436-0.654 0.56 0 1.081 0.081 1.565 0.242 0.487 0.158 0.925 0.391 1.313 0.7 0.388 0.306 0.709 0.68 0.963 1.123 0.254 0.439 0.426 0.942 0.515 1.509z"></path>
<path fill="#9d9c9c" style="fill: var(--color3, #9d9c9c)" d="M46.279 21.41c-0.742 0-1.389-0.17-1.941-0.51s-0.982-0.815-1.287-1.426c-0.306-0.611-0.458-1.325-0.458-2.142 0-0.82 0.153-1.538 0.458-2.152s0.735-1.092 1.287-1.432c0.553-0.34 1.2-0.51 1.941-0.51s1.389 0.17 1.941 0.51c0.553 0.34 0.982 0.817 1.287 1.432s0.458 1.332 0.458 2.152c0 0.817-0.153 1.531-0.458 2.142s-0.735 1.086-1.287 1.426c-0.553 0.34-1.2 0.51-1.941 0.51zM46.284 20.117c0.481 0 0.879-0.127 1.195-0.381s0.549-0.592 0.7-1.014c0.154-0.422 0.232-0.887 0.232-1.395 0-0.505-0.077-0.968-0.232-1.39-0.151-0.426-0.384-0.767-0.7-1.025s-0.714-0.386-1.195-0.386c-0.484 0-0.886 0.129-1.205 0.386-0.316 0.257-0.551 0.599-0.705 1.025-0.151 0.422-0.227 0.886-0.227 1.39 0 0.508 0.076 0.973 0.227 1.395 0.154 0.422 0.39 0.76 0.705 1.014 0.319 0.254 0.721 0.381 1.205 0.381z"></path>
<path fill="#9d9c9c" style="fill: var(--color3, #9d9c9c)" d="M53.224 16.554v4.696h-1.54v-7.909h1.478v1.287h0.098c0.182-0.419 0.467-0.755 0.855-1.009 0.391-0.254 0.884-0.381 1.478-0.381 0.539 0 1.011 0.113 1.416 0.34 0.405 0.223 0.719 0.556 0.942 0.999s0.335 0.99 0.335 1.643v5.031h-1.54v-4.845c0-0.573-0.149-1.021-0.448-1.344-0.299-0.326-0.709-0.489-1.231-0.489-0.357 0-0.675 0.077-0.953 0.232-0.275 0.154-0.493 0.381-0.654 0.68-0.158 0.295-0.237 0.652-0.237 1.071z"></path>
<path fill="#9d9c9c" style="fill: var(--color3, #9d9c9c)" d="M60.659 10.705l2.935 8.589h0.118l2.935-8.589h1.72l-3.795 10.545h-1.838l-3.795-10.545h1.72z"></path>
<path fill="#9d9c9c" style="fill: var(--color3, #9d9c9c)" d="M69.767 21.25v-7.909h1.54v7.909h-1.54zM70.544 12.121c-0.268 0-0.498-0.089-0.69-0.268-0.189-0.182-0.283-0.398-0.283-0.649 0-0.254 0.094-0.47 0.283-0.649 0.192-0.182 0.422-0.273 0.69-0.273s0.496 0.091 0.685 0.273c0.192 0.179 0.288 0.395 0.288 0.649 0 0.251-0.096 0.467-0.288 0.649-0.189 0.178-0.417 0.268-0.685 0.268z"></path>
<path fill="#9d9c9c" style="fill: var(--color3, #9d9c9c)" d="M76.339 21.404c-0.638 0-1.208-0.163-1.71-0.489-0.498-0.33-0.889-0.798-1.174-1.406-0.282-0.611-0.422-1.344-0.422-2.199s0.142-1.586 0.427-2.194c0.288-0.608 0.683-1.073 1.184-1.395s1.069-0.484 1.704-0.484c0.491 0 0.886 0.082 1.184 0.247 0.302 0.161 0.536 0.35 0.7 0.566 0.168 0.216 0.299 0.407 0.391 0.572h0.093v-3.918h1.539v10.545h-1.503v-1.231h-0.129c-0.093 0.168-0.227 0.36-0.402 0.577-0.172 0.216-0.408 0.405-0.711 0.566s-0.693 0.242-1.174 0.242zM76.678 20.091c0.443 0 0.817-0.117 1.122-0.35 0.309-0.237 0.542-0.565 0.7-0.983 0.161-0.419 0.242-0.906 0.242-1.462 0-0.549-0.079-1.030-0.237-1.442s-0.39-0.733-0.695-0.963c-0.306-0.23-0.683-0.345-1.133-0.345-0.463 0-0.85 0.12-1.159 0.36s-0.542 0.568-0.7 0.984c-0.154 0.415-0.232 0.884-0.232 1.406 0 0.529 0.079 1.004 0.237 1.426s0.391 0.757 0.7 1.004c0.312 0.244 0.697 0.366 1.153 0.366z"></path>
<path fill="#9d9c9c" style="fill: var(--color3, #9d9c9c)" d="M84.756 21.425c-0.501 0-0.954-0.093-1.359-0.278-0.405-0.189-0.726-0.462-0.963-0.819-0.233-0.357-0.35-0.795-0.35-1.313 0-0.446 0.086-0.814 0.257-1.102s0.404-0.517 0.695-0.685c0.292-0.168 0.618-0.295 0.978-0.381s0.728-0.151 1.102-0.196c0.474-0.055 0.858-0.1 1.153-0.134 0.295-0.038 0.51-0.098 0.644-0.18s0.201-0.216 0.201-0.402v-0.036c0-0.45-0.127-0.798-0.381-1.045-0.25-0.247-0.625-0.371-1.122-0.371-0.518 0-0.927 0.115-1.226 0.345-0.295 0.227-0.5 0.479-0.613 0.757l-1.447-0.33c0.172-0.481 0.422-0.868 0.752-1.164 0.333-0.299 0.716-0.515 1.148-0.649 0.433-0.137 0.887-0.206 1.365-0.206 0.316 0 0.65 0.038 1.004 0.113 0.357 0.072 0.69 0.206 0.999 0.402 0.312 0.196 0.568 0.475 0.767 0.839 0.199 0.36 0.298 0.829 0.298 1.406v5.252h-1.503v-1.081h-0.062c-0.099 0.199-0.249 0.395-0.448 0.587s-0.454 0.352-0.767 0.479c-0.312 0.127-0.686 0.191-1.122 0.191zM85.091 20.189c0.426 0 0.789-0.084 1.091-0.252 0.306-0.168 0.538-0.388 0.695-0.659 0.162-0.275 0.242-0.568 0.242-0.881v-1.020c-0.054 0.055-0.161 0.106-0.319 0.154-0.154 0.045-0.331 0.084-0.53 0.118-0.198 0.031-0.393 0.060-0.582 0.088-0.189 0.024-0.346 0.045-0.474 0.062-0.298 0.038-0.571 0.101-0.818 0.191-0.244 0.089-0.44 0.218-0.587 0.386-0.144 0.165-0.216 0.384-0.216 0.659 0 0.381 0.14 0.669 0.422 0.865 0.282 0.192 0.641 0.288 1.077 0.288z"></path>
<path fill="#9d9c9c" style="fill: var(--color3, #9d9c9c)" d="M95.562 21.25h-1.689l3.795-10.545h1.838l3.795 10.545h-1.689l-2.982-8.63h-0.082l-2.986 8.63zM95.845 17.12h5.478v1.339h-5.478v-1.339z"></path>
<path fill="#9d9c9c" style="fill: var(--color3, #9d9c9c)" d="M104.7 21.25v-7.909h1.478v1.287h0.098c0.165-0.436 0.434-0.776 0.808-1.020 0.374-0.247 0.822-0.371 1.344-0.371 0.529 0 0.971 0.124 1.329 0.371 0.36 0.247 0.626 0.587 0.798 1.020h0.082c0.189-0.422 0.49-0.759 0.902-1.009 0.412-0.254 0.902-0.381 1.472-0.381 0.718 0 1.303 0.225 1.756 0.675 0.457 0.45 0.685 1.128 0.685 2.034v5.304h-1.539v-5.159c0-0.536-0.146-0.923-0.438-1.164s-0.641-0.36-1.046-0.36c-0.501 0-0.89 0.154-1.169 0.463-0.278 0.306-0.417 0.699-0.417 1.179v5.041h-1.534v-5.257c0-0.429-0.134-0.774-0.402-1.035s-0.617-0.391-1.046-0.391c-0.292 0-0.562 0.077-0.808 0.232-0.244 0.151-0.442 0.362-0.593 0.633-0.147 0.271-0.221 0.585-0.221 0.942v4.876h-1.54z"></path>
<path fill="#9d9c9c" style="fill: var(--color3, #9d9c9c)" d="M117.638 21.25v-10.545h1.54v3.918h0.093c0.089-0.165 0.218-0.355 0.386-0.572s0.402-0.405 0.701-0.566c0.298-0.165 0.693-0.247 1.184-0.247 0.638 0 1.208 0.161 1.71 0.484s0.894 0.788 1.179 1.395c0.288 0.608 0.433 1.339 0.433 2.194s-0.143 1.588-0.428 2.199c-0.285 0.608-0.676 1.076-1.174 1.406-0.498 0.326-1.066 0.489-1.705 0.489-0.48 0-0.874-0.081-1.179-0.242-0.302-0.161-0.538-0.35-0.71-0.566s-0.304-0.408-0.396-0.577h-0.129v1.231h-1.504zM119.147 17.295c0 0.556 0.081 1.044 0.242 1.462s0.394 0.747 0.7 0.983c0.306 0.233 0.68 0.35 1.122 0.35 0.46 0 0.845-0.122 1.154-0.366 0.309-0.247 0.542-0.582 0.7-1.004 0.162-0.422 0.242-0.898 0.242-1.426 0-0.522-0.079-0.99-0.237-1.406-0.154-0.415-0.388-0.743-0.701-0.984-0.309-0.24-0.695-0.36-1.158-0.36-0.446 0-0.824 0.115-1.133 0.345-0.306 0.23-0.537 0.551-0.695 0.963s-0.237 0.893-0.237 1.442z"></path>
<path fill="#9d9c9c" style="fill: var(--color3, #9d9c9c)" d="M126.592 21.25v-7.909h1.539v7.909h-1.539zM127.369 12.121c-0.267 0-0.498-0.089-0.69-0.268-0.189-0.182-0.283-0.398-0.283-0.649 0-0.254 0.094-0.47 0.283-0.649 0.192-0.182 0.422-0.273 0.69-0.273s0.497 0.091 0.686 0.273c0.192 0.179 0.288 0.395 0.288 0.649 0 0.251-0.096 0.467-0.288 0.649-0.189 0.178-0.418 0.268-0.686 0.268z"></path>
<path fill="#9d9c9c" style="fill: var(--color3, #9d9c9c)" d="M133.611 21.41c-0.779 0-1.45-0.166-2.014-0.499-0.559-0.336-0.992-0.808-1.298-1.416-0.302-0.611-0.453-1.327-0.453-2.147 0-0.81 0.151-1.524 0.453-2.142 0.306-0.618 0.731-1.1 1.278-1.447 0.549-0.347 1.191-0.52 1.926-0.52 0.446 0 0.878 0.074 1.298 0.221s0.794 0.379 1.127 0.695c0.334 0.316 0.596 0.726 0.788 1.231 0.193 0.501 0.289 1.11 0.289 1.828v0.546h-6.287v-1.153h4.778c0-0.405-0.082-0.764-0.247-1.076-0.165-0.316-0.397-0.565-0.695-0.747-0.295-0.182-0.642-0.273-1.040-0.273-0.433 0-0.81 0.106-1.133 0.319-0.319 0.209-0.566 0.484-0.742 0.824-0.172 0.336-0.258 0.702-0.258 1.097v0.901c0 0.529 0.093 0.978 0.278 1.349 0.189 0.371 0.451 0.654 0.787 0.85 0.337 0.192 0.73 0.288 1.179 0.288 0.292 0 0.558-0.041 0.798-0.124 0.24-0.086 0.448-0.213 0.623-0.381s0.309-0.376 0.402-0.623l1.457 0.263c-0.117 0.429-0.326 0.805-0.628 1.128-0.298 0.319-0.674 0.568-1.127 0.747-0.45 0.175-0.963 0.263-1.54 0.263z"></path>
<path fill="#9d9c9c" style="fill: var(--color3, #9d9c9c)" d="M140.252 16.554v4.696h-1.539v-7.909h1.478v1.287h0.098c0.182-0.419 0.467-0.755 0.855-1.009 0.391-0.254 0.884-0.381 1.478-0.381 0.539 0 1.011 0.113 1.416 0.34 0.406 0.223 0.719 0.556 0.942 0.999s0.334 0.99 0.334 1.643v5.031h-1.539v-4.845c0-0.573-0.15-1.021-0.448-1.344-0.298-0.326-0.709-0.489-1.23-0.489-0.358 0-0.674 0.077-0.953 0.232-0.274 0.154-0.493 0.381-0.654 0.68-0.158 0.295-0.238 0.652-0.238 1.071z"></path>
<path fill="#9d9c9c" style="fill: var(--color3, #9d9c9c)" d="M151.070 13.341v1.236h-4.32v-1.236h4.32zM147.909 11.446h1.54v7.482c0 0.299 0.045 0.524 0.134 0.675 0.090 0.148 0.205 0.249 0.346 0.304 0.144 0.052 0.3 0.077 0.468 0.077 0.124 0 0.232-0.009 0.325-0.026s0.165-0.031 0.216-0.041l0.278 1.272c-0.090 0.034-0.217 0.069-0.382 0.103-0.165 0.038-0.37 0.058-0.618 0.062-0.405 0.007-0.782-0.065-1.133-0.216s-0.634-0.384-0.85-0.7c-0.216-0.316-0.325-0.712-0.325-1.19v-7.801z"></path>
<path fill="#9d9c9c" style="fill: var(--color3, #9d9c9c)" d="M155.075 21.425c-0.501 0-0.954-0.093-1.359-0.278-0.405-0.189-0.726-0.462-0.963-0.819-0.233-0.357-0.35-0.795-0.35-1.313 0-0.446 0.086-0.814 0.258-1.102s0.403-0.517 0.695-0.685c0.291-0.168 0.618-0.295 0.978-0.381s0.728-0.151 1.102-0.196c0.474-0.055 0.858-0.1 1.154-0.134 0.295-0.038 0.51-0.098 0.643-0.18s0.201-0.216 0.201-0.402v-0.036c0-0.45-0.127-0.798-0.381-1.045-0.25-0.247-0.625-0.371-1.122-0.371-0.518 0-0.927 0.115-1.226 0.345-0.295 0.227-0.499 0.479-0.613 0.757l-1.447-0.33c0.172-0.481 0.422-0.868 0.752-1.164 0.333-0.299 0.716-0.515 1.148-0.649 0.433-0.137 0.888-0.206 1.365-0.206 0.316 0 0.65 0.038 1.004 0.113 0.357 0.072 0.69 0.206 0.999 0.402 0.312 0.196 0.568 0.475 0.767 0.839 0.199 0.36 0.298 0.829 0.298 1.406v5.252h-1.503v-1.081h-0.062c-0.099 0.199-0.249 0.395-0.448 0.587s-0.454 0.352-0.767 0.479c-0.312 0.127-0.686 0.191-1.122 0.191zM155.41 20.189c0.426 0 0.79-0.084 1.091-0.252 0.306-0.168 0.538-0.388 0.695-0.659 0.162-0.275 0.242-0.568 0.242-0.881v-1.020c-0.055 0.055-0.162 0.106-0.319 0.154-0.155 0.045-0.331 0.084-0.53 0.118-0.199 0.031-0.394 0.060-0.582 0.088-0.189 0.024-0.346 0.045-0.474 0.062-0.298 0.038-0.571 0.101-0.818 0.191-0.244 0.089-0.439 0.218-0.587 0.386-0.144 0.165-0.216 0.384-0.216 0.659 0 0.381 0.141 0.669 0.422 0.865 0.282 0.192 0.641 0.288 1.077 0.288z"></path>
<path fill="#9d9c9c" style="fill: var(--color3, #9d9c9c)" d="M162.569 10.705v10.545h-1.54v-10.545h1.54z"></path>
<path fill="#00ada8" style="fill: var(--color1, #00ada8)" d="M36.009 26.091h-0.488c-0.019-0.104-0.054-0.196-0.105-0.275s-0.114-0.146-0.188-0.202c-0.074-0.055-0.157-0.097-0.248-0.125s-0.187-0.042-0.289-0.042c-0.184 0-0.349 0.046-0.495 0.139-0.145 0.093-0.259 0.229-0.344 0.408-0.083 0.179-0.125 0.398-0.125 0.656 0 0.26 0.042 0.48 0.125 0.659 0.084 0.179 0.2 0.315 0.345 0.406s0.31 0.138 0.492 0.138c0.101 0 0.197-0.014 0.288-0.041 0.092-0.028 0.174-0.069 0.248-0.123s0.136-0.12 0.188-0.198c0.052-0.079 0.088-0.17 0.108-0.272l0.488 0.002c-0.026 0.157-0.077 0.302-0.152 0.434-0.074 0.131-0.169 0.245-0.286 0.341-0.116 0.095-0.248 0.168-0.397 0.22s-0.312 0.078-0.488 0.078c-0.277 0-0.524-0.066-0.741-0.197-0.217-0.132-0.388-0.321-0.512-0.567s-0.186-0.539-0.186-0.88c0-0.342 0.063-0.635 0.188-0.88 0.125-0.246 0.296-0.434 0.512-0.566 0.217-0.132 0.463-0.198 0.739-0.198 0.17 0 0.328 0.024 0.475 0.073 0.148 0.048 0.281 0.119 0.398 0.212 0.118 0.093 0.215 0.206 0.292 0.341s0.129 0.286 0.156 0.458z"></path>
<path fill="#00ada8" style="fill: var(--color1, #00ada8)" d="M39.367 26.65c0 0.342-0.062 0.635-0.188 0.881-0.125 0.245-0.296 0.433-0.514 0.566-0.217 0.131-0.463 0.197-0.739 0.197s-0.524-0.066-0.742-0.197c-0.217-0.132-0.388-0.321-0.512-0.567s-0.188-0.539-0.188-0.88c0-0.342 0.062-0.635 0.188-0.88 0.125-0.246 0.296-0.434 0.512-0.566 0.218-0.132 0.465-0.198 0.742-0.198s0.522 0.066 0.739 0.198c0.218 0.131 0.389 0.32 0.514 0.566 0.125 0.245 0.188 0.538 0.188 0.88zM38.889 26.65c0-0.26-0.042-0.48-0.127-0.658-0.083-0.179-0.198-0.315-0.344-0.406-0.145-0.093-0.309-0.139-0.492-0.139-0.184 0-0.349 0.046-0.494 0.139-0.145 0.092-0.259 0.227-0.344 0.406-0.083 0.178-0.125 0.397-0.125 0.658s0.042 0.48 0.125 0.659c0.084 0.178 0.199 0.314 0.344 0.406 0.145 0.092 0.309 0.138 0.494 0.138s0.347-0.046 0.492-0.138c0.146-0.093 0.26-0.228 0.344-0.406 0.084-0.179 0.127-0.399 0.127-0.659z"></path>
<path fill="#00ada8" style="fill: var(--color1, #00ada8)" d="M42.552 25.050v3.2h-0.444l-1.627-2.347h-0.030v2.347h-0.483v-3.2h0.447l1.628 2.35h0.030v-2.35h0.478z"></path>
<path fill="#00ada8" style="fill: var(--color1, #00ada8)" d="M45.001 25.891c-0.017-0.148-0.085-0.262-0.206-0.344-0.121-0.082-0.273-0.123-0.456-0.123-0.131 0-0.245 0.021-0.341 0.062-0.096 0.041-0.17 0.097-0.223 0.169-0.052 0.071-0.078 0.152-0.078 0.242 0 0.076 0.018 0.142 0.053 0.197 0.036 0.055 0.084 0.102 0.142 0.139 0.059 0.036 0.123 0.067 0.191 0.092 0.068 0.024 0.133 0.044 0.195 0.059l0.312 0.081c0.102 0.025 0.207 0.059 0.314 0.102s0.207 0.099 0.298 0.169c0.092 0.070 0.166 0.156 0.222 0.259 0.057 0.103 0.086 0.227 0.086 0.37 0 0.181-0.047 0.342-0.141 0.483-0.093 0.141-0.228 0.252-0.405 0.333-0.176 0.081-0.389 0.122-0.639 0.122-0.24 0-0.447-0.038-0.622-0.114s-0.312-0.184-0.411-0.323c-0.099-0.141-0.154-0.307-0.164-0.5h0.484c0.009 0.116 0.047 0.212 0.112 0.289 0.067 0.076 0.152 0.133 0.255 0.17 0.104 0.036 0.218 0.055 0.342 0.055 0.136 0 0.258-0.021 0.364-0.064 0.107-0.044 0.192-0.104 0.253-0.181 0.061-0.078 0.092-0.169 0.092-0.273 0-0.095-0.027-0.172-0.081-0.233-0.053-0.060-0.126-0.11-0.217-0.15-0.091-0.040-0.193-0.074-0.308-0.105l-0.378-0.103c-0.256-0.070-0.459-0.172-0.609-0.308-0.149-0.135-0.223-0.315-0.223-0.538 0-0.184 0.050-0.345 0.15-0.483s0.235-0.244 0.406-0.32c0.171-0.077 0.364-0.116 0.578-0.116 0.217 0 0.408 0.038 0.573 0.114 0.167 0.076 0.298 0.181 0.394 0.314 0.096 0.132 0.146 0.284 0.15 0.456h-0.466z"></path>
<path fill="#00ada8" style="fill: var(--color1, #00ada8)" d="M48.145 25.050h0.484v2.105c0 0.224-0.053 0.422-0.158 0.595-0.105 0.172-0.253 0.307-0.444 0.406-0.191 0.098-0.414 0.147-0.67 0.147-0.255 0-0.478-0.049-0.669-0.147-0.191-0.099-0.338-0.234-0.444-0.406-0.105-0.173-0.158-0.371-0.158-0.595v-2.105h0.483v2.066c0 0.145 0.032 0.273 0.095 0.386 0.065 0.112 0.156 0.201 0.273 0.266 0.118 0.064 0.257 0.095 0.419 0.095s0.303-0.032 0.42-0.095c0.119-0.065 0.209-0.153 0.272-0.266 0.064-0.113 0.095-0.241 0.095-0.386v-2.066z"></path>
<path fill="#00ada8" style="fill: var(--color1, #00ada8)" d="M49.332 28.25v-3.2h0.483v2.784h1.45v0.416h-1.933z"></path>
<path fill="#00ada8" style="fill: var(--color1, #00ada8)" d="M51.241 25.466v-0.416h2.477v0.416h-0.998v2.784h-0.481v-2.784h-0.997z"></path>
<path fill="#00ada8" style="fill: var(--color1, #00ada8)" d="M56.907 26.65c0 0.342-0.062 0.635-0.188 0.881-0.125 0.245-0.296 0.433-0.514 0.566-0.217 0.131-0.463 0.197-0.739 0.197s-0.524-0.066-0.742-0.197c-0.217-0.132-0.388-0.321-0.512-0.567s-0.188-0.539-0.188-0.88c0-0.342 0.062-0.635 0.188-0.88 0.125-0.246 0.296-0.434 0.512-0.566 0.218-0.132 0.465-0.198 0.742-0.198s0.522 0.066 0.739 0.198c0.218 0.131 0.389 0.32 0.514 0.566 0.125 0.245 0.188 0.538 0.188 0.88zM56.429 26.65c0-0.26-0.042-0.48-0.127-0.658-0.083-0.179-0.198-0.315-0.344-0.406-0.145-0.093-0.309-0.139-0.492-0.139s-0.349 0.046-0.494 0.139c-0.145 0.092-0.259 0.227-0.344 0.406-0.083 0.178-0.125 0.397-0.125 0.658s0.042 0.48 0.125 0.659c0.084 0.178 0.199 0.314 0.344 0.406 0.145 0.092 0.309 0.138 0.494 0.138s0.347-0.046 0.492-0.138c0.146-0.093 0.26-0.228 0.344-0.406 0.084-0.179 0.127-0.399 0.127-0.659z"></path>
<path fill="#00ada8" style="fill: var(--color1, #00ada8)" d="M57.509 28.25v-3.2h1.141c0.248 0 0.454 0.043 0.617 0.128 0.165 0.085 0.288 0.204 0.369 0.355 0.081 0.15 0.122 0.323 0.122 0.52 0 0.196-0.041 0.368-0.123 0.517-0.081 0.148-0.204 0.263-0.369 0.345s-0.369 0.123-0.617 0.123h-0.864v-0.416h0.82c0.156 0 0.283-0.022 0.381-0.067s0.171-0.11 0.217-0.195c0.046-0.085 0.069-0.188 0.069-0.308 0-0.121-0.023-0.226-0.070-0.314-0.046-0.088-0.118-0.156-0.217-0.203-0.098-0.048-0.227-0.072-0.386-0.072h-0.606v2.786h-0.483zM59.088 26.806l0.791 1.444h-0.55l-0.775-1.444h0.534z"></path>
<path fill="#00ada8" style="fill: var(--color1, #00ada8)" d="M60.827 25.050v3.2h-0.483v-3.2h0.483z"></path>
<path fill="#00ada8" style="fill: var(--color1, #00ada8)" d="M61.801 28.25h-0.512l1.152-3.2h0.558l1.152 3.2h-0.512l-0.905-2.619h-0.025l-0.906 2.619zM61.887 26.997h1.662v0.406h-1.662v-0.406z"></path>
<path fill="#00ada8" style="fill: var(--color1, #00ada8)" d="M66.046 28.25h-0.512l1.152-3.2h0.558l1.152 3.2h-0.513l-0.905-2.619h-0.025l-0.906 2.619zM66.132 26.997h1.663v0.406h-1.663v-0.406z"></path>
<path fill="#00ada8" style="fill: var(--color1, #00ada8)" d="M68.857 25.050h0.586l1.019 2.488h0.037l1.019-2.488h0.586v3.2h-0.459v-2.316h-0.030l-0.944 2.311h-0.381l-0.944-2.312h-0.030v2.317h-0.459v-3.2z"></path>
<path fill="#00ada8" style="fill: var(--color1, #00ada8)" d="M72.805 28.25v-3.2h1.172c0.227 0 0.415 0.038 0.564 0.112s0.26 0.174 0.334 0.302c0.074 0.126 0.111 0.268 0.111 0.427 0 0.133-0.024 0.246-0.073 0.338-0.049 0.091-0.115 0.164-0.197 0.219-0.081 0.054-0.171 0.094-0.269 0.119v0.031c0.106 0.005 0.21 0.040 0.311 0.103 0.102 0.062 0.186 0.152 0.253 0.267s0.1 0.256 0.1 0.422c0 0.164-0.039 0.31-0.116 0.441-0.076 0.129-0.194 0.232-0.353 0.308-0.159 0.075-0.363 0.112-0.611 0.112h-1.227zM73.288 27.836h0.697c0.231 0 0.397-0.045 0.497-0.134s0.15-0.202 0.15-0.336c0-0.101-0.026-0.194-0.077-0.278s-0.124-0.152-0.219-0.202c-0.094-0.050-0.205-0.075-0.334-0.075h-0.714v1.025zM73.288 26.434h0.647c0.108 0 0.206-0.021 0.292-0.063 0.088-0.042 0.157-0.1 0.208-0.175 0.052-0.076 0.078-0.166 0.078-0.269 0-0.132-0.046-0.243-0.139-0.333s-0.235-0.134-0.427-0.134h-0.659v0.973z"></path>
<path fill="#00ada8" style="fill: var(--color1, #00ada8)" d="M76.167 25.050v3.2h-0.483v-3.2h0.483z"></path>
<path fill="#00ada8" style="fill: var(--color1, #00ada8)" d="M76.87 28.25v-3.2h2.006v0.416h-1.523v0.975h1.419v0.414h-1.419v0.98h1.542v0.416h-2.025z"></path>
<path fill="#00ada8" style="fill: var(--color1, #00ada8)" d="M82.104 25.050v3.2h-0.443l-1.627-2.347h-0.030v2.347h-0.482v-3.2h0.447l1.628 2.35h0.030v-2.35h0.478z"></path>
<path fill="#00ada8" style="fill: var(--color1, #00ada8)" d="M82.65 25.466v-0.416h2.477v0.416h-0.998v2.784h-0.481v-2.784h-0.998z"></path>
<path fill="#00ada8" style="fill: var(--color1, #00ada8)" d="M85.567 28.25h-0.513l1.151-3.2h0.558l1.151 3.2h-0.513l-0.904-2.619h-0.026l-0.906 2.619zM85.653 26.997h1.662v0.406h-1.662v-0.406z"></path>
<path fill="#00ada8" style="fill: var(--color1, #00ada8)" d="M88.378 28.25v-3.2h0.482v2.784h1.45v0.416h-1.933z"></path>
<path fill="#00ada8" style="fill: var(--color1, #00ada8)" d="M92.026 28.25v-3.2h2.006v0.416h-1.524v0.975h1.419v0.414h-1.419v0.98h1.542v0.416h-2.025z"></path>
<path fill="#00ada8" style="fill: var(--color1, #00ada8)" d="M96.877 28.25h-1.036v-3.2h1.069c0.314 0 0.583 0.064 0.808 0.192s0.398 0.31 0.517 0.548c0.122 0.238 0.182 0.522 0.182 0.855 0 0.333-0.061 0.62-0.182 0.859s-0.296 0.424-0.526 0.553c-0.229 0.128-0.506 0.192-0.831 0.192zM96.324 27.828h0.526c0.244 0 0.446-0.046 0.608-0.138 0.162-0.093 0.282-0.227 0.362-0.402s0.12-0.391 0.12-0.644c0-0.251-0.040-0.464-0.12-0.639s-0.198-0.308-0.354-0.398c-0.158-0.091-0.353-0.136-0.586-0.136h-0.556v2.356z"></path>
<path fill="#00ada8" style="fill: var(--color1, #00ada8)" d="M99.017 28.25v-3.2h2.006v0.416h-1.523v0.975h1.418v0.414h-1.418v0.98h1.542v0.416h-2.025z"></path>
<path fill="#00ada8" style="fill: var(--color1, #00ada8)" d="M104.578 25.891c-0.017-0.148-0.086-0.262-0.206-0.344-0.121-0.082-0.273-0.123-0.456-0.123-0.131 0-0.245 0.021-0.341 0.062-0.096 0.041-0.17 0.097-0.224 0.169-0.052 0.071-0.078 0.152-0.078 0.242 0 0.076 0.018 0.142 0.053 0.197 0.037 0.055 0.084 0.102 0.142 0.139 0.059 0.036 0.123 0.067 0.19 0.092 0.068 0.024 0.133 0.044 0.195 0.059l0.313 0.081c0.102 0.025 0.206 0.059 0.314 0.102s0.206 0.099 0.298 0.169c0.091 0.070 0.166 0.156 0.222 0.259 0.058 0.103 0.086 0.227 0.086 0.37 0 0.181-0.046 0.342-0.14 0.483s-0.228 0.252-0.405 0.333c-0.176 0.081-0.39 0.122-0.639 0.122-0.24 0-0.447-0.038-0.622-0.114s-0.312-0.184-0.411-0.323c-0.099-0.141-0.154-0.307-0.164-0.5h0.484c0.010 0.116 0.047 0.212 0.113 0.289 0.066 0.076 0.151 0.133 0.254 0.17 0.105 0.036 0.218 0.055 0.342 0.055 0.137 0 0.258-0.021 0.364-0.064 0.107-0.044 0.192-0.104 0.254-0.181 0.061-0.078 0.092-0.169 0.092-0.273 0-0.095-0.027-0.172-0.082-0.233-0.053-0.060-0.126-0.11-0.217-0.15s-0.194-0.074-0.308-0.105l-0.378-0.103c-0.256-0.070-0.459-0.172-0.609-0.308s-0.224-0.315-0.224-0.538c0-0.184 0.050-0.345 0.15-0.483s0.235-0.244 0.406-0.32c0.17-0.077 0.363-0.116 0.578-0.116 0.217 0 0.408 0.038 0.574 0.114s0.298 0.181 0.394 0.314c0.096 0.132 0.146 0.284 0.15 0.456h-0.466z"></path>
<path fill="#00ada8" style="fill: var(--color1, #00ada8)" d="M105.664 28.25v-3.2h2.006v0.416h-1.523v0.975h1.419v0.414h-1.419v0.98h1.542v0.416h-2.025z"></path>
<path fill="#00ada8" style="fill: var(--color1, #00ada8)" d="M110.481 26.061c-0.030-0.095-0.071-0.18-0.122-0.255-0.050-0.076-0.11-0.141-0.179-0.194-0.070-0.054-0.15-0.095-0.239-0.123s-0.186-0.042-0.292-0.042c-0.181 0-0.343 0.046-0.488 0.139s-0.259 0.229-0.343 0.408c-0.084 0.178-0.126 0.396-0.126 0.655 0 0.259 0.042 0.479 0.126 0.658s0.2 0.315 0.347 0.408 0.314 0.139 0.502 0.139c0.174 0 0.326-0.035 0.454-0.106 0.13-0.071 0.231-0.171 0.302-0.3 0.072-0.13 0.108-0.283 0.108-0.459l0.125 0.023h-0.915v-0.398h1.258v0.364c0 0.269-0.058 0.502-0.172 0.7-0.114 0.197-0.27 0.349-0.472 0.456-0.2 0.107-0.429 0.161-0.687 0.161-0.29 0-0.544-0.067-0.762-0.2s-0.387-0.322-0.51-0.567c-0.122-0.246-0.182-0.538-0.182-0.875 0-0.255 0.035-0.484 0.106-0.688s0.17-0.376 0.299-0.517c0.129-0.143 0.28-0.252 0.454-0.327 0.175-0.076 0.366-0.114 0.574-0.114 0.173 0 0.334 0.026 0.482 0.077 0.15 0.051 0.283 0.123 0.4 0.217s0.215 0.205 0.292 0.334c0.078 0.128 0.13 0.27 0.157 0.427h-0.495z"></path>
<path fill="#00ada8" style="fill: var(--color1, #00ada8)" d="M113.668 25.050h0.485v2.105c0 0.224-0.053 0.422-0.158 0.595-0.106 0.172-0.254 0.307-0.444 0.406-0.19 0.098-0.414 0.147-0.67 0.147s-0.478-0.049-0.669-0.147c-0.19-0.099-0.338-0.234-0.444-0.406-0.105-0.173-0.158-0.371-0.158-0.595v-2.105h0.483v2.066c0 0.145 0.031 0.273 0.095 0.386s0.156 0.201 0.274 0.266c0.118 0.064 0.257 0.095 0.418 0.095s0.302-0.032 0.42-0.095c0.119-0.065 0.21-0.153 0.272-0.266 0.064-0.113 0.095-0.241 0.095-0.386v-2.066z"></path>
<path fill="#00ada8" style="fill: var(--color1, #00ada8)" d="M114.854 28.25v-3.2h1.141c0.248 0 0.454 0.043 0.618 0.128s0.287 0.204 0.369 0.355c0.081 0.15 0.122 0.323 0.122 0.52 0 0.196-0.042 0.368-0.123 0.517-0.082 0.148-0.205 0.263-0.369 0.345s-0.37 0.123-0.618 0.123h-0.864v-0.416h0.821c0.156 0 0.283-0.022 0.381-0.067 0.099-0.045 0.171-0.11 0.218-0.195s0.069-0.188 0.069-0.308c0-0.121-0.024-0.226-0.070-0.314s-0.118-0.156-0.218-0.203c-0.098-0.048-0.226-0.072-0.386-0.072h-0.606v2.786h-0.483zM116.434 26.806l0.79 1.444h-0.55l-0.775-1.444h0.534z"></path>
<path fill="#00ada8" style="fill: var(--color1, #00ada8)" d="M117.961 28.25h-0.512l1.151-3.2h0.558l1.152 3.2h-0.513l-0.905-2.619h-0.025l-0.906 2.619zM118.047 26.997h1.662v0.406h-1.662v-0.406z"></path>
<path fill="#00ada8" style="fill: var(--color1, #00ada8)" d="M123.354 25.050v3.2h-0.444l-1.626-2.347h-0.030v2.347h-0.483v-3.2h0.447l1.628 2.35h0.030v-2.35h0.478z"></path>
<path fill="#00ada8" style="fill: var(--color1, #00ada8)" d="M126.717 26.091h-0.488c-0.018-0.104-0.054-0.196-0.105-0.275s-0.114-0.146-0.187-0.202c-0.074-0.055-0.157-0.097-0.249-0.125-0.090-0.028-0.186-0.042-0.289-0.042-0.184 0-0.35 0.046-0.495 0.139s-0.259 0.229-0.344 0.408c-0.083 0.179-0.125 0.398-0.125 0.656 0 0.26 0.042 0.48 0.125 0.659 0.085 0.179 0.2 0.315 0.346 0.406s0.31 0.138 0.492 0.138c0.101 0 0.197-0.014 0.287-0.041 0.092-0.028 0.175-0.069 0.249-0.123s0.137-0.12 0.187-0.198c0.052-0.079 0.088-0.17 0.108-0.272l0.488 0.002c-0.026 0.157-0.077 0.302-0.152 0.434-0.074 0.131-0.17 0.245-0.286 0.341-0.116 0.095-0.248 0.168-0.397 0.22s-0.312 0.078-0.488 0.078c-0.277 0-0.524-0.066-0.741-0.197-0.216-0.132-0.387-0.321-0.512-0.567s-0.186-0.539-0.186-0.88c0-0.342 0.062-0.635 0.188-0.88 0.125-0.246 0.296-0.434 0.512-0.566 0.217-0.132 0.463-0.198 0.739-0.198 0.17 0 0.328 0.024 0.475 0.073 0.148 0.048 0.281 0.119 0.398 0.212 0.118 0.093 0.215 0.206 0.292 0.341s0.13 0.286 0.157 0.458zM125.23 28.255h0.306l-0.025 0.128c0.090 0.015 0.17 0.051 0.238 0.109s0.102 0.146 0.102 0.264c0.001 0.141-0.060 0.255-0.183 0.342-0.122 0.088-0.298 0.131-0.53 0.131l-0.010-0.261c0.109 0 0.196-0.016 0.262-0.047 0.068-0.031 0.102-0.082 0.103-0.152s-0.025-0.119-0.078-0.147c-0.053-0.028-0.136-0.048-0.25-0.059l0.064-0.309z"></path>
<path fill="#00ada8" style="fill: var(--color1, #00ada8)" d="M127.543 28.25h-0.513l1.152-3.2h0.558l1.151 3.2h-0.512l-0.905-2.619h-0.025l-0.906 2.619zM127.629 26.997h1.662v0.406h-1.662v-0.406z"></path>
<path fill="#00ada8" style="fill: var(--color1, #00ada8)" d="M132.554 28.25h-1.036v-3.2h1.069c0.314 0 0.583 0.064 0.808 0.192s0.398 0.31 0.518 0.548c0.121 0.238 0.181 0.522 0.181 0.855 0 0.333-0.061 0.62-0.182 0.859s-0.296 0.424-0.526 0.553c-0.229 0.128-0.506 0.192-0.831 0.192zM132.001 27.828h0.526c0.244 0 0.446-0.046 0.608-0.138 0.162-0.093 0.282-0.227 0.362-0.402s0.12-0.391 0.12-0.644c0-0.251-0.040-0.464-0.12-0.639s-0.198-0.308-0.354-0.398c-0.158-0.091-0.353-0.136-0.586-0.136h-0.556v2.356z"></path>
<path fill="#00ada8" style="fill: var(--color1, #00ada8)" d="M137.473 26.65c0 0.342-0.062 0.635-0.187 0.881-0.125 0.245-0.296 0.433-0.514 0.566-0.216 0.131-0.462 0.197-0.738 0.197-0.278 0-0.525-0.066-0.742-0.197-0.217-0.132-0.388-0.321-0.513-0.567s-0.187-0.539-0.187-0.88c0-0.342 0.062-0.635 0.187-0.88 0.125-0.246 0.296-0.434 0.513-0.566 0.218-0.132 0.465-0.198 0.742-0.198 0.276 0 0.522 0.066 0.738 0.198 0.218 0.131 0.39 0.32 0.514 0.566 0.125 0.245 0.187 0.538 0.187 0.88zM136.995 26.65c0-0.26-0.042-0.48-0.127-0.658-0.083-0.179-0.198-0.315-0.343-0.406-0.145-0.093-0.309-0.139-0.492-0.139-0.185 0-0.35 0.046-0.494 0.139-0.145 0.092-0.259 0.227-0.343 0.406s-0.126 0.397-0.126 0.658 0.042 0.48 0.126 0.659c0.084 0.178 0.198 0.314 0.343 0.406 0.145 0.092 0.31 0.138 0.494 0.138 0.183 0 0.347-0.046 0.492-0.138 0.146-0.093 0.26-0.228 0.343-0.406 0.085-0.179 0.127-0.399 0.127-0.659z"></path>
<path fill="#00ada8" style="fill: var(--color1, #00ada8)" d="M139.082 25.466v-0.416h2.477v0.416h-0.998v2.784h-0.482v-2.784h-0.997z"></path>
<path fill="#00ada8" style="fill: var(--color1, #00ada8)" d="M142.106 28.25v-3.2h1.141c0.248 0 0.454 0.043 0.617 0.128 0.165 0.085 0.288 0.204 0.369 0.355 0.082 0.15 0.122 0.323 0.122 0.52 0 0.196-0.041 0.368-0.123 0.517-0.081 0.148-0.204 0.263-0.369 0.345-0.163 0.082-0.369 0.123-0.617 0.123h-0.864v-0.416h0.82c0.156 0 0.283-0.022 0.382-0.067s0.171-0.11 0.217-0.195c0.046-0.085 0.069-0.188 0.069-0.308 0-0.121-0.023-0.226-0.070-0.314-0.046-0.088-0.118-0.156-0.217-0.203-0.098-0.048-0.227-0.072-0.386-0.072h-0.606v2.786h-0.482zM143.685 26.806l0.791 1.444h-0.55l-0.774-1.444h0.534z"></path>
<path fill="#00ada8" style="fill: var(--color1, #00ada8)" d="M145.212 28.25h-0.513l1.152-3.2h0.558l1.151 3.2h-0.512l-0.905-2.619h-0.026l-0.906 2.619zM145.298 26.997h1.662v0.406h-1.662v-0.406z"></path>
<path fill="#00ada8" style="fill: var(--color1, #00ada8)" d="M148.022 28.25v-3.2h1.172c0.227 0 0.415 0.038 0.564 0.112s0.26 0.174 0.334 0.302c0.074 0.126 0.11 0.268 0.11 0.427 0 0.133-0.024 0.246-0.073 0.338-0.050 0.091-0.115 0.164-0.197 0.219-0.082 0.054-0.171 0.094-0.269 0.119v0.031c0.106 0.005 0.21 0.040 0.31 0.103 0.102 0.062 0.186 0.152 0.254 0.267s0.1 0.256 0.1 0.422c0 0.164-0.038 0.31-0.116 0.441-0.076 0.129-0.194 0.232-0.353 0.308-0.159 0.075-0.363 0.112-0.611 0.112h-1.226zM148.505 27.836h0.697c0.232 0 0.398-0.045 0.498-0.134s0.15-0.202 0.15-0.336c0-0.101-0.026-0.194-0.077-0.278s-0.124-0.152-0.218-0.202c-0.094-0.050-0.206-0.075-0.334-0.075h-0.714v1.025zM148.505 26.434h0.647c0.108 0 0.206-0.021 0.292-0.063 0.088-0.042 0.157-0.1 0.208-0.175 0.052-0.076 0.078-0.166 0.078-0.269 0-0.132-0.046-0.243-0.139-0.333s-0.235-0.134-0.426-0.134h-0.66v0.973z"></path>
<path fill="#00ada8" style="fill: var(--color1, #00ada8)" d="M151.171 28.25h-0.512l1.151-3.2h0.558l1.152 3.2h-0.513l-0.905-2.619h-0.025l-0.906 2.619zM151.258 26.997h1.662v0.406h-1.662v-0.406z"></path>
<path fill="#00ada8" style="fill: var(--color1, #00ada8)" d="M153.982 28.25v-3.2h0.482v2.784h1.45v0.416h-1.933z"></path>
<path fill="#00ada8" style="fill: var(--color1, #00ada8)" d="M156.466 28.25v-3.2h0.483v1.391h1.595v-1.391h0.484v3.2h-0.484v-1.395h-1.595v1.395h-0.483z"></path>
<path fill="#00ada8" style="fill: var(--color1, #00ada8)" d="M162.511 26.65c0 0.342-0.062 0.635-0.188 0.881-0.125 0.245-0.296 0.433-0.514 0.566-0.217 0.131-0.463 0.197-0.739 0.197s-0.525-0.066-0.742-0.197c-0.217-0.132-0.387-0.321-0.512-0.567s-0.188-0.539-0.188-0.88c0-0.342 0.062-0.635 0.188-0.88 0.125-0.246 0.295-0.434 0.512-0.566 0.218-0.132 0.466-0.198 0.742-0.198s0.522 0.066 0.739 0.198c0.218 0.131 0.389 0.32 0.514 0.566 0.126 0.245 0.188 0.538 0.188 0.88zM162.033 26.65c0-0.26-0.042-0.48-0.126-0.658s-0.198-0.315-0.344-0.406c-0.145-0.093-0.309-0.139-0.492-0.139-0.185 0-0.349 0.046-0.494 0.139-0.145 0.092-0.259 0.227-0.344 0.406-0.083 0.178-0.125 0.397-0.125 0.658s0.042 0.48 0.125 0.659c0.085 0.178 0.199 0.314 0.344 0.406 0.145 0.092 0.309 0.138 0.494 0.138 0.183 0 0.347-0.046 0.492-0.138 0.146-0.093 0.261-0.228 0.344-0.406s0.126-0.399 0.126-0.659z"></path>
</symbol>
</defs>
</svg>
